%TF.GenerationSoftware,KiCad,Pcbnew,8.0.6*%
%TF.CreationDate,2025-03-02T22:23:19-05:00*%
%TF.ProjectId,Camera,43616d65-7261-42e6-9b69-6361645f7063,rev?*%
%TF.SameCoordinates,Original*%
%TF.FileFunction,Paste,Top*%
%TF.FilePolarity,Positive*%
%FSLAX46Y46*%
G04 Gerber Fmt 4.6, Leading zero omitted, Abs format (unit mm)*
G04 Created by KiCad (PCBNEW 8.0.6) date 2025-03-02 22:23:19*
%MOMM*%
%LPD*%
G01*
G04 APERTURE LIST*
G04 Aperture macros list*
%AMRoundRect*
0 Rectangle with rounded corners*
0 $1 Rounding radius*
0 $2 $3 $4 $5 $6 $7 $8 $9 X,Y pos of 4 corners*
0 Add a 4 corners polygon primitive as box body*
4,1,4,$2,$3,$4,$5,$6,$7,$8,$9,$2,$3,0*
0 Add four circle primitives for the rounded corners*
1,1,$1+$1,$2,$3*
1,1,$1+$1,$4,$5*
1,1,$1+$1,$6,$7*
1,1,$1+$1,$8,$9*
0 Add four rect primitives between the rounded corners*
20,1,$1+$1,$2,$3,$4,$5,0*
20,1,$1+$1,$4,$5,$6,$7,0*
20,1,$1+$1,$6,$7,$8,$9,0*
20,1,$1+$1,$8,$9,$2,$3,0*%
G04 Aperture macros list end*
%ADD10RoundRect,0.300000X0.300000X-0.300000X0.300000X0.300000X-0.300000X0.300000X-0.300000X-0.300000X0*%
%ADD11R,2.000000X3.000000*%
%ADD12RoundRect,0.075000X-0.075000X-0.550000X0.075000X-0.550000X0.075000X0.550000X-0.075000X0.550000X0*%
%ADD13RoundRect,0.300000X-0.300000X-0.450000X0.300000X-0.450000X0.300000X0.450000X-0.300000X0.450000X0*%
%ADD14RoundRect,0.500000X-1.000000X-0.500000X1.000000X-0.500000X1.000000X0.500000X-1.000000X0.500000X0*%
%ADD15RoundRect,0.250000X-0.650000X0.412500X-0.650000X-0.412500X0.650000X-0.412500X0.650000X0.412500X0*%
%ADD16RoundRect,0.300000X0.300000X0.450000X-0.300000X0.450000X-0.300000X-0.450000X0.300000X-0.450000X0*%
%ADD17R,0.900000X1.500000*%
%ADD18R,0.900000X0.900000*%
%ADD19RoundRect,0.625000X-0.625000X-0.625000X0.625000X-0.625000X0.625000X0.625000X-0.625000X0.625000X0*%
G04 APERTURE END LIST*
D10*
%TO.C,Q2*%
X195850000Y-64450000D03*
X195850000Y-62550000D03*
X197850000Y-63500000D03*
%TD*%
D11*
%TO.C,CAMERA1*%
X180035000Y-73660000D03*
X194615000Y-73660000D03*
D12*
X181575000Y-75985000D03*
X182075000Y-75985000D03*
X182575000Y-75985000D03*
X183075000Y-75985000D03*
X183575000Y-75985000D03*
X184075000Y-75985000D03*
X184575000Y-75985000D03*
X185075000Y-75985000D03*
X185575000Y-75985000D03*
X186075000Y-75985000D03*
X186575000Y-75985000D03*
X187075000Y-75985000D03*
X187575000Y-75985000D03*
X188075000Y-75985000D03*
X188575000Y-75985000D03*
X189075000Y-75985000D03*
X189575000Y-75985000D03*
X190075000Y-75985000D03*
X190575000Y-75985000D03*
X191075000Y-75985000D03*
X191575000Y-75985000D03*
X192075000Y-75985000D03*
X192575000Y-75985000D03*
X193075000Y-75985000D03*
%TD*%
D13*
%TO.C,U8*%
X195950000Y-70215000D03*
X197750000Y-70215000D03*
X196850000Y-68215000D03*
%TD*%
D14*
%TO.C,BOOT1*%
X195890000Y-43855000D03*
X202890000Y-43855000D03*
X195890000Y-48855000D03*
X202890000Y-48855000D03*
%TD*%
D15*
%TO.C,C11*%
X174625000Y-65112500D03*
X174625000Y-68237500D03*
%TD*%
D16*
%TO.C,U10*%
X178700000Y-68215000D03*
X176900000Y-68215000D03*
X177800000Y-70215000D03*
%TD*%
D14*
%TO.C,RESET1*%
X195890000Y-52745000D03*
X202890000Y-52745000D03*
X195890000Y-57745000D03*
X202890000Y-57745000D03*
%TD*%
D17*
%TO.C,U5*%
X169545000Y-59550000D03*
X170815000Y-59550000D03*
X172085000Y-59550000D03*
X173355000Y-59550000D03*
X174625000Y-59550000D03*
X175895000Y-59550000D03*
X177165000Y-59550000D03*
X178435000Y-59550000D03*
X179705000Y-59550000D03*
X180975000Y-59550000D03*
X182245000Y-59550000D03*
X183515000Y-59550000D03*
X184785000Y-59550000D03*
X186055000Y-59550000D03*
X187325000Y-59550000D03*
X188595000Y-59550000D03*
X189865000Y-59550000D03*
X191135000Y-59550000D03*
X192405000Y-59550000D03*
X192405000Y-42050000D03*
X191135000Y-42050000D03*
X189865000Y-42050000D03*
X188595000Y-42050000D03*
X187325000Y-42050000D03*
X186055000Y-42050000D03*
X184785000Y-42050000D03*
X183515000Y-42050000D03*
X182245000Y-42050000D03*
X180975000Y-42050000D03*
X179705000Y-42050000D03*
X178435000Y-42050000D03*
X177165000Y-42050000D03*
X175895000Y-42050000D03*
X174625000Y-42050000D03*
X173355000Y-42050000D03*
X172085000Y-42050000D03*
X170815000Y-42050000D03*
X169545000Y-42050000D03*
D18*
X175940000Y-53705000D03*
X177340000Y-53700000D03*
X178740000Y-53700000D03*
X175940000Y-52300000D03*
X177340000Y-52300000D03*
X178740000Y-52300000D03*
X175940000Y-50900000D03*
X177340000Y-50900000D03*
X178740000Y-50900000D03*
%TD*%
D19*
%TO.C,D1*%
X203200000Y-63405000D03*
X203200000Y-67405000D03*
%TD*%
D15*
%TO.C,C10*%
X200025000Y-65112500D03*
X200025000Y-68237500D03*
%TD*%
M02*
