M48
; DRILL file {KiCad 8.0.6} date 2025-03-02T22:23:22-0500
; FORMAT={-:-/ absolute / inch / decimal}
; #@! TF.CreationDate,2025-03-02T22:23:22-05:00
; #@! TF.GenerationSoftware,Kicad,Pcbnew,8.0.6
; #@! TF.FileFunction,Plated,1,2,PTH
FMAT,2
INCH
; #@! TA.AperFunction,Plated,PTH,ViaDrill
T1C0.0118
; #@! TA.AperFunction,Plated,PTH,ComponentDrill
T2C0.0400
%
G90
G05
T1
X6.7126Y-2.2835
X6.752Y-2.2638
X6.7913Y-2.2244
X6.9094Y-2.4016
X6.9488Y-1.811
X6.9488Y-2.4016
X6.9882Y-2.4016
X7.0276Y-2.5787
X7.0669Y-2.7756
X7.0866Y-1.7126
X7.1063Y-2.7559
X7.1457Y-2.6772
X7.1457Y-2.7953
X7.185Y-1.7913
X7.185Y-2.185
X7.185Y-2.9134
X7.2244Y-1.7913
X7.2244Y-1.8307
X7.2244Y-2.185
X7.2274Y-2.9134
X7.2441Y-2.4016
X7.2441Y-2.4606
X7.2441Y-2.5
X7.2638Y-3.0512
X7.2835Y-2.5591
X7.3031Y-2.7362
X7.3031Y-3.0512
X7.3228Y-2.6181
X7.3228Y-2.9134
X7.375Y-2.4085
X7.4016Y-2.7953
X7.4213Y-2.7559
X7.4606Y-1.752
X7.4606Y-2.5394
X7.5Y-2.2835
X7.5394Y-2.2638
X7.5984Y-2.6181
X7.6378Y-3.0118
X7.6575Y-2.7756
X7.7165Y-2.4016
X7.7362Y-2.5787
X7.7953Y-2.2244
X7.7953Y-2.5591
X7.8543Y-2.2835
X7.9921Y-2.5787
X8.0118Y-1.5945
X8.0512Y-2.4213
X8.075Y-1.9488
X8.075Y-2.2244
T2
X7.075Y-1.55
X7.175Y-1.55
X7.275Y-1.55
X7.375Y-1.55
X7.475Y-1.55
X7.575Y-1.55
X7.675Y-1.55
M30
