%TF.GenerationSoftware,KiCad,Pcbnew,8.0.6*%
%TF.CreationDate,2025-03-02T22:23:19-05:00*%
%TF.ProjectId,Camera,43616d65-7261-42e6-9b69-6361645f7063,rev?*%
%TF.SameCoordinates,Original*%
%TF.FileFunction,Copper,L2,Bot*%
%TF.FilePolarity,Positive*%
%FSLAX46Y46*%
G04 Gerber Fmt 4.6, Leading zero omitted, Abs format (unit mm)*
G04 Created by KiCad (PCBNEW 8.0.6) date 2025-03-02 22:23:19*
%MOMM*%
%LPD*%
G01*
G04 APERTURE LIST*
G04 Aperture macros list*
%AMRoundRect*
0 Rectangle with rounded corners*
0 $1 Rounding radius*
0 $2 $3 $4 $5 $6 $7 $8 $9 X,Y pos of 4 corners*
0 Add a 4 corners polygon primitive as box body*
4,1,4,$2,$3,$4,$5,$6,$7,$8,$9,$2,$3,0*
0 Add four circle primitives for the rounded corners*
1,1,$1+$1,$2,$3*
1,1,$1+$1,$4,$5*
1,1,$1+$1,$6,$7*
1,1,$1+$1,$8,$9*
0 Add four rect primitives between the rounded corners*
20,1,$1+$1,$2,$3,$4,$5,0*
20,1,$1+$1,$4,$5,$6,$7,0*
20,1,$1+$1,$6,$7,$8,$9,0*
20,1,$1+$1,$8,$9,$2,$3,0*%
G04 Aperture macros list end*
%TA.AperFunction,ComponentPad*%
%ADD10C,1.650000*%
%TD*%
%TA.AperFunction,SMDPad,CuDef*%
%ADD11RoundRect,0.250000X0.400000X0.625000X-0.400000X0.625000X-0.400000X-0.625000X0.400000X-0.625000X0*%
%TD*%
%TA.AperFunction,SMDPad,CuDef*%
%ADD12RoundRect,0.250000X-0.625000X0.400000X-0.625000X-0.400000X0.625000X-0.400000X0.625000X0.400000X0*%
%TD*%
%TA.AperFunction,SMDPad,CuDef*%
%ADD13RoundRect,0.250000X0.650000X-0.412500X0.650000X0.412500X-0.650000X0.412500X-0.650000X-0.412500X0*%
%TD*%
%TA.AperFunction,SMDPad,CuDef*%
%ADD14RoundRect,0.250000X0.412500X0.650000X-0.412500X0.650000X-0.412500X-0.650000X0.412500X-0.650000X0*%
%TD*%
%TA.AperFunction,SMDPad,CuDef*%
%ADD15RoundRect,0.250000X-0.412500X-0.650000X0.412500X-0.650000X0.412500X0.650000X-0.412500X0.650000X0*%
%TD*%
%TA.AperFunction,SMDPad,CuDef*%
%ADD16RoundRect,0.300000X-0.300000X-0.300000X0.300000X-0.300000X0.300000X0.300000X-0.300000X0.300000X0*%
%TD*%
%TA.AperFunction,SMDPad,CuDef*%
%ADD17RoundRect,0.250000X0.625000X-0.400000X0.625000X0.400000X-0.625000X0.400000X-0.625000X-0.400000X0*%
%TD*%
%TA.AperFunction,SMDPad,CuDef*%
%ADD18RoundRect,0.625000X0.625000X0.625000X-0.625000X0.625000X-0.625000X-0.625000X0.625000X-0.625000X0*%
%TD*%
%TA.AperFunction,SMDPad,CuDef*%
%ADD19R,0.900000X1.500000*%
%TD*%
%TA.AperFunction,SMDPad,CuDef*%
%ADD20R,0.900000X0.900000*%
%TD*%
%TA.AperFunction,SMDPad,CuDef*%
%ADD21RoundRect,0.500000X1.000000X0.500000X-1.000000X0.500000X-1.000000X-0.500000X1.000000X-0.500000X0*%
%TD*%
%TA.AperFunction,SMDPad,CuDef*%
%ADD22RoundRect,0.250000X-0.650000X0.412500X-0.650000X-0.412500X0.650000X-0.412500X0.650000X0.412500X0*%
%TD*%
%TA.AperFunction,ViaPad*%
%ADD23C,0.600000*%
%TD*%
%TA.AperFunction,Conductor*%
%ADD24C,0.200000*%
%TD*%
G04 APERTURE END LIST*
D10*
%TO.P,U1,1,BLE_TX*%
%TO.N,/B_TX*%
X194945000Y-39370000D03*
%TO.P,U1,2,BLE_RX*%
%TO.N,/B_RX*%
X192405000Y-39370000D03*
%TO.P,U1,3,5V*%
%TO.N,unconnected-(U1-5V-Pad3)*%
X189865000Y-39370000D03*
%TO.P,U1,4,GND*%
%TO.N,GNDREF*%
X187325000Y-39370000D03*
%TO.P,U1,5,3.3V*%
%TO.N,/3.3V*%
X184785000Y-39370000D03*
%TO.P,U1,6,WIFI_RX*%
%TO.N,/W_RX*%
X182245000Y-39370000D03*
%TO.P,U1,7,WIFI_TX*%
%TO.N,/W_TX*%
X179705000Y-39370000D03*
%TD*%
D11*
%TO.P,R8,1*%
%TO.N,Net-(D1-A)*%
X202210000Y-67945000D03*
%TO.P,R8,2*%
%TO.N,Net-(Q2-E)*%
X199110000Y-67945000D03*
%TD*%
%TO.P,R1,1*%
%TO.N,/B_EN*%
X178080000Y-53975000D03*
%TO.P,R1,2*%
%TO.N,/3.3V*%
X174980000Y-53975000D03*
%TD*%
D12*
%TO.P,R6,1*%
%TO.N,/3.3V*%
X182245000Y-72110000D03*
%TO.P,R6,2*%
%TO.N,/CAM_SIOC*%
X182245000Y-75210000D03*
%TD*%
D13*
%TO.P,C4,1*%
%TO.N,/3.3V*%
X192405000Y-75222500D03*
%TO.P,C4,2*%
%TO.N,GNDREF*%
X192405000Y-72097500D03*
%TD*%
D14*
%TO.P,C8,1*%
%TO.N,GNDREF*%
X178092500Y-50800000D03*
%TO.P,C8,2*%
%TO.N,/3.3V*%
X174967500Y-50800000D03*
%TD*%
D15*
%TO.P,C5,1*%
%TO.N,/3.3V*%
X174967500Y-47625000D03*
%TO.P,C5,2*%
%TO.N,GNDREF*%
X178092500Y-47625000D03*
%TD*%
D16*
%TO.P,Q1,1,E*%
%TO.N,Net-(Q1-E)*%
X191455000Y-65135000D03*
%TO.P,Q1,2,B*%
%TO.N,/V_CTRL*%
X193355000Y-65135000D03*
%TO.P,Q1,3,C*%
%TO.N,/3.3V*%
X192405000Y-63135000D03*
%TD*%
D17*
%TO.P,R3,1*%
%TO.N,/CAM_PWDN*%
X189865000Y-75210000D03*
%TO.P,R3,2*%
%TO.N,GNDREF*%
X189865000Y-72110000D03*
%TD*%
D14*
%TO.P,C1,1*%
%TO.N,/B_EN*%
X178092500Y-57150000D03*
%TO.P,C1,2*%
%TO.N,GNDREF*%
X174967500Y-57150000D03*
%TD*%
D18*
%TO.P,U7,1,PWR*%
%TO.N,Net-(Q1-E)*%
X187325000Y-64040000D03*
%TO.P,U7,2,GND*%
%TO.N,GNDREF*%
X187325000Y-68040000D03*
%TD*%
D13*
%TO.P,C2,1*%
%TO.N,/CAM_PCLK*%
X194945000Y-75222500D03*
%TO.P,C2,2*%
%TO.N,GNDREF*%
X194945000Y-72097500D03*
%TD*%
D12*
%TO.P,R9,2*%
%TO.N,/3.3V*%
X180975000Y-66320000D03*
%TO.P,R9,1*%
%TO.N,/GEN_BTN*%
X180975000Y-63220000D03*
%TD*%
D19*
%TO.P,U2,1,GND*%
%TO.N,GNDREF*%
X205105000Y-59550000D03*
%TO.P,U2,2,3V3*%
%TO.N,/3.3V*%
X203835000Y-59550000D03*
%TO.P,U2,3,EN*%
%TO.N,/B_EN*%
X202565000Y-59550000D03*
%TO.P,U2,4,SENSOR_VP*%
%TO.N,unconnected-(U2-SENSOR_VP-Pad4)*%
X201295000Y-59550000D03*
%TO.P,U2,5,SENSOR_VN*%
%TO.N,unconnected-(U2-SENSOR_VN-Pad5)*%
X200025000Y-59550000D03*
%TO.P,U2,6,IO34*%
%TO.N,unconnected-(U2-IO34-Pad6)*%
X198755000Y-59550000D03*
%TO.P,U2,7,IO35*%
%TO.N,unconnected-(U2-IO35-Pad7)*%
X197485000Y-59550000D03*
%TO.P,U2,8,IO32*%
%TO.N,/LED_CTRL*%
X196215000Y-59550000D03*
%TO.P,U2,9,IO33*%
%TO.N,unconnected-(U2-IO33-Pad9)*%
X194945000Y-59550000D03*
%TO.P,U2,10,IO25*%
%TO.N,unconnected-(U2-IO25-Pad10)*%
X193675000Y-59550000D03*
%TO.P,U2,11,IO26*%
%TO.N,/V_CTRL*%
X192405000Y-59550000D03*
%TO.P,U2,12,IO27*%
%TO.N,/GEN_BTN*%
X191135000Y-59550000D03*
%TO.P,U2,13,IO14*%
%TO.N,unconnected-(U2-IO14-Pad13)*%
X189865000Y-59550000D03*
%TO.P,U2,14,IO12*%
%TO.N,unconnected-(U2-IO12-Pad14)*%
X188595000Y-59550000D03*
%TO.P,U2,15,GND*%
%TO.N,GNDREF*%
X187325000Y-59550000D03*
%TO.P,U2,16,IO13*%
%TO.N,unconnected-(U2-IO13-Pad16)*%
X186055000Y-59550000D03*
%TO.P,U2,17,NC*%
%TO.N,unconnected-(U2-NC-Pad17)*%
X184785000Y-59550000D03*
%TO.P,U2,18,NC*%
%TO.N,unconnected-(U2-NC-Pad18)*%
X183515000Y-59550000D03*
%TO.P,U2,19,NC*%
%TO.N,unconnected-(U2-NC-Pad19)*%
X182245000Y-59550000D03*
%TO.P,U2,20,NC*%
%TO.N,unconnected-(U2-NC-Pad20)*%
X182245000Y-42050000D03*
%TO.P,U2,21,NC*%
%TO.N,unconnected-(U2-NC-Pad21)*%
X183515000Y-42050000D03*
%TO.P,U2,22,NC*%
%TO.N,unconnected-(U2-NC-Pad22)*%
X184785000Y-42050000D03*
%TO.P,U2,23,IO15*%
%TO.N,unconnected-(U2-IO15-Pad23)*%
X186055000Y-42050000D03*
%TO.P,U2,24,IO2*%
%TO.N,unconnected-(U2-IO2-Pad24)*%
X187325000Y-42050000D03*
%TO.P,U2,25,IO0*%
%TO.N,/B_IO0*%
X188595000Y-42050000D03*
%TO.P,U2,26,IO4*%
%TO.N,unconnected-(U2-IO4-Pad26)*%
X189865000Y-42050000D03*
%TO.P,U2,27,IO16*%
%TO.N,unconnected-(U2-IO16-Pad27)*%
X191135000Y-42050000D03*
%TO.P,U2,28,IO17*%
%TO.N,/IPC_TX*%
X192405000Y-42050000D03*
%TO.P,U2,29,IO5*%
%TO.N,/IPC_RX*%
X193675000Y-42050000D03*
%TO.P,U2,30,IO18*%
%TO.N,unconnected-(U2-IO18-Pad30)*%
X194945000Y-42050000D03*
%TO.P,U2,31,IO19*%
%TO.N,unconnected-(U2-IO19-Pad31)*%
X196215000Y-42050000D03*
%TO.P,U2,32,NC*%
%TO.N,unconnected-(U2-NC-Pad32)*%
X197485000Y-42050000D03*
%TO.P,U2,33,IO21*%
%TO.N,unconnected-(U2-IO21-Pad33)*%
X198755000Y-42050000D03*
%TO.P,U2,34,RXD0*%
%TO.N,/B_RX*%
X200025000Y-42050000D03*
%TO.P,U2,35,TXD0*%
%TO.N,/B_TX*%
X201295000Y-42050000D03*
%TO.P,U2,36,IO22*%
%TO.N,unconnected-(U2-IO22-Pad36)*%
X202565000Y-42050000D03*
%TO.P,U2,37,IO23*%
%TO.N,unconnected-(U2-IO23-Pad37)*%
X203835000Y-42050000D03*
%TO.P,U2,38,GND*%
%TO.N,GNDREF*%
X205105000Y-42050000D03*
D20*
%TO.P,U2,39,PAD*%
%TO.N,unconnected-(U2-PAD-Pad39)_4*%
X198710000Y-53705000D03*
%TO.N,unconnected-(U2-PAD-Pad39)_5*%
X195910000Y-53700000D03*
%TO.N,unconnected-(U2-PAD-Pad39)_3*%
X197310000Y-53700000D03*
%TO.N,unconnected-(U2-PAD-Pad39)_8*%
X195910000Y-52300000D03*
%TO.N,unconnected-(U2-PAD-Pad39)_2*%
X197310000Y-52300000D03*
%TO.N,unconnected-(U2-PAD-Pad39)*%
X198710000Y-52300000D03*
%TO.N,unconnected-(U2-PAD-Pad39)_7*%
X195910000Y-50900000D03*
%TO.N,unconnected-(U2-PAD-Pad39)_6*%
X197310000Y-50900000D03*
%TO.N,unconnected-(U2-PAD-Pad39)_1*%
X198710000Y-50900000D03*
%TD*%
D11*
%TO.P,R7,1*%
%TO.N,/V_CTRL*%
X194590000Y-67945000D03*
%TO.P,R7,2*%
%TO.N,/3.3V*%
X191490000Y-67945000D03*
%TD*%
D12*
%TO.P,R5,1*%
%TO.N,/3.3V*%
X179705000Y-72110000D03*
%TO.P,R5,2*%
%TO.N,/CAM_SIOD*%
X179705000Y-75210000D03*
%TD*%
D17*
%TO.P,R4,1*%
%TO.N,/CAM_RESET*%
X184785000Y-75210000D03*
%TO.P,R4,2*%
%TO.N,/3.3V*%
X184785000Y-72110000D03*
%TD*%
D11*
%TO.P,R2,1*%
%TO.N,/B_IO0*%
X178080000Y-44450000D03*
%TO.P,R2,2*%
%TO.N,/3.3V*%
X174980000Y-44450000D03*
%TD*%
D21*
%TO.P,GEN1,2,2*%
%TO.N,GNDREF*%
X170490000Y-67905000D03*
X177490000Y-67905000D03*
%TO.P,GEN1,1,1*%
%TO.N,/GEN_BTN*%
X170490000Y-62905000D03*
X177490000Y-62905000D03*
%TD*%
D22*
%TO.P,C3,1*%
%TO.N,GNDREF*%
X187325000Y-72097500D03*
%TO.P,C3,2*%
%TO.N,/CAM_RESET*%
X187325000Y-75222500D03*
%TD*%
D23*
%TO.N,/CAM_DATA6*%
X177500000Y-61000000D03*
%TO.N,GNDREF*%
X188000000Y-71000000D03*
%TO.N,/CAM_DATA7*%
X188500000Y-70000000D03*
%TO.N,/CAM_DATA9*%
X185500000Y-69500000D03*
%TO.N,/CAM_DATA6*%
X184000000Y-63500000D03*
X189500000Y-64500000D03*
%TO.N,/CAM_DATA7*%
X186000000Y-66500000D03*
%TO.N,/CAM_DATA6*%
X185000000Y-65000000D03*
%TO.N,/CAM_DATA7*%
X184000000Y-62500000D03*
%TO.N,/CAM_DATA8*%
X184000000Y-61000000D03*
%TO.N,/CAM_DATA9*%
X178500000Y-65500000D03*
%TO.N,/CAM_DATA7*%
X176500000Y-61000000D03*
%TO.N,/CAM_DATA8*%
X175500000Y-61000000D03*
%TO.N,/CAM_PCLK*%
X194000000Y-76500000D03*
%TO.N,/CAM_RESET*%
X184500000Y-77500000D03*
%TO.N,/CAM_SIOD*%
X182500000Y-74000000D03*
%TO.N,/CAM_SIOC*%
X183575000Y-74000000D03*
%TO.N,/B_EN*%
X199500000Y-58000000D03*
X182500000Y-55500000D03*
X171500000Y-57500000D03*
X190500000Y-58000000D03*
%TO.N,GNDREF*%
X187325000Y-61175000D03*
X194500000Y-70500000D03*
X180500000Y-70000000D03*
X198000000Y-56500000D03*
X172500000Y-56500000D03*
X205105000Y-49500000D03*
X204500000Y-61500000D03*
X176500000Y-46000000D03*
X203500000Y-40500000D03*
X205105000Y-56500000D03*
%TO.N,/3.3V*%
X181500000Y-68000000D03*
X179500000Y-70500000D03*
X170500000Y-58000000D03*
X191500000Y-57500000D03*
X186000000Y-74000000D03*
X193000000Y-66500000D03*
X181500000Y-71000000D03*
X198000000Y-65000000D03*
X183500000Y-55500000D03*
%TO.N,/B_IO0*%
X183500000Y-45500000D03*
X189500000Y-44500000D03*
%TO.N,/IPC_TX*%
X183500000Y-46500000D03*
%TO.N,/IPC_RX*%
X182500000Y-45500000D03*
%TO.N,/CAM_PWDN*%
X185500000Y-77500000D03*
%TO.N,Net-(D1-A)*%
X203000000Y-65500000D03*
%TO.N,Net-(Q2-E)*%
X196500000Y-65500000D03*
%TO.N,/LED_CTRL*%
X196000000Y-61000000D03*
%TO.N,GNDREF*%
X180000000Y-43500000D03*
%TD*%
D24*
%TO.N,/CAM_DATA6*%
X181000000Y-62000000D02*
X180000000Y-61000000D01*
X182000000Y-62000000D02*
X181000000Y-62000000D01*
X183500000Y-63500000D02*
X182000000Y-62000000D01*
X180000000Y-61000000D02*
X177500000Y-61000000D01*
X184000000Y-63500000D02*
X183500000Y-63500000D01*
%TO.N,/CAM_DATA7*%
X183000000Y-61500000D02*
X184000000Y-62500000D01*
X181500000Y-61500000D02*
X183000000Y-61500000D01*
X180000000Y-60000000D02*
X181500000Y-61500000D01*
X177500000Y-60000000D02*
X180000000Y-60000000D01*
X176500000Y-61000000D02*
X177500000Y-60000000D01*
%TO.N,/CAM_DATA8*%
X182000000Y-61000000D02*
X184000000Y-61000000D01*
X175500000Y-61000000D02*
X177000000Y-59500000D01*
X177000000Y-59500000D02*
X180500000Y-59500000D01*
X180500000Y-59500000D02*
X182000000Y-61000000D01*
%TO.N,/CAM_DATA9*%
X182000000Y-69500000D02*
X185500000Y-69500000D01*
X178500000Y-66000000D02*
X182000000Y-69500000D01*
X178500000Y-65500000D02*
X178500000Y-66000000D01*
%TO.N,/GEN_BTN*%
X190500000Y-62000000D02*
X186500000Y-62000000D01*
X186500000Y-62000000D02*
X184000000Y-64500000D01*
X184000000Y-64500000D02*
X182255000Y-64500000D01*
X191135000Y-61365000D02*
X190500000Y-62000000D01*
X191135000Y-59550000D02*
X191135000Y-61365000D01*
X182255000Y-64500000D02*
X180975000Y-63220000D01*
%TO.N,GNDREF*%
X187000000Y-71000000D02*
X186500000Y-70500000D01*
X188000000Y-71000000D02*
X187000000Y-71000000D01*
%TO.N,/CAM_DATA7*%
X189000000Y-69500000D02*
X188500000Y-70000000D01*
X189000000Y-66500000D02*
X189000000Y-69500000D01*
X188500000Y-66000000D02*
X189000000Y-66500000D01*
X186500000Y-66000000D02*
X188500000Y-66000000D01*
X186000000Y-66500000D02*
X186500000Y-66000000D01*
%TO.N,/CAM_DATA6*%
X188410000Y-65590000D02*
X189500000Y-64500000D01*
X185590000Y-65590000D02*
X188410000Y-65590000D01*
X185000000Y-65000000D02*
X185590000Y-65590000D01*
%TO.N,Net-(Q1-E)*%
X190500000Y-63500000D02*
X187865000Y-63500000D01*
X191455000Y-64455000D02*
X190500000Y-63500000D01*
X191455000Y-65135000D02*
X191455000Y-64455000D01*
%TO.N,/GEN_BTN*%
X177490000Y-63540000D02*
X180655000Y-63540000D01*
%TO.N,GNDREF*%
X180000000Y-69500000D02*
X180500000Y-70000000D01*
X178450000Y-69500000D02*
X180000000Y-69500000D01*
X177490000Y-68540000D02*
X178450000Y-69500000D01*
%TO.N,/CAM_PCLK*%
X194945000Y-75555000D02*
X194000000Y-76500000D01*
%TO.N,/CAM_RESET*%
X184500000Y-77500000D02*
X184785000Y-77215000D01*
X184785000Y-76500000D02*
X184785000Y-75210000D01*
X187325000Y-75222500D02*
X186547500Y-76000000D01*
X185500000Y-76500000D02*
X184785000Y-76500000D01*
X184785000Y-77215000D02*
X184785000Y-76500000D01*
X186000000Y-76000000D02*
X185500000Y-76500000D01*
X186547500Y-76000000D02*
X186000000Y-76000000D01*
%TO.N,/CAM_SIOD*%
X181000000Y-74000000D02*
X182500000Y-74000000D01*
X179790000Y-75210000D02*
X181000000Y-74000000D01*
%TO.N,/CAM_SIOC*%
X183455000Y-74000000D02*
X183575000Y-74000000D01*
X182245000Y-75210000D02*
X183455000Y-74000000D01*
%TO.N,/V_CTRL*%
X193355000Y-65135000D02*
X194590000Y-66370000D01*
X194590000Y-66370000D02*
X194590000Y-67945000D01*
X192405000Y-59550000D02*
X192405000Y-61405000D01*
X192405000Y-61405000D02*
X193355000Y-62355000D01*
X193355000Y-62355000D02*
X193355000Y-65135000D01*
%TO.N,/GEN_BTN*%
X170490000Y-62905000D02*
X177490000Y-62905000D01*
%TO.N,/B_EN*%
X178092500Y-57150000D02*
X178092500Y-55500000D01*
X192500000Y-58000000D02*
X192000000Y-58500000D01*
X178092500Y-55500000D02*
X172500000Y-55500000D01*
X171500000Y-56500000D02*
X171500000Y-57500000D01*
X172500000Y-55500000D02*
X171500000Y-56500000D01*
X178092500Y-55500000D02*
X178092500Y-53987500D01*
X202565000Y-59550000D02*
X202565000Y-58565000D01*
X191000000Y-58500000D02*
X190500000Y-58000000D01*
X178092500Y-55500000D02*
X182500000Y-55500000D01*
X202565000Y-58565000D02*
X202000000Y-58000000D01*
X202000000Y-58000000D02*
X192500000Y-58000000D01*
X192000000Y-58500000D02*
X191000000Y-58500000D01*
%TO.N,GNDREF*%
X205105000Y-49500000D02*
X205105000Y-56500000D01*
X178092500Y-46592500D02*
X177500000Y-46000000D01*
X187325000Y-69675000D02*
X187325000Y-68040000D01*
X181500000Y-41000000D02*
X185500000Y-41000000D01*
X187000000Y-58500000D02*
X183500000Y-58500000D01*
X185500000Y-56500000D02*
X183500000Y-58500000D01*
X177490000Y-67905000D02*
X170490000Y-67905000D01*
X189865000Y-72110000D02*
X192392500Y-72110000D01*
X174000000Y-58500000D02*
X173150000Y-57650000D01*
X178092500Y-50800000D02*
X179800000Y-50800000D01*
X185000000Y-70000000D02*
X180500000Y-70000000D01*
X187325000Y-59550000D02*
X187325000Y-58825000D01*
X173150000Y-57650000D02*
X173150000Y-57150000D01*
X205105000Y-41105000D02*
X204500000Y-40500000D01*
X185500000Y-70500000D02*
X185000000Y-70000000D01*
X180000000Y-42500000D02*
X181500000Y-41000000D01*
X203500000Y-40500000D02*
X204500000Y-40500000D01*
X186500000Y-70500000D02*
X187325000Y-69675000D01*
X187325000Y-58825000D02*
X187000000Y-58500000D01*
X205105000Y-56500000D02*
X205105000Y-59550000D01*
X205105000Y-59550000D02*
X205105000Y-60895000D01*
X185500000Y-41000000D02*
X187130000Y-39370000D01*
X173150000Y-57150000D02*
X172500000Y-56500000D01*
X178092500Y-47625000D02*
X178092500Y-46592500D01*
X178092500Y-47625000D02*
X178092500Y-50800000D01*
X192405000Y-72097500D02*
X194945000Y-72097500D01*
X187325000Y-72097500D02*
X185727500Y-70500000D01*
X187325000Y-72097500D02*
X189852500Y-72097500D01*
X198000000Y-56500000D02*
X185500000Y-56500000D01*
X205105000Y-42050000D02*
X205105000Y-49500000D01*
X187325000Y-59550000D02*
X187325000Y-61175000D01*
X194945000Y-70945000D02*
X194500000Y-70500000D01*
X186500000Y-70500000D02*
X185727500Y-70500000D01*
X179800000Y-50800000D02*
X185500000Y-56500000D01*
X205105000Y-42050000D02*
X205105000Y-41105000D01*
X183500000Y-58500000D02*
X174000000Y-58500000D01*
X185727500Y-70500000D02*
X185500000Y-70500000D01*
X205105000Y-56500000D02*
X198000000Y-56500000D01*
X174967500Y-57150000D02*
X173150000Y-57150000D01*
X176500000Y-46000000D02*
X177500000Y-46000000D01*
X194945000Y-72097500D02*
X194945000Y-70945000D01*
X205105000Y-60895000D02*
X204500000Y-61500000D01*
%TO.N,/3.3V*%
X198000000Y-65000000D02*
X202000000Y-61000000D01*
X192405000Y-65905000D02*
X191490000Y-66820000D01*
X173500000Y-52500000D02*
X170815000Y-55185000D01*
X183655000Y-40500000D02*
X181000000Y-40500000D01*
X192405000Y-63135000D02*
X192405000Y-65905000D01*
X179000000Y-42500000D02*
X175960000Y-42500000D01*
X180500000Y-52500000D02*
X183500000Y-55500000D01*
X191000000Y-74000000D02*
X186000000Y-74000000D01*
X174980000Y-53975000D02*
X174980000Y-52500000D01*
X174980000Y-52500000D02*
X180500000Y-52500000D01*
X175960000Y-42500000D02*
X174980000Y-43480000D01*
X203500000Y-61000000D02*
X202000000Y-61000000D01*
X174967500Y-47625000D02*
X174967500Y-50800000D01*
X202500000Y-57000000D02*
X198500000Y-57000000D01*
X174980000Y-43480000D02*
X174980000Y-44450000D01*
X192222500Y-75222500D02*
X191000000Y-74000000D01*
X170815000Y-57685000D02*
X170500000Y-58000000D01*
X184785000Y-72110000D02*
X186000000Y-73325000D01*
X192405000Y-65905000D02*
X193000000Y-66500000D01*
X174980000Y-52500000D02*
X173500000Y-52500000D01*
X182245000Y-71745000D02*
X181500000Y-71000000D01*
X203835000Y-58335000D02*
X202500000Y-57000000D01*
X174980000Y-44450000D02*
X174980000Y-47612500D01*
X203835000Y-59550000D02*
X203835000Y-60665000D01*
X191490000Y-66820000D02*
X191490000Y-67945000D01*
X181000000Y-40500000D02*
X179000000Y-42500000D01*
X203835000Y-59550000D02*
X203835000Y-58335000D01*
X174980000Y-52500000D02*
X174980000Y-50812500D01*
X179705000Y-72110000D02*
X179705000Y-70705000D01*
X180975000Y-66320000D02*
X180975000Y-67475000D01*
X170815000Y-55185000D02*
X170815000Y-57685000D01*
X203835000Y-60665000D02*
X203500000Y-61000000D01*
X198000000Y-57500000D02*
X191500000Y-57500000D01*
X186000000Y-73325000D02*
X186000000Y-74000000D01*
X198500000Y-57000000D02*
X198000000Y-57500000D01*
X180975000Y-67475000D02*
X181500000Y-68000000D01*
X182245000Y-72110000D02*
X179705000Y-72110000D01*
X184785000Y-39370000D02*
X183655000Y-40500000D01*
X179705000Y-70705000D02*
X179500000Y-70500000D01*
X184785000Y-72110000D02*
X182245000Y-72110000D01*
%TO.N,/B_IO0*%
X188595000Y-42050000D02*
X188595000Y-43405000D01*
X189500000Y-44500000D02*
X187500000Y-44500000D01*
X188595000Y-43405000D02*
X187500000Y-44500000D01*
X186500000Y-45500000D02*
X183500000Y-45500000D01*
X187500000Y-44500000D02*
X186500000Y-45500000D01*
%TO.N,/B_TX*%
X200500000Y-40500000D02*
X196075000Y-40500000D01*
X196075000Y-40500000D02*
X194945000Y-39370000D01*
X201295000Y-42050000D02*
X201295000Y-41295000D01*
X201295000Y-41295000D02*
X200500000Y-40500000D01*
%TO.N,/B_RX*%
X200025000Y-41525000D02*
X199500000Y-41000000D01*
X194035000Y-41000000D02*
X192405000Y-39370000D01*
X199500000Y-41000000D02*
X194035000Y-41000000D01*
%TO.N,/IPC_TX*%
X183500000Y-46500000D02*
X189000000Y-46500000D01*
X192405000Y-43095000D02*
X192405000Y-42050000D01*
X189000000Y-46500000D02*
X192405000Y-43095000D01*
%TO.N,/IPC_RX*%
X184500000Y-47000000D02*
X189500000Y-47000000D01*
X189500000Y-47000000D02*
X193675000Y-42825000D01*
X182500000Y-45500000D02*
X182500000Y-47000000D01*
X193675000Y-42825000D02*
X193675000Y-42050000D01*
X183000000Y-47500000D02*
X184000000Y-47500000D01*
X182500000Y-47000000D02*
X183000000Y-47500000D01*
X184000000Y-47500000D02*
X184500000Y-47000000D01*
%TO.N,/CAM_PWDN*%
X188000000Y-76500000D02*
X186500000Y-76500000D01*
X186500000Y-76500000D02*
X185500000Y-77500000D01*
X189290000Y-75210000D02*
X188000000Y-76500000D01*
%TO.N,Net-(D1-A)*%
X202210000Y-67945000D02*
X202210000Y-66290000D01*
X202210000Y-66290000D02*
X203000000Y-65500000D01*
%TO.N,Net-(Q2-E)*%
X196500000Y-65500000D02*
X198945000Y-67945000D01*
%TO.N,/LED_CTRL*%
X196215000Y-60785000D02*
X196000000Y-61000000D01*
X196215000Y-59550000D02*
X196215000Y-60785000D01*
%TO.N,/B_IO0*%
X183500000Y-45500000D02*
X182450000Y-44450000D01*
X182450000Y-44450000D02*
X178080000Y-44450000D01*
%TO.N,GNDREF*%
X180000000Y-42500000D02*
X180000000Y-43500000D01*
%TD*%
M02*
