%TF.GenerationSoftware,KiCad,Pcbnew,8.0.6*%
%TF.CreationDate,2025-03-02T22:23:19-05:00*%
%TF.ProjectId,Camera,43616d65-7261-42e6-9b69-6361645f7063,rev?*%
%TF.SameCoordinates,Original*%
%TF.FileFunction,Soldermask,Bot*%
%TF.FilePolarity,Negative*%
%FSLAX46Y46*%
G04 Gerber Fmt 4.6, Leading zero omitted, Abs format (unit mm)*
G04 Created by KiCad (PCBNEW 8.0.6) date 2025-03-02 22:23:19*
%MOMM*%
%LPD*%
G01*
G04 APERTURE LIST*
G04 Aperture macros list*
%AMRoundRect*
0 Rectangle with rounded corners*
0 $1 Rounding radius*
0 $2 $3 $4 $5 $6 $7 $8 $9 X,Y pos of 4 corners*
0 Add a 4 corners polygon primitive as box body*
4,1,4,$2,$3,$4,$5,$6,$7,$8,$9,$2,$3,0*
0 Add four circle primitives for the rounded corners*
1,1,$1+$1,$2,$3*
1,1,$1+$1,$4,$5*
1,1,$1+$1,$6,$7*
1,1,$1+$1,$8,$9*
0 Add four rect primitives between the rounded corners*
20,1,$1+$1,$2,$3,$4,$5,0*
20,1,$1+$1,$4,$5,$6,$7,0*
20,1,$1+$1,$6,$7,$8,$9,0*
20,1,$1+$1,$8,$9,$2,$3,0*%
G04 Aperture macros list end*
%ADD10C,1.650000*%
%ADD11RoundRect,0.250000X0.400000X0.625000X-0.400000X0.625000X-0.400000X-0.625000X0.400000X-0.625000X0*%
%ADD12RoundRect,0.250000X-0.625000X0.400000X-0.625000X-0.400000X0.625000X-0.400000X0.625000X0.400000X0*%
%ADD13RoundRect,0.250000X0.650000X-0.412500X0.650000X0.412500X-0.650000X0.412500X-0.650000X-0.412500X0*%
%ADD14RoundRect,0.250000X0.412500X0.650000X-0.412500X0.650000X-0.412500X-0.650000X0.412500X-0.650000X0*%
%ADD15RoundRect,0.250000X-0.412500X-0.650000X0.412500X-0.650000X0.412500X0.650000X-0.412500X0.650000X0*%
%ADD16RoundRect,0.300000X-0.300000X-0.300000X0.300000X-0.300000X0.300000X0.300000X-0.300000X0.300000X0*%
%ADD17RoundRect,0.250000X0.625000X-0.400000X0.625000X0.400000X-0.625000X0.400000X-0.625000X-0.400000X0*%
%ADD18RoundRect,0.625000X0.625000X0.625000X-0.625000X0.625000X-0.625000X-0.625000X0.625000X-0.625000X0*%
%ADD19R,0.900000X1.500000*%
%ADD20R,0.900000X0.900000*%
%ADD21RoundRect,0.500000X1.000000X0.500000X-1.000000X0.500000X-1.000000X-0.500000X1.000000X-0.500000X0*%
%ADD22RoundRect,0.250000X-0.650000X0.412500X-0.650000X-0.412500X0.650000X-0.412500X0.650000X0.412500X0*%
G04 APERTURE END LIST*
D10*
%TO.C,U1*%
X194945000Y-39370000D03*
X192405000Y-39370000D03*
X189865000Y-39370000D03*
X187325000Y-39370000D03*
X184785000Y-39370000D03*
X182245000Y-39370000D03*
X179705000Y-39370000D03*
%TD*%
D11*
%TO.C,R8*%
X202210000Y-67945000D03*
X199110000Y-67945000D03*
%TD*%
%TO.C,R1*%
X178080000Y-53975000D03*
X174980000Y-53975000D03*
%TD*%
D12*
%TO.C,R6*%
X182245000Y-72110000D03*
X182245000Y-75210000D03*
%TD*%
D13*
%TO.C,C4*%
X192405000Y-75222500D03*
X192405000Y-72097500D03*
%TD*%
D14*
%TO.C,C8*%
X178092500Y-50800000D03*
X174967500Y-50800000D03*
%TD*%
D15*
%TO.C,C5*%
X174967500Y-47625000D03*
X178092500Y-47625000D03*
%TD*%
D16*
%TO.C,Q1*%
X191455000Y-65135000D03*
X193355000Y-65135000D03*
X192405000Y-63135000D03*
%TD*%
D17*
%TO.C,R3*%
X189865000Y-75210000D03*
X189865000Y-72110000D03*
%TD*%
D14*
%TO.C,C1*%
X178092500Y-57150000D03*
X174967500Y-57150000D03*
%TD*%
D18*
%TO.C,U7*%
X187325000Y-64040000D03*
X187325000Y-68040000D03*
%TD*%
D13*
%TO.C,C2*%
X194945000Y-75222500D03*
X194945000Y-72097500D03*
%TD*%
D12*
%TO.C,R9*%
X180975000Y-66320000D03*
X180975000Y-63220000D03*
%TD*%
D19*
%TO.C,U2*%
X205105000Y-59550000D03*
X203835000Y-59550000D03*
X202565000Y-59550000D03*
X201295000Y-59550000D03*
X200025000Y-59550000D03*
X198755000Y-59550000D03*
X197485000Y-59550000D03*
X196215000Y-59550000D03*
X194945000Y-59550000D03*
X193675000Y-59550000D03*
X192405000Y-59550000D03*
X191135000Y-59550000D03*
X189865000Y-59550000D03*
X188595000Y-59550000D03*
X187325000Y-59550000D03*
X186055000Y-59550000D03*
X184785000Y-59550000D03*
X183515000Y-59550000D03*
X182245000Y-59550000D03*
X182245000Y-42050000D03*
X183515000Y-42050000D03*
X184785000Y-42050000D03*
X186055000Y-42050000D03*
X187325000Y-42050000D03*
X188595000Y-42050000D03*
X189865000Y-42050000D03*
X191135000Y-42050000D03*
X192405000Y-42050000D03*
X193675000Y-42050000D03*
X194945000Y-42050000D03*
X196215000Y-42050000D03*
X197485000Y-42050000D03*
X198755000Y-42050000D03*
X200025000Y-42050000D03*
X201295000Y-42050000D03*
X202565000Y-42050000D03*
X203835000Y-42050000D03*
X205105000Y-42050000D03*
D20*
X198710000Y-53705000D03*
X195910000Y-53700000D03*
X197310000Y-53700000D03*
X195910000Y-52300000D03*
X197310000Y-52300000D03*
X198710000Y-52300000D03*
X195910000Y-50900000D03*
X197310000Y-50900000D03*
X198710000Y-50900000D03*
%TD*%
D11*
%TO.C,R7*%
X194590000Y-67945000D03*
X191490000Y-67945000D03*
%TD*%
D12*
%TO.C,R5*%
X179705000Y-72110000D03*
X179705000Y-75210000D03*
%TD*%
D17*
%TO.C,R4*%
X184785000Y-75210000D03*
X184785000Y-72110000D03*
%TD*%
D11*
%TO.C,R2*%
X178080000Y-44450000D03*
X174980000Y-44450000D03*
%TD*%
D21*
%TO.C,GEN1*%
X170490000Y-67905000D03*
X177490000Y-67905000D03*
X170490000Y-62905000D03*
X177490000Y-62905000D03*
%TD*%
D22*
%TO.C,C3*%
X187325000Y-72097500D03*
X187325000Y-75222500D03*
%TD*%
M02*
