%TF.GenerationSoftware,KiCad,Pcbnew,8.0.6*%
%TF.CreationDate,2025-03-02T22:23:19-05:00*%
%TF.ProjectId,Camera,43616d65-7261-42e6-9b69-6361645f7063,rev?*%
%TF.SameCoordinates,Original*%
%TF.FileFunction,Legend,Top*%
%TF.FilePolarity,Positive*%
%FSLAX46Y46*%
G04 Gerber Fmt 4.6, Leading zero omitted, Abs format (unit mm)*
G04 Created by KiCad (PCBNEW 8.0.6) date 2025-03-02 22:23:19*
%MOMM*%
%LPD*%
G01*
G04 APERTURE LIST*
G04 Aperture macros list*
%AMRoundRect*
0 Rectangle with rounded corners*
0 $1 Rounding radius*
0 $2 $3 $4 $5 $6 $7 $8 $9 X,Y pos of 4 corners*
0 Add a 4 corners polygon primitive as box body*
4,1,4,$2,$3,$4,$5,$6,$7,$8,$9,$2,$3,0*
0 Add four circle primitives for the rounded corners*
1,1,$1+$1,$2,$3*
1,1,$1+$1,$4,$5*
1,1,$1+$1,$6,$7*
1,1,$1+$1,$8,$9*
0 Add four rect primitives between the rounded corners*
20,1,$1+$1,$2,$3,$4,$5,0*
20,1,$1+$1,$4,$5,$6,$7,0*
20,1,$1+$1,$6,$7,$8,$9,0*
20,1,$1+$1,$8,$9,$2,$3,0*%
G04 Aperture macros list end*
%ADD10C,0.081280*%
%ADD11C,0.100000*%
%ADD12C,0.150000*%
%ADD13C,0.120000*%
%ADD14C,1.650000*%
%ADD15RoundRect,0.300000X0.300000X-0.300000X0.300000X0.300000X-0.300000X0.300000X-0.300000X-0.300000X0*%
%ADD16R,2.000000X3.000000*%
%ADD17RoundRect,0.075000X-0.075000X-0.550000X0.075000X-0.550000X0.075000X0.550000X-0.075000X0.550000X0*%
%ADD18RoundRect,0.300000X-0.300000X-0.450000X0.300000X-0.450000X0.300000X0.450000X-0.300000X0.450000X0*%
%ADD19RoundRect,0.500000X-1.000000X-0.500000X1.000000X-0.500000X1.000000X0.500000X-1.000000X0.500000X0*%
%ADD20RoundRect,0.250000X-0.650000X0.412500X-0.650000X-0.412500X0.650000X-0.412500X0.650000X0.412500X0*%
%ADD21RoundRect,0.300000X0.300000X0.450000X-0.300000X0.450000X-0.300000X-0.450000X0.300000X-0.450000X0*%
%ADD22R,0.900000X1.500000*%
%ADD23R,0.900000X0.900000*%
%ADD24RoundRect,0.625000X-0.625000X-0.625000X0.625000X-0.625000X0.625000X0.625000X-0.625000X0.625000X0*%
G04 APERTURE END LIST*
D10*
X182116789Y-38287010D02*
X181923265Y-37474210D01*
X181923265Y-37474210D02*
X181768446Y-38054781D01*
X181768446Y-38054781D02*
X181613627Y-37474210D01*
X181613627Y-37474210D02*
X181420104Y-38287010D01*
X180646009Y-37474210D02*
X180916942Y-37861257D01*
X181110466Y-37474210D02*
X181110466Y-38287010D01*
X181110466Y-38287010D02*
X180800828Y-38287010D01*
X180800828Y-38287010D02*
X180723418Y-38248305D01*
X180723418Y-38248305D02*
X180684713Y-38209600D01*
X180684713Y-38209600D02*
X180646009Y-38132191D01*
X180646009Y-38132191D02*
X180646009Y-38016076D01*
X180646009Y-38016076D02*
X180684713Y-37938667D01*
X180684713Y-37938667D02*
X180723418Y-37899962D01*
X180723418Y-37899962D02*
X180800828Y-37861257D01*
X180800828Y-37861257D02*
X181110466Y-37861257D01*
X180375075Y-38287010D02*
X179833209Y-37474210D01*
X179833209Y-38287010D02*
X180375075Y-37474210D01*
X187944275Y-38248305D02*
X188021685Y-38287010D01*
X188021685Y-38287010D02*
X188137799Y-38287010D01*
X188137799Y-38287010D02*
X188253913Y-38248305D01*
X188253913Y-38248305D02*
X188331323Y-38170895D01*
X188331323Y-38170895D02*
X188370028Y-38093486D01*
X188370028Y-38093486D02*
X188408732Y-37938667D01*
X188408732Y-37938667D02*
X188408732Y-37822553D01*
X188408732Y-37822553D02*
X188370028Y-37667734D01*
X188370028Y-37667734D02*
X188331323Y-37590324D01*
X188331323Y-37590324D02*
X188253913Y-37512915D01*
X188253913Y-37512915D02*
X188137799Y-37474210D01*
X188137799Y-37474210D02*
X188060390Y-37474210D01*
X188060390Y-37474210D02*
X187944275Y-37512915D01*
X187944275Y-37512915D02*
X187905571Y-37551619D01*
X187905571Y-37551619D02*
X187905571Y-37822553D01*
X187905571Y-37822553D02*
X188060390Y-37822553D01*
X187557228Y-37474210D02*
X187557228Y-38287010D01*
X187557228Y-38287010D02*
X187092771Y-37474210D01*
X187092771Y-37474210D02*
X187092771Y-38287010D01*
X186705723Y-37474210D02*
X186705723Y-38287010D01*
X186705723Y-38287010D02*
X186512199Y-38287010D01*
X186512199Y-38287010D02*
X186396085Y-38248305D01*
X186396085Y-38248305D02*
X186318675Y-38170895D01*
X186318675Y-38170895D02*
X186279970Y-38093486D01*
X186279970Y-38093486D02*
X186241266Y-37938667D01*
X186241266Y-37938667D02*
X186241266Y-37822553D01*
X186241266Y-37822553D02*
X186279970Y-37667734D01*
X186279970Y-37667734D02*
X186318675Y-37590324D01*
X186318675Y-37590324D02*
X186396085Y-37512915D01*
X186396085Y-37512915D02*
X186512199Y-37474210D01*
X186512199Y-37474210D02*
X186705723Y-37474210D01*
X194410389Y-37899962D02*
X194294275Y-37861257D01*
X194294275Y-37861257D02*
X194255570Y-37822553D01*
X194255570Y-37822553D02*
X194216866Y-37745143D01*
X194216866Y-37745143D02*
X194216866Y-37629029D01*
X194216866Y-37629029D02*
X194255570Y-37551619D01*
X194255570Y-37551619D02*
X194294275Y-37512915D01*
X194294275Y-37512915D02*
X194371685Y-37474210D01*
X194371685Y-37474210D02*
X194681323Y-37474210D01*
X194681323Y-37474210D02*
X194681323Y-38287010D01*
X194681323Y-38287010D02*
X194410389Y-38287010D01*
X194410389Y-38287010D02*
X194332980Y-38248305D01*
X194332980Y-38248305D02*
X194294275Y-38209600D01*
X194294275Y-38209600D02*
X194255570Y-38132191D01*
X194255570Y-38132191D02*
X194255570Y-38054781D01*
X194255570Y-38054781D02*
X194294275Y-37977372D01*
X194294275Y-37977372D02*
X194332980Y-37938667D01*
X194332980Y-37938667D02*
X194410389Y-37899962D01*
X194410389Y-37899962D02*
X194681323Y-37899962D01*
X193404066Y-37474210D02*
X193674999Y-37861257D01*
X193868523Y-37474210D02*
X193868523Y-38287010D01*
X193868523Y-38287010D02*
X193558885Y-38287010D01*
X193558885Y-38287010D02*
X193481475Y-38248305D01*
X193481475Y-38248305D02*
X193442770Y-38209600D01*
X193442770Y-38209600D02*
X193404066Y-38132191D01*
X193404066Y-38132191D02*
X193404066Y-38016076D01*
X193404066Y-38016076D02*
X193442770Y-37938667D01*
X193442770Y-37938667D02*
X193481475Y-37899962D01*
X193481475Y-37899962D02*
X193558885Y-37861257D01*
X193558885Y-37861257D02*
X193868523Y-37861257D01*
X193133132Y-38287010D02*
X192591266Y-37474210D01*
X192591266Y-38287010D02*
X193133132Y-37474210D01*
X178210027Y-39811010D02*
X178016503Y-38998210D01*
X178016503Y-38998210D02*
X177861684Y-39578781D01*
X177861684Y-39578781D02*
X177706865Y-38998210D01*
X177706865Y-38998210D02*
X177513342Y-39811010D01*
X177319818Y-39811010D02*
X176855361Y-39811010D01*
X177087589Y-38998210D02*
X177087589Y-39811010D01*
X176661837Y-39811010D02*
X176119971Y-38998210D01*
X176119971Y-39811010D02*
X176661837Y-38998210D01*
X185156323Y-38287010D02*
X184653161Y-38287010D01*
X184653161Y-38287010D02*
X184924095Y-37977372D01*
X184924095Y-37977372D02*
X184807980Y-37977372D01*
X184807980Y-37977372D02*
X184730571Y-37938667D01*
X184730571Y-37938667D02*
X184691866Y-37899962D01*
X184691866Y-37899962D02*
X184653161Y-37822553D01*
X184653161Y-37822553D02*
X184653161Y-37629029D01*
X184653161Y-37629029D02*
X184691866Y-37551619D01*
X184691866Y-37551619D02*
X184730571Y-37512915D01*
X184730571Y-37512915D02*
X184807980Y-37474210D01*
X184807980Y-37474210D02*
X185040209Y-37474210D01*
X185040209Y-37474210D02*
X185117618Y-37512915D01*
X185117618Y-37512915D02*
X185156323Y-37551619D01*
X184420933Y-38287010D02*
X184150000Y-37474210D01*
X184150000Y-37474210D02*
X183879066Y-38287010D01*
X183685542Y-38287010D02*
X183182380Y-38287010D01*
X183182380Y-38287010D02*
X183453314Y-37977372D01*
X183453314Y-37977372D02*
X183337199Y-37977372D01*
X183337199Y-37977372D02*
X183259790Y-37938667D01*
X183259790Y-37938667D02*
X183221085Y-37899962D01*
X183221085Y-37899962D02*
X183182380Y-37822553D01*
X183182380Y-37822553D02*
X183182380Y-37629029D01*
X183182380Y-37629029D02*
X183221085Y-37551619D01*
X183221085Y-37551619D02*
X183259790Y-37512915D01*
X183259790Y-37512915D02*
X183337199Y-37474210D01*
X183337199Y-37474210D02*
X183569428Y-37474210D01*
X183569428Y-37474210D02*
X183646837Y-37512915D01*
X183646837Y-37512915D02*
X183685542Y-37551619D01*
X198123627Y-39423962D02*
X198007513Y-39385257D01*
X198007513Y-39385257D02*
X197968808Y-39346553D01*
X197968808Y-39346553D02*
X197930104Y-39269143D01*
X197930104Y-39269143D02*
X197930104Y-39153029D01*
X197930104Y-39153029D02*
X197968808Y-39075619D01*
X197968808Y-39075619D02*
X198007513Y-39036915D01*
X198007513Y-39036915D02*
X198084923Y-38998210D01*
X198084923Y-38998210D02*
X198394561Y-38998210D01*
X198394561Y-38998210D02*
X198394561Y-39811010D01*
X198394561Y-39811010D02*
X198123627Y-39811010D01*
X198123627Y-39811010D02*
X198046218Y-39772305D01*
X198046218Y-39772305D02*
X198007513Y-39733600D01*
X198007513Y-39733600D02*
X197968808Y-39656191D01*
X197968808Y-39656191D02*
X197968808Y-39578781D01*
X197968808Y-39578781D02*
X198007513Y-39501372D01*
X198007513Y-39501372D02*
X198046218Y-39462667D01*
X198046218Y-39462667D02*
X198123627Y-39423962D01*
X198123627Y-39423962D02*
X198394561Y-39423962D01*
X197697875Y-39811010D02*
X197233418Y-39811010D01*
X197465646Y-38998210D02*
X197465646Y-39811010D01*
X197039894Y-39811010D02*
X196498028Y-38998210D01*
X196498028Y-39811010D02*
X197039894Y-38998210D01*
X191138628Y-37474210D02*
X191138628Y-38287010D01*
X191138628Y-38287010D02*
X190674171Y-37474210D01*
X190674171Y-37474210D02*
X190674171Y-38287010D01*
X189822666Y-37551619D02*
X189861370Y-37512915D01*
X189861370Y-37512915D02*
X189977485Y-37474210D01*
X189977485Y-37474210D02*
X190054894Y-37474210D01*
X190054894Y-37474210D02*
X190171008Y-37512915D01*
X190171008Y-37512915D02*
X190248418Y-37590324D01*
X190248418Y-37590324D02*
X190287123Y-37667734D01*
X190287123Y-37667734D02*
X190325827Y-37822553D01*
X190325827Y-37822553D02*
X190325827Y-37938667D01*
X190325827Y-37938667D02*
X190287123Y-38093486D01*
X190287123Y-38093486D02*
X190248418Y-38170895D01*
X190248418Y-38170895D02*
X190171008Y-38248305D01*
X190171008Y-38248305D02*
X190054894Y-38287010D01*
X190054894Y-38287010D02*
X189977485Y-38287010D01*
X189977485Y-38287010D02*
X189861370Y-38248305D01*
X189861370Y-38248305D02*
X189822666Y-38209600D01*
D11*
X197402657Y-63595238D02*
X197355038Y-63690476D01*
X197355038Y-63690476D02*
X197259800Y-63785714D01*
X197259800Y-63785714D02*
X197116942Y-63928571D01*
X197116942Y-63928571D02*
X197069323Y-64023809D01*
X197069323Y-64023809D02*
X197069323Y-64119047D01*
X197307419Y-64071428D02*
X197259800Y-64166666D01*
X197259800Y-64166666D02*
X197164561Y-64261904D01*
X197164561Y-64261904D02*
X196974085Y-64309523D01*
X196974085Y-64309523D02*
X196640752Y-64309523D01*
X196640752Y-64309523D02*
X196450276Y-64261904D01*
X196450276Y-64261904D02*
X196355038Y-64166666D01*
X196355038Y-64166666D02*
X196307419Y-64071428D01*
X196307419Y-64071428D02*
X196307419Y-63880952D01*
X196307419Y-63880952D02*
X196355038Y-63785714D01*
X196355038Y-63785714D02*
X196450276Y-63690476D01*
X196450276Y-63690476D02*
X196640752Y-63642857D01*
X196640752Y-63642857D02*
X196974085Y-63642857D01*
X196974085Y-63642857D02*
X197164561Y-63690476D01*
X197164561Y-63690476D02*
X197259800Y-63785714D01*
X197259800Y-63785714D02*
X197307419Y-63880952D01*
X197307419Y-63880952D02*
X197307419Y-64071428D01*
X196402657Y-63261904D02*
X196355038Y-63214285D01*
X196355038Y-63214285D02*
X196307419Y-63119047D01*
X196307419Y-63119047D02*
X196307419Y-62880952D01*
X196307419Y-62880952D02*
X196355038Y-62785714D01*
X196355038Y-62785714D02*
X196402657Y-62738095D01*
X196402657Y-62738095D02*
X196497895Y-62690476D01*
X196497895Y-62690476D02*
X196593133Y-62690476D01*
X196593133Y-62690476D02*
X196735990Y-62738095D01*
X196735990Y-62738095D02*
X197307419Y-63309523D01*
X197307419Y-63309523D02*
X197307419Y-62690476D01*
X184777380Y-77832180D02*
X184729761Y-77879800D01*
X184729761Y-77879800D02*
X184586904Y-77927419D01*
X184586904Y-77927419D02*
X184491666Y-77927419D01*
X184491666Y-77927419D02*
X184348809Y-77879800D01*
X184348809Y-77879800D02*
X184253571Y-77784561D01*
X184253571Y-77784561D02*
X184205952Y-77689323D01*
X184205952Y-77689323D02*
X184158333Y-77498847D01*
X184158333Y-77498847D02*
X184158333Y-77355990D01*
X184158333Y-77355990D02*
X184205952Y-77165514D01*
X184205952Y-77165514D02*
X184253571Y-77070276D01*
X184253571Y-77070276D02*
X184348809Y-76975038D01*
X184348809Y-76975038D02*
X184491666Y-76927419D01*
X184491666Y-76927419D02*
X184586904Y-76927419D01*
X184586904Y-76927419D02*
X184729761Y-76975038D01*
X184729761Y-76975038D02*
X184777380Y-77022657D01*
X185158333Y-77641704D02*
X185634523Y-77641704D01*
X185063095Y-77927419D02*
X185396428Y-76927419D01*
X185396428Y-76927419D02*
X185729761Y-77927419D01*
X186063095Y-77927419D02*
X186063095Y-76927419D01*
X186063095Y-76927419D02*
X186396428Y-77641704D01*
X186396428Y-77641704D02*
X186729761Y-76927419D01*
X186729761Y-76927419D02*
X186729761Y-77927419D01*
X187205952Y-77403609D02*
X187539285Y-77403609D01*
X187682142Y-77927419D02*
X187205952Y-77927419D01*
X187205952Y-77927419D02*
X187205952Y-76927419D01*
X187205952Y-76927419D02*
X187682142Y-76927419D01*
X188682142Y-77927419D02*
X188348809Y-77451228D01*
X188110714Y-77927419D02*
X188110714Y-76927419D01*
X188110714Y-76927419D02*
X188491666Y-76927419D01*
X188491666Y-76927419D02*
X188586904Y-76975038D01*
X188586904Y-76975038D02*
X188634523Y-77022657D01*
X188634523Y-77022657D02*
X188682142Y-77117895D01*
X188682142Y-77117895D02*
X188682142Y-77260752D01*
X188682142Y-77260752D02*
X188634523Y-77355990D01*
X188634523Y-77355990D02*
X188586904Y-77403609D01*
X188586904Y-77403609D02*
X188491666Y-77451228D01*
X188491666Y-77451228D02*
X188110714Y-77451228D01*
X189063095Y-77641704D02*
X189539285Y-77641704D01*
X188967857Y-77927419D02*
X189301190Y-76927419D01*
X189301190Y-76927419D02*
X189634523Y-77927419D01*
X190491666Y-77927419D02*
X189920238Y-77927419D01*
X190205952Y-77927419D02*
X190205952Y-76927419D01*
X190205952Y-76927419D02*
X190110714Y-77070276D01*
X190110714Y-77070276D02*
X190015476Y-77165514D01*
X190015476Y-77165514D02*
X189920238Y-77213133D01*
X196088095Y-68672419D02*
X196088095Y-69481942D01*
X196088095Y-69481942D02*
X196135714Y-69577180D01*
X196135714Y-69577180D02*
X196183333Y-69624800D01*
X196183333Y-69624800D02*
X196278571Y-69672419D01*
X196278571Y-69672419D02*
X196469047Y-69672419D01*
X196469047Y-69672419D02*
X196564285Y-69624800D01*
X196564285Y-69624800D02*
X196611904Y-69577180D01*
X196611904Y-69577180D02*
X196659523Y-69481942D01*
X196659523Y-69481942D02*
X196659523Y-68672419D01*
X197278571Y-69100990D02*
X197183333Y-69053371D01*
X197183333Y-69053371D02*
X197135714Y-69005752D01*
X197135714Y-69005752D02*
X197088095Y-68910514D01*
X197088095Y-68910514D02*
X197088095Y-68862895D01*
X197088095Y-68862895D02*
X197135714Y-68767657D01*
X197135714Y-68767657D02*
X197183333Y-68720038D01*
X197183333Y-68720038D02*
X197278571Y-68672419D01*
X197278571Y-68672419D02*
X197469047Y-68672419D01*
X197469047Y-68672419D02*
X197564285Y-68720038D01*
X197564285Y-68720038D02*
X197611904Y-68767657D01*
X197611904Y-68767657D02*
X197659523Y-68862895D01*
X197659523Y-68862895D02*
X197659523Y-68910514D01*
X197659523Y-68910514D02*
X197611904Y-69005752D01*
X197611904Y-69005752D02*
X197564285Y-69053371D01*
X197564285Y-69053371D02*
X197469047Y-69100990D01*
X197469047Y-69100990D02*
X197278571Y-69100990D01*
X197278571Y-69100990D02*
X197183333Y-69148609D01*
X197183333Y-69148609D02*
X197135714Y-69196228D01*
X197135714Y-69196228D02*
X197088095Y-69291466D01*
X197088095Y-69291466D02*
X197088095Y-69481942D01*
X197088095Y-69481942D02*
X197135714Y-69577180D01*
X197135714Y-69577180D02*
X197183333Y-69624800D01*
X197183333Y-69624800D02*
X197278571Y-69672419D01*
X197278571Y-69672419D02*
X197469047Y-69672419D01*
X197469047Y-69672419D02*
X197564285Y-69624800D01*
X197564285Y-69624800D02*
X197611904Y-69577180D01*
X197611904Y-69577180D02*
X197659523Y-69481942D01*
X197659523Y-69481942D02*
X197659523Y-69291466D01*
X197659523Y-69291466D02*
X197611904Y-69196228D01*
X197611904Y-69196228D02*
X197564285Y-69148609D01*
X197564285Y-69148609D02*
X197469047Y-69100990D01*
X197556666Y-50733609D02*
X197699523Y-50781228D01*
X197699523Y-50781228D02*
X197747142Y-50828847D01*
X197747142Y-50828847D02*
X197794761Y-50924085D01*
X197794761Y-50924085D02*
X197794761Y-51066942D01*
X197794761Y-51066942D02*
X197747142Y-51162180D01*
X197747142Y-51162180D02*
X197699523Y-51209800D01*
X197699523Y-51209800D02*
X197604285Y-51257419D01*
X197604285Y-51257419D02*
X197223333Y-51257419D01*
X197223333Y-51257419D02*
X197223333Y-50257419D01*
X197223333Y-50257419D02*
X197556666Y-50257419D01*
X197556666Y-50257419D02*
X197651904Y-50305038D01*
X197651904Y-50305038D02*
X197699523Y-50352657D01*
X197699523Y-50352657D02*
X197747142Y-50447895D01*
X197747142Y-50447895D02*
X197747142Y-50543133D01*
X197747142Y-50543133D02*
X197699523Y-50638371D01*
X197699523Y-50638371D02*
X197651904Y-50685990D01*
X197651904Y-50685990D02*
X197556666Y-50733609D01*
X197556666Y-50733609D02*
X197223333Y-50733609D01*
X198413809Y-50257419D02*
X198604285Y-50257419D01*
X198604285Y-50257419D02*
X198699523Y-50305038D01*
X198699523Y-50305038D02*
X198794761Y-50400276D01*
X198794761Y-50400276D02*
X198842380Y-50590752D01*
X198842380Y-50590752D02*
X198842380Y-50924085D01*
X198842380Y-50924085D02*
X198794761Y-51114561D01*
X198794761Y-51114561D02*
X198699523Y-51209800D01*
X198699523Y-51209800D02*
X198604285Y-51257419D01*
X198604285Y-51257419D02*
X198413809Y-51257419D01*
X198413809Y-51257419D02*
X198318571Y-51209800D01*
X198318571Y-51209800D02*
X198223333Y-51114561D01*
X198223333Y-51114561D02*
X198175714Y-50924085D01*
X198175714Y-50924085D02*
X198175714Y-50590752D01*
X198175714Y-50590752D02*
X198223333Y-50400276D01*
X198223333Y-50400276D02*
X198318571Y-50305038D01*
X198318571Y-50305038D02*
X198413809Y-50257419D01*
X199461428Y-50257419D02*
X199651904Y-50257419D01*
X199651904Y-50257419D02*
X199747142Y-50305038D01*
X199747142Y-50305038D02*
X199842380Y-50400276D01*
X199842380Y-50400276D02*
X199889999Y-50590752D01*
X199889999Y-50590752D02*
X199889999Y-50924085D01*
X199889999Y-50924085D02*
X199842380Y-51114561D01*
X199842380Y-51114561D02*
X199747142Y-51209800D01*
X199747142Y-51209800D02*
X199651904Y-51257419D01*
X199651904Y-51257419D02*
X199461428Y-51257419D01*
X199461428Y-51257419D02*
X199366190Y-51209800D01*
X199366190Y-51209800D02*
X199270952Y-51114561D01*
X199270952Y-51114561D02*
X199223333Y-50924085D01*
X199223333Y-50924085D02*
X199223333Y-50590752D01*
X199223333Y-50590752D02*
X199270952Y-50400276D01*
X199270952Y-50400276D02*
X199366190Y-50305038D01*
X199366190Y-50305038D02*
X199461428Y-50257419D01*
X200175714Y-50257419D02*
X200747142Y-50257419D01*
X200461428Y-51257419D02*
X200461428Y-50257419D01*
X201604285Y-51257419D02*
X201032857Y-51257419D01*
X201318571Y-51257419D02*
X201318571Y-50257419D01*
X201318571Y-50257419D02*
X201223333Y-50400276D01*
X201223333Y-50400276D02*
X201128095Y-50495514D01*
X201128095Y-50495514D02*
X201032857Y-50543133D01*
D12*
X170807142Y-67034580D02*
X170759523Y-67082200D01*
X170759523Y-67082200D02*
X170616666Y-67129819D01*
X170616666Y-67129819D02*
X170521428Y-67129819D01*
X170521428Y-67129819D02*
X170378571Y-67082200D01*
X170378571Y-67082200D02*
X170283333Y-66986961D01*
X170283333Y-66986961D02*
X170235714Y-66891723D01*
X170235714Y-66891723D02*
X170188095Y-66701247D01*
X170188095Y-66701247D02*
X170188095Y-66558390D01*
X170188095Y-66558390D02*
X170235714Y-66367914D01*
X170235714Y-66367914D02*
X170283333Y-66272676D01*
X170283333Y-66272676D02*
X170378571Y-66177438D01*
X170378571Y-66177438D02*
X170521428Y-66129819D01*
X170521428Y-66129819D02*
X170616666Y-66129819D01*
X170616666Y-66129819D02*
X170759523Y-66177438D01*
X170759523Y-66177438D02*
X170807142Y-66225057D01*
X171759523Y-67129819D02*
X171188095Y-67129819D01*
X171473809Y-67129819D02*
X171473809Y-66129819D01*
X171473809Y-66129819D02*
X171378571Y-66272676D01*
X171378571Y-66272676D02*
X171283333Y-66367914D01*
X171283333Y-66367914D02*
X171188095Y-66415533D01*
X172711904Y-67129819D02*
X172140476Y-67129819D01*
X172426190Y-67129819D02*
X172426190Y-66129819D01*
X172426190Y-66129819D02*
X172330952Y-66272676D01*
X172330952Y-66272676D02*
X172235714Y-66367914D01*
X172235714Y-66367914D02*
X172140476Y-66415533D01*
D11*
X176561905Y-68672419D02*
X176561905Y-69481942D01*
X176561905Y-69481942D02*
X176609524Y-69577180D01*
X176609524Y-69577180D02*
X176657143Y-69624800D01*
X176657143Y-69624800D02*
X176752381Y-69672419D01*
X176752381Y-69672419D02*
X176942857Y-69672419D01*
X176942857Y-69672419D02*
X177038095Y-69624800D01*
X177038095Y-69624800D02*
X177085714Y-69577180D01*
X177085714Y-69577180D02*
X177133333Y-69481942D01*
X177133333Y-69481942D02*
X177133333Y-68672419D01*
X178133333Y-69672419D02*
X177561905Y-69672419D01*
X177847619Y-69672419D02*
X177847619Y-68672419D01*
X177847619Y-68672419D02*
X177752381Y-68815276D01*
X177752381Y-68815276D02*
X177657143Y-68910514D01*
X177657143Y-68910514D02*
X177561905Y-68958133D01*
X178752381Y-68672419D02*
X178847619Y-68672419D01*
X178847619Y-68672419D02*
X178942857Y-68720038D01*
X178942857Y-68720038D02*
X178990476Y-68767657D01*
X178990476Y-68767657D02*
X179038095Y-68862895D01*
X179038095Y-68862895D02*
X179085714Y-69053371D01*
X179085714Y-69053371D02*
X179085714Y-69291466D01*
X179085714Y-69291466D02*
X179038095Y-69481942D01*
X179038095Y-69481942D02*
X178990476Y-69577180D01*
X178990476Y-69577180D02*
X178942857Y-69624800D01*
X178942857Y-69624800D02*
X178847619Y-69672419D01*
X178847619Y-69672419D02*
X178752381Y-69672419D01*
X178752381Y-69672419D02*
X178657143Y-69624800D01*
X178657143Y-69624800D02*
X178609524Y-69577180D01*
X178609524Y-69577180D02*
X178561905Y-69481942D01*
X178561905Y-69481942D02*
X178514286Y-69291466D01*
X178514286Y-69291466D02*
X178514286Y-69053371D01*
X178514286Y-69053371D02*
X178561905Y-68862895D01*
X178561905Y-68862895D02*
X178609524Y-68767657D01*
X178609524Y-68767657D02*
X178657143Y-68720038D01*
X178657143Y-68720038D02*
X178752381Y-68672419D01*
X197461428Y-60147419D02*
X197128095Y-59671228D01*
X196890000Y-60147419D02*
X196890000Y-59147419D01*
X196890000Y-59147419D02*
X197270952Y-59147419D01*
X197270952Y-59147419D02*
X197366190Y-59195038D01*
X197366190Y-59195038D02*
X197413809Y-59242657D01*
X197413809Y-59242657D02*
X197461428Y-59337895D01*
X197461428Y-59337895D02*
X197461428Y-59480752D01*
X197461428Y-59480752D02*
X197413809Y-59575990D01*
X197413809Y-59575990D02*
X197366190Y-59623609D01*
X197366190Y-59623609D02*
X197270952Y-59671228D01*
X197270952Y-59671228D02*
X196890000Y-59671228D01*
X197890000Y-59623609D02*
X198223333Y-59623609D01*
X198366190Y-60147419D02*
X197890000Y-60147419D01*
X197890000Y-60147419D02*
X197890000Y-59147419D01*
X197890000Y-59147419D02*
X198366190Y-59147419D01*
X198747143Y-60099800D02*
X198890000Y-60147419D01*
X198890000Y-60147419D02*
X199128095Y-60147419D01*
X199128095Y-60147419D02*
X199223333Y-60099800D01*
X199223333Y-60099800D02*
X199270952Y-60052180D01*
X199270952Y-60052180D02*
X199318571Y-59956942D01*
X199318571Y-59956942D02*
X199318571Y-59861704D01*
X199318571Y-59861704D02*
X199270952Y-59766466D01*
X199270952Y-59766466D02*
X199223333Y-59718847D01*
X199223333Y-59718847D02*
X199128095Y-59671228D01*
X199128095Y-59671228D02*
X198937619Y-59623609D01*
X198937619Y-59623609D02*
X198842381Y-59575990D01*
X198842381Y-59575990D02*
X198794762Y-59528371D01*
X198794762Y-59528371D02*
X198747143Y-59433133D01*
X198747143Y-59433133D02*
X198747143Y-59337895D01*
X198747143Y-59337895D02*
X198794762Y-59242657D01*
X198794762Y-59242657D02*
X198842381Y-59195038D01*
X198842381Y-59195038D02*
X198937619Y-59147419D01*
X198937619Y-59147419D02*
X199175714Y-59147419D01*
X199175714Y-59147419D02*
X199318571Y-59195038D01*
X199747143Y-59623609D02*
X200080476Y-59623609D01*
X200223333Y-60147419D02*
X199747143Y-60147419D01*
X199747143Y-60147419D02*
X199747143Y-59147419D01*
X199747143Y-59147419D02*
X200223333Y-59147419D01*
X200509048Y-59147419D02*
X201080476Y-59147419D01*
X200794762Y-60147419D02*
X200794762Y-59147419D01*
X201937619Y-60147419D02*
X201366191Y-60147419D01*
X201651905Y-60147419D02*
X201651905Y-59147419D01*
X201651905Y-59147419D02*
X201556667Y-59290276D01*
X201556667Y-59290276D02*
X201461429Y-59385514D01*
X201461429Y-59385514D02*
X201366191Y-59433133D01*
D12*
X182118095Y-50254819D02*
X182118095Y-51064342D01*
X182118095Y-51064342D02*
X182165714Y-51159580D01*
X182165714Y-51159580D02*
X182213333Y-51207200D01*
X182213333Y-51207200D02*
X182308571Y-51254819D01*
X182308571Y-51254819D02*
X182499047Y-51254819D01*
X182499047Y-51254819D02*
X182594285Y-51207200D01*
X182594285Y-51207200D02*
X182641904Y-51159580D01*
X182641904Y-51159580D02*
X182689523Y-51064342D01*
X182689523Y-51064342D02*
X182689523Y-50254819D01*
X183641904Y-50254819D02*
X183165714Y-50254819D01*
X183165714Y-50254819D02*
X183118095Y-50731009D01*
X183118095Y-50731009D02*
X183165714Y-50683390D01*
X183165714Y-50683390D02*
X183260952Y-50635771D01*
X183260952Y-50635771D02*
X183499047Y-50635771D01*
X183499047Y-50635771D02*
X183594285Y-50683390D01*
X183594285Y-50683390D02*
X183641904Y-50731009D01*
X183641904Y-50731009D02*
X183689523Y-50826247D01*
X183689523Y-50826247D02*
X183689523Y-51064342D01*
X183689523Y-51064342D02*
X183641904Y-51159580D01*
X183641904Y-51159580D02*
X183594285Y-51207200D01*
X183594285Y-51207200D02*
X183499047Y-51254819D01*
X183499047Y-51254819D02*
X183260952Y-51254819D01*
X183260952Y-51254819D02*
X183165714Y-51207200D01*
X183165714Y-51207200D02*
X183118095Y-51159580D01*
X165174104Y-55061905D02*
X165174104Y-54585715D01*
X165459819Y-55157143D02*
X164459819Y-54823810D01*
X164459819Y-54823810D02*
X165459819Y-54490477D01*
X164793152Y-54157143D02*
X165459819Y-54157143D01*
X164888390Y-54157143D02*
X164840771Y-54109524D01*
X164840771Y-54109524D02*
X164793152Y-54014286D01*
X164793152Y-54014286D02*
X164793152Y-53871429D01*
X164793152Y-53871429D02*
X164840771Y-53776191D01*
X164840771Y-53776191D02*
X164936009Y-53728572D01*
X164936009Y-53728572D02*
X165459819Y-53728572D01*
X164793152Y-53395238D02*
X164793152Y-53014286D01*
X164459819Y-53252381D02*
X165316961Y-53252381D01*
X165316961Y-53252381D02*
X165412200Y-53204762D01*
X165412200Y-53204762D02*
X165459819Y-53109524D01*
X165459819Y-53109524D02*
X165459819Y-53014286D01*
X165412200Y-52300000D02*
X165459819Y-52395238D01*
X165459819Y-52395238D02*
X165459819Y-52585714D01*
X165459819Y-52585714D02*
X165412200Y-52680952D01*
X165412200Y-52680952D02*
X165316961Y-52728571D01*
X165316961Y-52728571D02*
X164936009Y-52728571D01*
X164936009Y-52728571D02*
X164840771Y-52680952D01*
X164840771Y-52680952D02*
X164793152Y-52585714D01*
X164793152Y-52585714D02*
X164793152Y-52395238D01*
X164793152Y-52395238D02*
X164840771Y-52300000D01*
X164840771Y-52300000D02*
X164936009Y-52252381D01*
X164936009Y-52252381D02*
X165031247Y-52252381D01*
X165031247Y-52252381D02*
X165126485Y-52728571D01*
X164793152Y-51823809D02*
X165459819Y-51823809D01*
X164888390Y-51823809D02*
X164840771Y-51776190D01*
X164840771Y-51776190D02*
X164793152Y-51680952D01*
X164793152Y-51680952D02*
X164793152Y-51538095D01*
X164793152Y-51538095D02*
X164840771Y-51442857D01*
X164840771Y-51442857D02*
X164936009Y-51395238D01*
X164936009Y-51395238D02*
X165459819Y-51395238D01*
X164793152Y-50919047D02*
X165459819Y-50919047D01*
X164888390Y-50919047D02*
X164840771Y-50871428D01*
X164840771Y-50871428D02*
X164793152Y-50776190D01*
X164793152Y-50776190D02*
X164793152Y-50633333D01*
X164793152Y-50633333D02*
X164840771Y-50538095D01*
X164840771Y-50538095D02*
X164936009Y-50490476D01*
X164936009Y-50490476D02*
X165459819Y-50490476D01*
X165459819Y-49585714D02*
X164936009Y-49585714D01*
X164936009Y-49585714D02*
X164840771Y-49633333D01*
X164840771Y-49633333D02*
X164793152Y-49728571D01*
X164793152Y-49728571D02*
X164793152Y-49919047D01*
X164793152Y-49919047D02*
X164840771Y-50014285D01*
X165412200Y-49585714D02*
X165459819Y-49680952D01*
X165459819Y-49680952D02*
X165459819Y-49919047D01*
X165459819Y-49919047D02*
X165412200Y-50014285D01*
X165412200Y-50014285D02*
X165316961Y-50061904D01*
X165316961Y-50061904D02*
X165221723Y-50061904D01*
X165221723Y-50061904D02*
X165126485Y-50014285D01*
X165126485Y-50014285D02*
X165078866Y-49919047D01*
X165078866Y-49919047D02*
X165078866Y-49680952D01*
X165078866Y-49680952D02*
X165031247Y-49585714D01*
X165174104Y-48395237D02*
X165174104Y-47919047D01*
X165459819Y-48490475D02*
X164459819Y-48157142D01*
X164459819Y-48157142D02*
X165459819Y-47823809D01*
X165459819Y-47490475D02*
X164793152Y-47490475D01*
X164983628Y-47490475D02*
X164888390Y-47442856D01*
X164888390Y-47442856D02*
X164840771Y-47395237D01*
X164840771Y-47395237D02*
X164793152Y-47299999D01*
X164793152Y-47299999D02*
X164793152Y-47204761D01*
X165412200Y-46490475D02*
X165459819Y-46585713D01*
X165459819Y-46585713D02*
X165459819Y-46776189D01*
X165459819Y-46776189D02*
X165412200Y-46871427D01*
X165412200Y-46871427D02*
X165316961Y-46919046D01*
X165316961Y-46919046D02*
X164936009Y-46919046D01*
X164936009Y-46919046D02*
X164840771Y-46871427D01*
X164840771Y-46871427D02*
X164793152Y-46776189D01*
X164793152Y-46776189D02*
X164793152Y-46585713D01*
X164793152Y-46585713D02*
X164840771Y-46490475D01*
X164840771Y-46490475D02*
X164936009Y-46442856D01*
X164936009Y-46442856D02*
X165031247Y-46442856D01*
X165031247Y-46442856D02*
X165126485Y-46919046D01*
X165459819Y-45585713D02*
X164936009Y-45585713D01*
X164936009Y-45585713D02*
X164840771Y-45633332D01*
X164840771Y-45633332D02*
X164793152Y-45728570D01*
X164793152Y-45728570D02*
X164793152Y-45919046D01*
X164793152Y-45919046D02*
X164840771Y-46014284D01*
X165412200Y-45585713D02*
X165459819Y-45680951D01*
X165459819Y-45680951D02*
X165459819Y-45919046D01*
X165459819Y-45919046D02*
X165412200Y-46014284D01*
X165412200Y-46014284D02*
X165316961Y-46061903D01*
X165316961Y-46061903D02*
X165221723Y-46061903D01*
X165221723Y-46061903D02*
X165126485Y-46014284D01*
X165126485Y-46014284D02*
X165078866Y-45919046D01*
X165078866Y-45919046D02*
X165078866Y-45680951D01*
X165078866Y-45680951D02*
X165031247Y-45585713D01*
D11*
X205282580Y-64666905D02*
X206282580Y-64666905D01*
X206282580Y-64666905D02*
X206282580Y-64905000D01*
X206282580Y-64905000D02*
X206234961Y-65047857D01*
X206234961Y-65047857D02*
X206139723Y-65143095D01*
X206139723Y-65143095D02*
X206044485Y-65190714D01*
X206044485Y-65190714D02*
X205854009Y-65238333D01*
X205854009Y-65238333D02*
X205711152Y-65238333D01*
X205711152Y-65238333D02*
X205520676Y-65190714D01*
X205520676Y-65190714D02*
X205425438Y-65143095D01*
X205425438Y-65143095D02*
X205330200Y-65047857D01*
X205330200Y-65047857D02*
X205282580Y-64905000D01*
X205282580Y-64905000D02*
X205282580Y-64666905D01*
X205282580Y-66190714D02*
X205282580Y-65619286D01*
X205282580Y-65905000D02*
X206282580Y-65905000D01*
X206282580Y-65905000D02*
X206139723Y-65809762D01*
X206139723Y-65809762D02*
X206044485Y-65714524D01*
X206044485Y-65714524D02*
X205996866Y-65619286D01*
D12*
X199382142Y-63859580D02*
X199334523Y-63907200D01*
X199334523Y-63907200D02*
X199191666Y-63954819D01*
X199191666Y-63954819D02*
X199096428Y-63954819D01*
X199096428Y-63954819D02*
X198953571Y-63907200D01*
X198953571Y-63907200D02*
X198858333Y-63811961D01*
X198858333Y-63811961D02*
X198810714Y-63716723D01*
X198810714Y-63716723D02*
X198763095Y-63526247D01*
X198763095Y-63526247D02*
X198763095Y-63383390D01*
X198763095Y-63383390D02*
X198810714Y-63192914D01*
X198810714Y-63192914D02*
X198858333Y-63097676D01*
X198858333Y-63097676D02*
X198953571Y-63002438D01*
X198953571Y-63002438D02*
X199096428Y-62954819D01*
X199096428Y-62954819D02*
X199191666Y-62954819D01*
X199191666Y-62954819D02*
X199334523Y-63002438D01*
X199334523Y-63002438D02*
X199382142Y-63050057D01*
X200334523Y-63954819D02*
X199763095Y-63954819D01*
X200048809Y-63954819D02*
X200048809Y-62954819D01*
X200048809Y-62954819D02*
X199953571Y-63097676D01*
X199953571Y-63097676D02*
X199858333Y-63192914D01*
X199858333Y-63192914D02*
X199763095Y-63240533D01*
X200953571Y-62954819D02*
X201048809Y-62954819D01*
X201048809Y-62954819D02*
X201144047Y-63002438D01*
X201144047Y-63002438D02*
X201191666Y-63050057D01*
X201191666Y-63050057D02*
X201239285Y-63145295D01*
X201239285Y-63145295D02*
X201286904Y-63335771D01*
X201286904Y-63335771D02*
X201286904Y-63573866D01*
X201286904Y-63573866D02*
X201239285Y-63764342D01*
X201239285Y-63764342D02*
X201191666Y-63859580D01*
X201191666Y-63859580D02*
X201144047Y-63907200D01*
X201144047Y-63907200D02*
X201048809Y-63954819D01*
X201048809Y-63954819D02*
X200953571Y-63954819D01*
X200953571Y-63954819D02*
X200858333Y-63907200D01*
X200858333Y-63907200D02*
X200810714Y-63859580D01*
X200810714Y-63859580D02*
X200763095Y-63764342D01*
X200763095Y-63764342D02*
X200715476Y-63573866D01*
X200715476Y-63573866D02*
X200715476Y-63335771D01*
X200715476Y-63335771D02*
X200763095Y-63145295D01*
X200763095Y-63145295D02*
X200810714Y-63050057D01*
X200810714Y-63050057D02*
X200858333Y-63002438D01*
X200858333Y-63002438D02*
X200953571Y-62954819D01*
%TO.C,Q2*%
D11*
X196100000Y-65000000D02*
X197600000Y-65000000D01*
X197600000Y-62000000D01*
X196100000Y-62000000D01*
X196100000Y-65000000D01*
%TO.C,U8*%
X195400000Y-68415000D02*
X198300000Y-68415000D01*
X198300000Y-70015000D01*
X195400000Y-70015000D01*
X195400000Y-68415000D01*
%TO.C,BOOT1*%
X196390000Y-43355000D02*
X202390000Y-43355000D01*
X202390000Y-49355000D01*
X196390000Y-49355000D01*
X196390000Y-43355000D01*
D13*
%TO.C,C11*%
X173715000Y-65963748D02*
X173715000Y-67386252D01*
X175535000Y-65963748D02*
X175535000Y-67386252D01*
%TO.C,U10*%
D11*
X179250000Y-70015000D02*
X176350000Y-70015000D01*
X176350000Y-68415000D01*
X179250000Y-68415000D01*
X179250000Y-70015000D01*
%TO.C,RESET1*%
X196390000Y-52245000D02*
X202390000Y-52245000D01*
X202390000Y-58245000D01*
X196390000Y-58245000D01*
X196390000Y-52245000D01*
D13*
%TO.C,U5*%
X162105000Y-41800000D02*
X162105000Y-59800000D01*
X162105000Y-59800000D02*
X168900000Y-59800000D01*
X162150000Y-41800000D02*
X168900000Y-41800000D01*
X168415000Y-59800000D02*
X168415000Y-41800000D01*
X193505000Y-41800000D02*
X193150000Y-41800000D01*
X193505000Y-59800000D02*
X193150000Y-59800000D01*
X193505000Y-59800000D02*
X193505000Y-41800000D01*
%TO.C,C10*%
X199115000Y-65963748D02*
X199115000Y-67386252D01*
X200935000Y-65963748D02*
X200935000Y-67386252D01*
%TD*%
%LPC*%
D14*
%TO.C,U1*%
X194945000Y-39370000D03*
X192405000Y-39370000D03*
X189865000Y-39370000D03*
X187325000Y-39370000D03*
X184785000Y-39370000D03*
X182245000Y-39370000D03*
X179705000Y-39370000D03*
%TD*%
D15*
%TO.C,Q2*%
X195850000Y-64450000D03*
X195850000Y-62550000D03*
X197850000Y-63500000D03*
%TD*%
D16*
%TO.C,CAMERA1*%
X180035000Y-73660000D03*
X194615000Y-73660000D03*
D17*
X181575000Y-75985000D03*
X182075000Y-75985000D03*
X182575000Y-75985000D03*
X183075000Y-75985000D03*
X183575000Y-75985000D03*
X184075000Y-75985000D03*
X184575000Y-75985000D03*
X185075000Y-75985000D03*
X185575000Y-75985000D03*
X186075000Y-75985000D03*
X186575000Y-75985000D03*
X187075000Y-75985000D03*
X187575000Y-75985000D03*
X188075000Y-75985000D03*
X188575000Y-75985000D03*
X189075000Y-75985000D03*
X189575000Y-75985000D03*
X190075000Y-75985000D03*
X190575000Y-75985000D03*
X191075000Y-75985000D03*
X191575000Y-75985000D03*
X192075000Y-75985000D03*
X192575000Y-75985000D03*
X193075000Y-75985000D03*
%TD*%
D18*
%TO.C,U8*%
X195950000Y-70215000D03*
X197750000Y-70215000D03*
X196850000Y-68215000D03*
%TD*%
D19*
%TO.C,BOOT1*%
X195890000Y-43855000D03*
X202890000Y-43855000D03*
X195890000Y-48855000D03*
X202890000Y-48855000D03*
%TD*%
D20*
%TO.C,C11*%
X174625000Y-65112500D03*
X174625000Y-68237500D03*
%TD*%
D21*
%TO.C,U10*%
X178700000Y-68215000D03*
X176900000Y-68215000D03*
X177800000Y-70215000D03*
%TD*%
D19*
%TO.C,RESET1*%
X195890000Y-52745000D03*
X202890000Y-52745000D03*
X195890000Y-57745000D03*
X202890000Y-57745000D03*
%TD*%
D22*
%TO.C,U5*%
X169545000Y-59550000D03*
X170815000Y-59550000D03*
X172085000Y-59550000D03*
X173355000Y-59550000D03*
X174625000Y-59550000D03*
X175895000Y-59550000D03*
X177165000Y-59550000D03*
X178435000Y-59550000D03*
X179705000Y-59550000D03*
X180975000Y-59550000D03*
X182245000Y-59550000D03*
X183515000Y-59550000D03*
X184785000Y-59550000D03*
X186055000Y-59550000D03*
X187325000Y-59550000D03*
X188595000Y-59550000D03*
X189865000Y-59550000D03*
X191135000Y-59550000D03*
X192405000Y-59550000D03*
X192405000Y-42050000D03*
X191135000Y-42050000D03*
X189865000Y-42050000D03*
X188595000Y-42050000D03*
X187325000Y-42050000D03*
X186055000Y-42050000D03*
X184785000Y-42050000D03*
X183515000Y-42050000D03*
X182245000Y-42050000D03*
X180975000Y-42050000D03*
X179705000Y-42050000D03*
X178435000Y-42050000D03*
X177165000Y-42050000D03*
X175895000Y-42050000D03*
X174625000Y-42050000D03*
X173355000Y-42050000D03*
X172085000Y-42050000D03*
X170815000Y-42050000D03*
X169545000Y-42050000D03*
D23*
X175940000Y-53705000D03*
X177340000Y-53700000D03*
X178740000Y-53700000D03*
X175940000Y-52300000D03*
X177340000Y-52300000D03*
X178740000Y-52300000D03*
X175940000Y-50900000D03*
X177340000Y-50900000D03*
X178740000Y-50900000D03*
%TD*%
D24*
%TO.C,D1*%
X203200000Y-63405000D03*
X203200000Y-67405000D03*
%TD*%
D20*
%TO.C,C10*%
X200025000Y-65112500D03*
X200025000Y-68237500D03*
%TD*%
%LPD*%
M02*
