%TF.GenerationSoftware,KiCad,Pcbnew,8.0.6*%
%TF.CreationDate,2025-02-18T20:28:02-05:00*%
%TF.ProjectId,Camera,43616d65-7261-42e6-9b69-6361645f7063,rev?*%
%TF.SameCoordinates,Original*%
%TF.FileFunction,Copper,L1,Top*%
%TF.FilePolarity,Positive*%
%FSLAX46Y46*%
G04 Gerber Fmt 4.6, Leading zero omitted, Abs format (unit mm)*
G04 Created by KiCad (PCBNEW 8.0.6) date 2025-02-18 20:28:02*
%MOMM*%
%LPD*%
G01*
G04 APERTURE LIST*
G04 Aperture macros list*
%AMRoundRect*
0 Rectangle with rounded corners*
0 $1 Rounding radius*
0 $2 $3 $4 $5 $6 $7 $8 $9 X,Y pos of 4 corners*
0 Add a 4 corners polygon primitive as box body*
4,1,4,$2,$3,$4,$5,$6,$7,$8,$9,$2,$3,0*
0 Add four circle primitives for the rounded corners*
1,1,$1+$1,$2,$3*
1,1,$1+$1,$4,$5*
1,1,$1+$1,$6,$7*
1,1,$1+$1,$8,$9*
0 Add four rect primitives between the rounded corners*
20,1,$1+$1,$2,$3,$4,$5,0*
20,1,$1+$1,$4,$5,$6,$7,0*
20,1,$1+$1,$6,$7,$8,$9,0*
20,1,$1+$1,$8,$9,$2,$3,0*%
G04 Aperture macros list end*
%TA.AperFunction,SMDPad,CuDef*%
%ADD10RoundRect,0.300000X0.300000X-0.300000X0.300000X0.300000X-0.300000X0.300000X-0.300000X-0.300000X0*%
%TD*%
%TA.AperFunction,SMDPad,CuDef*%
%ADD11R,2.000000X3.000000*%
%TD*%
%TA.AperFunction,SMDPad,CuDef*%
%ADD12RoundRect,0.075000X-0.075000X-0.550000X0.075000X-0.550000X0.075000X0.550000X-0.075000X0.550000X0*%
%TD*%
%TA.AperFunction,SMDPad,CuDef*%
%ADD13RoundRect,0.300000X-0.300000X-0.450000X0.300000X-0.450000X0.300000X0.450000X-0.300000X0.450000X0*%
%TD*%
%TA.AperFunction,SMDPad,CuDef*%
%ADD14RoundRect,0.500000X-1.000000X-0.500000X1.000000X-0.500000X1.000000X0.500000X-1.000000X0.500000X0*%
%TD*%
%TA.AperFunction,ComponentPad*%
%ADD15C,1.524000*%
%TD*%
%TA.AperFunction,SMDPad,CuDef*%
%ADD16RoundRect,0.250000X-0.650000X0.412500X-0.650000X-0.412500X0.650000X-0.412500X0.650000X0.412500X0*%
%TD*%
%TA.AperFunction,SMDPad,CuDef*%
%ADD17RoundRect,0.300000X0.300000X0.450000X-0.300000X0.450000X-0.300000X-0.450000X0.300000X-0.450000X0*%
%TD*%
%TA.AperFunction,SMDPad,CuDef*%
%ADD18R,0.900000X1.500000*%
%TD*%
%TA.AperFunction,SMDPad,CuDef*%
%ADD19R,0.900000X0.900000*%
%TD*%
%TA.AperFunction,SMDPad,CuDef*%
%ADD20RoundRect,0.625000X-0.625000X-0.625000X0.625000X-0.625000X0.625000X0.625000X-0.625000X0.625000X0*%
%TD*%
%TA.AperFunction,ViaPad*%
%ADD21C,0.600000*%
%TD*%
%TA.AperFunction,Conductor*%
%ADD22C,0.200000*%
%TD*%
G04 APERTURE END LIST*
D10*
%TO.P,Q2,1,E*%
%TO.N,Net-(Q2-E)*%
X195850000Y-64450000D03*
%TO.P,Q2,2,B*%
%TO.N,/LED_CTRL*%
X195850000Y-62550000D03*
%TO.P,Q2,3,C*%
%TO.N,/3.3V*%
X197850000Y-63500000D03*
%TD*%
D11*
%TO.P,CAMERA1,*%
%TO.N,*%
X180035000Y-73660000D03*
X194615000Y-73660000D03*
D12*
%TO.P,CAMERA1,1,STROBE*%
%TO.N,unconnected-(CAMERA1-STROBE-Pad1)*%
X181575000Y-75985000D03*
%TO.P,CAMERA1,2,AGND*%
%TO.N,GNDREF*%
X182075000Y-75985000D03*
%TO.P,CAMERA1,3,SIOD*%
%TO.N,/CAM_SIOD*%
X182575000Y-75985000D03*
%TO.P,CAMERA1,4,AVDD*%
%TO.N,/2.8V*%
X183075000Y-75985000D03*
%TO.P,CAMERA1,5,SIOC*%
%TO.N,/CAM_SIOC*%
X183575000Y-75985000D03*
%TO.P,CAMERA1,6,RESETB*%
%TO.N,/CAM_RESET*%
X184075000Y-75985000D03*
%TO.P,CAMERA1,7,VSYNC*%
%TO.N,/CAM_VSYNC*%
X184575000Y-75985000D03*
%TO.P,CAMERA1,8,PWDN*%
%TO.N,/CAM_PWDN*%
X185075000Y-75985000D03*
%TO.P,CAMERA1,9,HREF*%
%TO.N,/CAM_HREF*%
X185575000Y-75985000D03*
%TO.P,CAMERA1,10,DVDD*%
%TO.N,/1.2V*%
X186075000Y-75985000D03*
%TO.P,CAMERA1,11,DOVDD*%
%TO.N,/3.3V*%
X186575000Y-75985000D03*
%TO.P,CAMERA1,12,DATA9*%
%TO.N,/CAM_DATA9*%
X187075000Y-75985000D03*
%TO.P,CAMERA1,13,XCLK*%
%TO.N,/CAM_XCLK*%
X187575000Y-75985000D03*
%TO.P,CAMERA1,14,DATA8*%
%TO.N,/CAM_DATA8*%
X188075000Y-75985000D03*
%TO.P,CAMERA1,15,DGND*%
%TO.N,GNDREF*%
X188575000Y-75985000D03*
%TO.P,CAMERA1,16,DATA7*%
%TO.N,/CAM_DATA7*%
X189075000Y-75985000D03*
%TO.P,CAMERA1,17,PCLK*%
%TO.N,/CAM_PCLK*%
X189575000Y-75985000D03*
%TO.P,CAMERA1,18,DATA6*%
%TO.N,/CAM_DATA6*%
X190075000Y-75985000D03*
%TO.P,CAMERA1,19,DATA2*%
%TO.N,/CAM_DATA2*%
X190575000Y-75985000D03*
%TO.P,CAMERA1,20,DATA5*%
%TO.N,/CAM_DATA5*%
X191075000Y-75985000D03*
%TO.P,CAMERA1,21,DATA3*%
%TO.N,/CAM_DATA3*%
X191575000Y-75985000D03*
%TO.P,CAMERA1,22,DATA4*%
%TO.N,/CAM_DATA4*%
X192075000Y-75985000D03*
%TO.P,CAMERA1,23,DATA1*%
%TO.N,unconnected-(CAMERA1-DATA1-Pad23)*%
X192575000Y-75985000D03*
%TO.P,CAMERA1,24,DATA0*%
%TO.N,unconnected-(CAMERA1-DATA0-Pad24)*%
X193075000Y-75985000D03*
%TD*%
D13*
%TO.P,U8,1,VSS*%
%TO.N,GNDREF*%
X195950000Y-70215000D03*
%TO.P,U8,2,VOUT*%
%TO.N,/1.2V*%
X197750000Y-70215000D03*
%TO.P,U8,3,VIN*%
%TO.N,/3.3V*%
X196850000Y-68215000D03*
%TD*%
D14*
%TO.P,BOOT1,1,1*%
%TO.N,/B_IO0*%
X195890000Y-43855000D03*
X202890000Y-43855000D03*
%TO.P,BOOT1,2,2*%
%TO.N,GNDREF*%
X195890000Y-48855000D03*
X202890000Y-48855000D03*
%TD*%
D15*
%TO.P,U1,1,BLE_TX*%
%TO.N,/B_TX*%
X194945000Y-39370000D03*
%TO.P,U1,2,BLE_RX*%
%TO.N,/B_RX*%
X192405000Y-39370000D03*
%TO.P,U1,3,5V*%
%TO.N,unconnected-(U1-5V-Pad3)*%
X189865000Y-39370000D03*
%TO.P,U1,4,GND*%
%TO.N,GNDREF*%
X187325000Y-39370000D03*
%TO.P,U1,5,3.3V*%
%TO.N,/3.3V*%
X184785000Y-39370000D03*
%TO.P,U1,6,WIFI_RX*%
%TO.N,/W_RX*%
X182245000Y-39370000D03*
%TO.P,U1,7,WIFI_TX*%
%TO.N,/W_TX*%
X179705000Y-39370000D03*
%TD*%
D16*
%TO.P,C11,1*%
%TO.N,GNDREF*%
X174625000Y-65112500D03*
%TO.P,C11,2*%
%TO.N,/2.8V*%
X174625000Y-68237500D03*
%TD*%
D17*
%TO.P,U10,1,VSS*%
%TO.N,GNDREF*%
X178700000Y-68215000D03*
%TO.P,U10,2,VOUT*%
%TO.N,/2.8V*%
X176900000Y-68215000D03*
%TO.P,U10,3,VIN*%
%TO.N,/3.3V*%
X177800000Y-70215000D03*
%TD*%
D14*
%TO.P,RESET1,1,1*%
%TO.N,/B_EN*%
X195890000Y-52745000D03*
X202890000Y-52745000D03*
%TO.P,RESET1,2,2*%
%TO.N,GNDREF*%
X195890000Y-57745000D03*
X202890000Y-57745000D03*
%TD*%
D18*
%TO.P,U5,1,GND*%
%TO.N,GNDREF*%
X169545000Y-59550000D03*
%TO.P,U5,2,3V3*%
%TO.N,/3.3V*%
X170815000Y-59550000D03*
%TO.P,U5,3,EN*%
%TO.N,/B_EN*%
X172085000Y-59550000D03*
%TO.P,U5,4,SENSOR_VP*%
%TO.N,/CAM_SIOD*%
X173355000Y-59550000D03*
%TO.P,U5,5,SENSOR_VN*%
%TO.N,/CAM_SIOC*%
X174625000Y-59550000D03*
%TO.P,U5,6,IO34*%
%TO.N,/CAM_VSYNC*%
X175895000Y-59550000D03*
%TO.P,U5,7,IO35*%
%TO.N,/CAM_HREF*%
X177165000Y-59550000D03*
%TO.P,U5,8,IO32*%
%TO.N,/CAM_DATA9*%
X178435000Y-59550000D03*
%TO.P,U5,9,IO33*%
%TO.N,/CAM_XCLK*%
X179705000Y-59550000D03*
%TO.P,U5,10,IO25*%
%TO.N,/CAM_DATA8*%
X180975000Y-59550000D03*
%TO.P,U5,11,IO26*%
%TO.N,/CAM_DATA7*%
X182245000Y-59550000D03*
%TO.P,U5,12,IO27*%
%TO.N,/CAM_PCLK*%
X183515000Y-59550000D03*
%TO.P,U5,13,IO14*%
%TO.N,/CAM_DATA6*%
X184785000Y-59550000D03*
%TO.P,U5,14,IO12*%
%TO.N,/CAM_DATA2*%
X186055000Y-59550000D03*
%TO.P,U5,15,GND*%
%TO.N,GNDREF*%
X187325000Y-59550000D03*
%TO.P,U5,16,IO13*%
%TO.N,/CAM_DATA5*%
X188595000Y-59550000D03*
%TO.P,U5,17,NC*%
%TO.N,unconnected-(U5-NC-Pad17)*%
X189865000Y-59550000D03*
%TO.P,U5,18,NC*%
%TO.N,unconnected-(U5-NC-Pad18)*%
X191135000Y-59550000D03*
%TO.P,U5,19,NC*%
%TO.N,unconnected-(U5-NC-Pad19)*%
X192405000Y-59550000D03*
%TO.P,U5,20,NC*%
%TO.N,unconnected-(U5-NC-Pad20)*%
X192405000Y-42050000D03*
%TO.P,U5,21,NC*%
%TO.N,unconnected-(U5-NC-Pad21)*%
X191135000Y-42050000D03*
%TO.P,U5,22,NC*%
%TO.N,unconnected-(U5-NC-Pad22)*%
X189865000Y-42050000D03*
%TO.P,U5,23,IO15*%
%TO.N,/CAM_DATA4*%
X188595000Y-42050000D03*
%TO.P,U5,24,IO2*%
%TO.N,/CAM_DATA3*%
X187325000Y-42050000D03*
%TO.P,U5,25,IO0*%
%TO.N,/B_IO0*%
X186055000Y-42050000D03*
%TO.P,U5,26,IO4*%
%TO.N,unconnected-(U5-IO4-Pad26)*%
X184785000Y-42050000D03*
%TO.P,U5,27,IO16*%
%TO.N,unconnected-(U5-IO16-Pad27)*%
X183515000Y-42050000D03*
%TO.P,U5,28,IO17*%
%TO.N,/IPC_RX*%
X182245000Y-42050000D03*
%TO.P,U5,29,IO5*%
%TO.N,/IPC_TX*%
X180975000Y-42050000D03*
%TO.P,U5,30,IO18*%
%TO.N,unconnected-(U5-IO18-Pad30)*%
X179705000Y-42050000D03*
%TO.P,U5,31,IO19*%
%TO.N,unconnected-(U5-IO19-Pad31)*%
X178435000Y-42050000D03*
%TO.P,U5,32,NC*%
%TO.N,unconnected-(U5-NC-Pad32)*%
X177165000Y-42050000D03*
%TO.P,U5,33,IO21*%
%TO.N,unconnected-(U5-IO21-Pad33)*%
X175895000Y-42050000D03*
%TO.P,U5,34,RXD0*%
%TO.N,/W_RX*%
X174625000Y-42050000D03*
%TO.P,U5,35,TXD0*%
%TO.N,/W_TX*%
X173355000Y-42050000D03*
%TO.P,U5,36,IO22*%
%TO.N,unconnected-(U5-IO22-Pad36)*%
X172085000Y-42050000D03*
%TO.P,U5,37,IO23*%
%TO.N,unconnected-(U5-IO23-Pad37)*%
X170815000Y-42050000D03*
%TO.P,U5,38,GND*%
%TO.N,GNDREF*%
X169545000Y-42050000D03*
D19*
%TO.P,U5,39,PAD*%
%TO.N,unconnected-(U5-PAD-Pad39)_4*%
X175940000Y-53705000D03*
%TO.N,unconnected-(U5-PAD-Pad39)_6*%
X177340000Y-53700000D03*
%TO.N,unconnected-(U5-PAD-Pad39)_2*%
X178740000Y-53700000D03*
%TO.N,unconnected-(U5-PAD-Pad39)*%
X175940000Y-52300000D03*
%TO.N,unconnected-(U5-PAD-Pad39)_3*%
X177340000Y-52300000D03*
%TO.N,unconnected-(U5-PAD-Pad39)_7*%
X178740000Y-52300000D03*
%TO.N,unconnected-(U5-PAD-Pad39)_5*%
X175940000Y-50900000D03*
%TO.N,unconnected-(U5-PAD-Pad39)_8*%
X177340000Y-50900000D03*
%TO.N,unconnected-(U5-PAD-Pad39)_1*%
X178740000Y-50900000D03*
%TD*%
D20*
%TO.P,D1,1,K*%
%TO.N,GNDREF*%
X203200000Y-63405000D03*
%TO.P,D1,2,A*%
%TO.N,Net-(D1-A)*%
X203200000Y-67405000D03*
%TD*%
D16*
%TO.P,C10,1*%
%TO.N,GNDREF*%
X200025000Y-65112500D03*
%TO.P,C10,2*%
%TO.N,/1.2V*%
X200025000Y-68237500D03*
%TD*%
D21*
%TO.N,/CAM_PCLK*%
X194000000Y-76500000D03*
%TO.N,/CAM_RESET*%
X184500000Y-77500000D03*
%TO.N,/CAM_SIOD*%
X182500000Y-74000000D03*
%TO.N,/CAM_SIOC*%
X183575000Y-74000000D03*
%TO.N,/B_EN*%
X199500000Y-58000000D03*
X182500000Y-55500000D03*
X171500000Y-57500000D03*
X190500000Y-58000000D03*
%TO.N,GNDREF*%
X187325000Y-61175000D03*
X194500000Y-70500000D03*
X180500000Y-70000000D03*
X198000000Y-56500000D03*
X172500000Y-56500000D03*
X205105000Y-49500000D03*
X204500000Y-61500000D03*
X180000000Y-43500000D03*
X176500000Y-46000000D03*
X203500000Y-40500000D03*
X205105000Y-56500000D03*
X188000000Y-70500000D03*
%TO.N,/3.3V*%
X181500000Y-68000000D03*
X179500000Y-70500000D03*
X170500000Y-58000000D03*
X191500000Y-57500000D03*
X186000000Y-74000000D03*
X193000000Y-66500000D03*
X181500000Y-71000000D03*
X198000000Y-65000000D03*
X183500000Y-55500000D03*
%TO.N,/B_IO0*%
X183500000Y-45500000D03*
X189500000Y-44500000D03*
%TO.N,/IPC_TX*%
X183500000Y-46500000D03*
%TO.N,/IPC_RX*%
X182500000Y-45500000D03*
%TO.N,/CAM_PWDN*%
X185500000Y-77500000D03*
%TO.N,Net-(D1-A)*%
X203000000Y-65500000D03*
%TO.N,Net-(Q2-E)*%
X196500000Y-65500000D03*
%TO.N,/LED_CTRL*%
X196000000Y-61000000D03*
%TD*%
D22*
%TO.N,/CAM_PCLK*%
X189575000Y-76925000D02*
X189575000Y-75985000D01*
X189575000Y-76925000D02*
X193575000Y-76925000D01*
X193575000Y-76925000D02*
X194000000Y-76500000D01*
X189575000Y-66151372D02*
X183515000Y-60091372D01*
X189575000Y-75985000D02*
X189575000Y-66151372D01*
%TO.N,/CAM_RESET*%
X184075000Y-77075000D02*
X184075000Y-75985000D01*
X184500000Y-77500000D02*
X184075000Y-77075000D01*
%TO.N,/1.2V*%
X186075000Y-77075000D02*
X186075000Y-75985000D01*
X200025000Y-68237500D02*
X200025000Y-68975000D01*
X196000000Y-73500000D02*
X196000000Y-75500000D01*
X198785000Y-70215000D02*
X197750000Y-70215000D01*
X186500000Y-77500000D02*
X186075000Y-77075000D01*
X197750000Y-70215000D02*
X197750000Y-71750000D01*
X196000000Y-75500000D02*
X194000000Y-77500000D01*
X197750000Y-71750000D02*
X196000000Y-73500000D01*
X200025000Y-68975000D02*
X198785000Y-70215000D01*
X194000000Y-77500000D02*
X186500000Y-77500000D01*
%TO.N,/CAM_DATA2*%
X190575000Y-75985000D02*
X190575000Y-66020000D01*
X190575000Y-66020000D02*
X186055000Y-61500000D01*
X186055000Y-61500000D02*
X186055000Y-59550000D01*
%TO.N,/CAM_DATA8*%
X180975000Y-60475000D02*
X187000000Y-66500000D01*
X187000000Y-66500000D02*
X187000000Y-70500000D01*
X187000000Y-70500000D02*
X188075000Y-71575000D01*
X180975000Y-59550000D02*
X180975000Y-60475000D01*
X188075000Y-71575000D02*
X188075000Y-75985000D01*
%TO.N,/CAM_SIOD*%
X182575000Y-68075000D02*
X182575000Y-74000000D01*
X173355000Y-60355000D02*
X174000000Y-61000000D01*
X177000000Y-62500000D02*
X182575000Y-68075000D01*
X176000000Y-62500000D02*
X177000000Y-62500000D01*
X182575000Y-74000000D02*
X182575000Y-75985000D01*
X182500000Y-74000000D02*
X182575000Y-74000000D01*
X173355000Y-59550000D02*
X173355000Y-60355000D01*
X174000000Y-61000000D02*
X174500000Y-61000000D01*
X174500000Y-61000000D02*
X176000000Y-62500000D01*
%TO.N,/CAM_DATA6*%
X190075000Y-66085686D02*
X184785000Y-60795686D01*
X190075000Y-75985000D02*
X190075000Y-66085686D01*
X184785000Y-60795686D02*
X184785000Y-59550000D01*
%TO.N,/CAM_VSYNC*%
X184575000Y-68075000D02*
X184575000Y-75985000D01*
X177000000Y-61500000D02*
X178000000Y-61500000D01*
X175895000Y-60395000D02*
X177000000Y-61500000D01*
X178000000Y-61500000D02*
X184575000Y-68075000D01*
X175895000Y-59550000D02*
X175895000Y-60395000D01*
%TO.N,/CAM_DATA9*%
X186000000Y-67500000D02*
X178435000Y-59935000D01*
X186000000Y-70631372D02*
X186000000Y-67500000D01*
X187075000Y-71706372D02*
X186000000Y-70631372D01*
X187075000Y-75985000D02*
X187075000Y-71706372D01*
%TO.N,/CAM_DATA5*%
X191075000Y-75985000D02*
X191075000Y-62575000D01*
X191075000Y-62575000D02*
X188595000Y-60095000D01*
%TO.N,/CAM_DATA4*%
X192075000Y-75985000D02*
X192075000Y-62490686D01*
X188595000Y-53029314D02*
X188595000Y-42050000D01*
X194000000Y-60565686D02*
X194000000Y-58434314D01*
X194000000Y-58434314D02*
X188595000Y-53029314D01*
X192075000Y-62490686D02*
X194000000Y-60565686D01*
%TO.N,/CAM_SIOC*%
X176500000Y-62000000D02*
X174625000Y-60125000D01*
X183575000Y-74000000D02*
X183575000Y-68075000D01*
X183575000Y-68075000D02*
X177500000Y-62000000D01*
X177500000Y-62000000D02*
X176500000Y-62000000D01*
X183575000Y-75985000D02*
X183575000Y-74000000D01*
%TO.N,/CAM_DATA7*%
X182245000Y-60245000D02*
X189075000Y-67075000D01*
X182245000Y-59550000D02*
X182245000Y-60245000D01*
X189075000Y-67075000D02*
X189075000Y-75985000D01*
%TO.N,/CAM_HREF*%
X185000000Y-74500000D02*
X185575000Y-75075000D01*
X177165000Y-59550000D02*
X177165000Y-60665000D01*
X178500000Y-61000000D02*
X185000000Y-67500000D01*
X185000000Y-67500000D02*
X185000000Y-74500000D01*
X177500000Y-61000000D02*
X178500000Y-61000000D01*
X177165000Y-60665000D02*
X177500000Y-61000000D01*
X185575000Y-75075000D02*
X185575000Y-75985000D01*
%TO.N,/CAM_DATA3*%
X191575000Y-75985000D02*
X191575000Y-62425000D01*
X193500000Y-60500000D02*
X193500000Y-58500000D01*
X191575000Y-62425000D02*
X193500000Y-60500000D01*
X187325000Y-52325000D02*
X187325000Y-42050000D01*
X193500000Y-58500000D02*
X187325000Y-52325000D01*
%TO.N,/CAM_XCLK*%
X186500000Y-70565686D02*
X187575000Y-71640686D01*
X179705000Y-60205000D02*
X186500000Y-67000000D01*
X186500000Y-67000000D02*
X186500000Y-70565686D01*
X179705000Y-59550000D02*
X179705000Y-60205000D01*
X187575000Y-71640686D02*
X187575000Y-75985000D01*
%TO.N,/2.8V*%
X178500000Y-75500000D02*
X180075000Y-77075000D01*
X178500000Y-73000000D02*
X178500000Y-75500000D01*
X180075000Y-77075000D02*
X183075000Y-77075000D01*
X176900000Y-68215000D02*
X176900000Y-71400000D01*
X174625000Y-68237500D02*
X176877500Y-68237500D01*
X183075000Y-77075000D02*
X183075000Y-75985000D01*
X176900000Y-71400000D02*
X178500000Y-73000000D01*
%TO.N,/W_TX*%
X178575000Y-40500000D02*
X179705000Y-39370000D01*
X174000000Y-40500000D02*
X178575000Y-40500000D01*
X173355000Y-42050000D02*
X173355000Y-41145000D01*
X173355000Y-41145000D02*
X174000000Y-40500000D01*
%TO.N,/W_RX*%
X180615000Y-41000000D02*
X182245000Y-39370000D01*
X174625000Y-42050000D02*
X174625000Y-41375000D01*
X174625000Y-41375000D02*
X175000000Y-41000000D01*
X175000000Y-41000000D02*
X180615000Y-41000000D01*
%TO.N,/B_EN*%
X200255000Y-52745000D02*
X199500000Y-53500000D01*
X172085000Y-58085000D02*
X171500000Y-57500000D01*
X198745000Y-52745000D02*
X195890000Y-52745000D01*
X185000000Y-58000000D02*
X190500000Y-58000000D01*
X172085000Y-59550000D02*
X172085000Y-58085000D01*
X199500000Y-53500000D02*
X198745000Y-52745000D01*
X182500000Y-55500000D02*
X185000000Y-58000000D01*
X199500000Y-53500000D02*
X199500000Y-58000000D01*
X202890000Y-52745000D02*
X200255000Y-52745000D01*
%TO.N,GNDREF*%
X180285000Y-68215000D02*
X180500000Y-68000000D01*
X200025000Y-63475000D02*
X200025000Y-65112500D01*
X195890000Y-48855000D02*
X202890000Y-48855000D01*
X169545000Y-56500000D02*
X169545000Y-59550000D01*
X178700000Y-68215000D02*
X180285000Y-68215000D01*
X182075000Y-75985000D02*
X182075000Y-75075000D01*
X173000000Y-46000000D02*
X176500000Y-46000000D01*
X203200000Y-62800000D02*
X204500000Y-61500000D01*
X178500000Y-46000000D02*
X176500000Y-46000000D01*
X169545000Y-56500000D02*
X172500000Y-56500000D01*
X181500000Y-74500000D02*
X181500000Y-72000000D01*
X204500000Y-61500000D02*
X202000000Y-61500000D01*
X195890000Y-57745000D02*
X197135000Y-56500000D01*
X169545000Y-56500000D02*
X169545000Y-42050000D01*
X173000000Y-62000000D02*
X173500000Y-62000000D01*
X204460000Y-48855000D02*
X205105000Y-49500000D01*
X174625000Y-63875000D02*
X175000000Y-63500000D01*
X169545000Y-60110686D02*
X170934314Y-61500000D01*
X182075000Y-75075000D02*
X181500000Y-74500000D01*
X174625000Y-65112500D02*
X174625000Y-63875000D01*
X180000000Y-44500000D02*
X178500000Y-46000000D01*
X173500000Y-62000000D02*
X175000000Y-63500000D01*
X188575000Y-71075000D02*
X188575000Y-75985000D01*
X202000000Y-61500000D02*
X200025000Y-63475000D01*
X188455000Y-40500000D02*
X187325000Y-39370000D01*
X180500000Y-71000000D02*
X180500000Y-70000000D01*
X203500000Y-40500000D02*
X188455000Y-40500000D01*
X203860000Y-57745000D02*
X205105000Y-56500000D01*
X187325000Y-61175000D02*
X187325000Y-59550000D01*
X197135000Y-56500000D02*
X198000000Y-56500000D01*
X195950000Y-70215000D02*
X194785000Y-70215000D01*
X169545000Y-42545000D02*
X173000000Y-46000000D01*
X181500000Y-72000000D02*
X180500000Y-71000000D01*
X170934314Y-61500000D02*
X172500000Y-61500000D01*
X176000000Y-63500000D02*
X180500000Y-68000000D01*
X202890000Y-48855000D02*
X204460000Y-48855000D01*
X188000000Y-70500000D02*
X188575000Y-71075000D01*
X172500000Y-61500000D02*
X173000000Y-62000000D01*
X175000000Y-63500000D02*
X176000000Y-63500000D01*
X194785000Y-70215000D02*
X194500000Y-70500000D01*
X180000000Y-43500000D02*
X180000000Y-44500000D01*
X180500000Y-68000000D02*
X180500000Y-70000000D01*
%TO.N,/3.3V*%
X196850000Y-66150000D02*
X196500000Y-66500000D01*
X198000000Y-65000000D02*
X196850000Y-66150000D01*
X196850000Y-66150000D02*
X196850000Y-68215000D01*
X176500000Y-63000000D02*
X181500000Y-68000000D01*
X183500000Y-55500000D02*
X189500000Y-55500000D01*
X177800000Y-70215000D02*
X179215000Y-70215000D01*
X189500000Y-55500000D02*
X191500000Y-57500000D01*
X170815000Y-58315000D02*
X170500000Y-58000000D01*
X174000000Y-61500000D02*
X175500000Y-63000000D01*
X173000000Y-61000000D02*
X173500000Y-61500000D01*
X186575000Y-74575000D02*
X186000000Y-74000000D01*
X179215000Y-70215000D02*
X179500000Y-70500000D01*
X181500000Y-68000000D02*
X181500000Y-71000000D01*
X186575000Y-75985000D02*
X186575000Y-74575000D01*
X196500000Y-66500000D02*
X193000000Y-66500000D01*
X170815000Y-60815000D02*
X171000000Y-61000000D01*
X173500000Y-61500000D02*
X174000000Y-61500000D01*
X197850000Y-64850000D02*
X198000000Y-65000000D01*
X175500000Y-63000000D02*
X176500000Y-63000000D01*
X170815000Y-59550000D02*
X170815000Y-60815000D01*
X170815000Y-59550000D02*
X170815000Y-58315000D01*
X197850000Y-63500000D02*
X197850000Y-64850000D01*
X171000000Y-61000000D02*
X173000000Y-61000000D01*
%TO.N,/B_IO0*%
X190145000Y-43855000D02*
X189500000Y-44500000D01*
X195890000Y-43855000D02*
X190145000Y-43855000D01*
X183500000Y-45500000D02*
X186055000Y-42945000D01*
X202890000Y-43855000D02*
X195890000Y-43855000D01*
X186055000Y-42945000D02*
X186055000Y-42050000D01*
%TO.N,/IPC_TX*%
X180975000Y-44975000D02*
X182500000Y-46500000D01*
X182500000Y-46500000D02*
X183500000Y-46500000D01*
X180975000Y-42050000D02*
X180975000Y-44975000D01*
%TO.N,/IPC_RX*%
X182245000Y-45245000D02*
X182500000Y-45500000D01*
X182245000Y-42050000D02*
X182245000Y-45245000D01*
%TO.N,/CAM_PWDN*%
X185075000Y-75985000D02*
X185075000Y-77075000D01*
X185075000Y-77075000D02*
X185500000Y-77500000D01*
%TO.N,Net-(D1-A)*%
X203200000Y-67405000D02*
X203200000Y-65700000D01*
X203200000Y-65700000D02*
X203000000Y-65500000D01*
%TO.N,Net-(Q2-E)*%
X195850000Y-64850000D02*
X196500000Y-65500000D01*
%TO.N,/LED_CTRL*%
X195850000Y-62550000D02*
X195850000Y-61150000D01*
X195850000Y-61150000D02*
X196000000Y-61000000D01*
%TD*%
M02*
