%TF.GenerationSoftware,KiCad,Pcbnew,8.0.6*%
%TF.CreationDate,2025-03-02T22:23:19-05:00*%
%TF.ProjectId,Camera,43616d65-7261-42e6-9b69-6361645f7063,rev?*%
%TF.SameCoordinates,Original*%
%TF.FileFunction,Legend,Bot*%
%TF.FilePolarity,Positive*%
%FSLAX46Y46*%
G04 Gerber Fmt 4.6, Leading zero omitted, Abs format (unit mm)*
G04 Created by KiCad (PCBNEW 8.0.6) date 2025-03-02 22:23:19*
%MOMM*%
%LPD*%
G01*
G04 APERTURE LIST*
G04 Aperture macros list*
%AMRoundRect*
0 Rectangle with rounded corners*
0 $1 Rounding radius*
0 $2 $3 $4 $5 $6 $7 $8 $9 X,Y pos of 4 corners*
0 Add a 4 corners polygon primitive as box body*
4,1,4,$2,$3,$4,$5,$6,$7,$8,$9,$2,$3,0*
0 Add four circle primitives for the rounded corners*
1,1,$1+$1,$2,$3*
1,1,$1+$1,$4,$5*
1,1,$1+$1,$6,$7*
1,1,$1+$1,$8,$9*
0 Add four rect primitives between the rounded corners*
20,1,$1+$1,$2,$3,$4,$5,0*
20,1,$1+$1,$4,$5,$6,$7,0*
20,1,$1+$1,$6,$7,$8,$9,0*
20,1,$1+$1,$8,$9,$2,$3,0*%
G04 Aperture macros list end*
%ADD10C,0.150000*%
%ADD11C,0.100000*%
%ADD12C,0.120000*%
%ADD13C,1.650000*%
%ADD14RoundRect,0.250000X0.400000X0.625000X-0.400000X0.625000X-0.400000X-0.625000X0.400000X-0.625000X0*%
%ADD15RoundRect,0.250000X-0.625000X0.400000X-0.625000X-0.400000X0.625000X-0.400000X0.625000X0.400000X0*%
%ADD16RoundRect,0.250000X0.650000X-0.412500X0.650000X0.412500X-0.650000X0.412500X-0.650000X-0.412500X0*%
%ADD17RoundRect,0.250000X0.412500X0.650000X-0.412500X0.650000X-0.412500X-0.650000X0.412500X-0.650000X0*%
%ADD18RoundRect,0.250000X-0.412500X-0.650000X0.412500X-0.650000X0.412500X0.650000X-0.412500X0.650000X0*%
%ADD19RoundRect,0.300000X-0.300000X-0.300000X0.300000X-0.300000X0.300000X0.300000X-0.300000X0.300000X0*%
%ADD20RoundRect,0.250000X0.625000X-0.400000X0.625000X0.400000X-0.625000X0.400000X-0.625000X-0.400000X0*%
%ADD21RoundRect,0.625000X0.625000X0.625000X-0.625000X0.625000X-0.625000X-0.625000X0.625000X-0.625000X0*%
%ADD22R,0.900000X1.500000*%
%ADD23R,0.900000X0.900000*%
%ADD24RoundRect,0.500000X1.000000X0.500000X-1.000000X0.500000X-1.000000X-0.500000X1.000000X-0.500000X0*%
%ADD25RoundRect,0.250000X-0.650000X0.412500X-0.650000X-0.412500X0.650000X-0.412500X0.650000X0.412500X0*%
G04 APERTURE END LIST*
D10*
X200826666Y-70304819D02*
X201159999Y-69828628D01*
X201398094Y-70304819D02*
X201398094Y-69304819D01*
X201398094Y-69304819D02*
X201017142Y-69304819D01*
X201017142Y-69304819D02*
X200921904Y-69352438D01*
X200921904Y-69352438D02*
X200874285Y-69400057D01*
X200874285Y-69400057D02*
X200826666Y-69495295D01*
X200826666Y-69495295D02*
X200826666Y-69638152D01*
X200826666Y-69638152D02*
X200874285Y-69733390D01*
X200874285Y-69733390D02*
X200921904Y-69781009D01*
X200921904Y-69781009D02*
X201017142Y-69828628D01*
X201017142Y-69828628D02*
X201398094Y-69828628D01*
X200255237Y-69733390D02*
X200350475Y-69685771D01*
X200350475Y-69685771D02*
X200398094Y-69638152D01*
X200398094Y-69638152D02*
X200445713Y-69542914D01*
X200445713Y-69542914D02*
X200445713Y-69495295D01*
X200445713Y-69495295D02*
X200398094Y-69400057D01*
X200398094Y-69400057D02*
X200350475Y-69352438D01*
X200350475Y-69352438D02*
X200255237Y-69304819D01*
X200255237Y-69304819D02*
X200064761Y-69304819D01*
X200064761Y-69304819D02*
X199969523Y-69352438D01*
X199969523Y-69352438D02*
X199921904Y-69400057D01*
X199921904Y-69400057D02*
X199874285Y-69495295D01*
X199874285Y-69495295D02*
X199874285Y-69542914D01*
X199874285Y-69542914D02*
X199921904Y-69638152D01*
X199921904Y-69638152D02*
X199969523Y-69685771D01*
X199969523Y-69685771D02*
X200064761Y-69733390D01*
X200064761Y-69733390D02*
X200255237Y-69733390D01*
X200255237Y-69733390D02*
X200350475Y-69781009D01*
X200350475Y-69781009D02*
X200398094Y-69828628D01*
X200398094Y-69828628D02*
X200445713Y-69923866D01*
X200445713Y-69923866D02*
X200445713Y-70114342D01*
X200445713Y-70114342D02*
X200398094Y-70209580D01*
X200398094Y-70209580D02*
X200350475Y-70257200D01*
X200350475Y-70257200D02*
X200255237Y-70304819D01*
X200255237Y-70304819D02*
X200064761Y-70304819D01*
X200064761Y-70304819D02*
X199969523Y-70257200D01*
X199969523Y-70257200D02*
X199921904Y-70209580D01*
X199921904Y-70209580D02*
X199874285Y-70114342D01*
X199874285Y-70114342D02*
X199874285Y-69923866D01*
X199874285Y-69923866D02*
X199921904Y-69828628D01*
X199921904Y-69828628D02*
X199969523Y-69781009D01*
X199969523Y-69781009D02*
X200064761Y-69733390D01*
X172886666Y-54429819D02*
X173219999Y-53953628D01*
X173458094Y-54429819D02*
X173458094Y-53429819D01*
X173458094Y-53429819D02*
X173077142Y-53429819D01*
X173077142Y-53429819D02*
X172981904Y-53477438D01*
X172981904Y-53477438D02*
X172934285Y-53525057D01*
X172934285Y-53525057D02*
X172886666Y-53620295D01*
X172886666Y-53620295D02*
X172886666Y-53763152D01*
X172886666Y-53763152D02*
X172934285Y-53858390D01*
X172934285Y-53858390D02*
X172981904Y-53906009D01*
X172981904Y-53906009D02*
X173077142Y-53953628D01*
X173077142Y-53953628D02*
X173458094Y-53953628D01*
X171934285Y-54429819D02*
X172505713Y-54429819D01*
X172219999Y-54429819D02*
X172219999Y-53429819D01*
X172219999Y-53429819D02*
X172315237Y-53572676D01*
X172315237Y-53572676D02*
X172410475Y-53667914D01*
X172410475Y-53667914D02*
X172505713Y-53715533D01*
X182411666Y-77924819D02*
X182744999Y-77448628D01*
X182983094Y-77924819D02*
X182983094Y-76924819D01*
X182983094Y-76924819D02*
X182602142Y-76924819D01*
X182602142Y-76924819D02*
X182506904Y-76972438D01*
X182506904Y-76972438D02*
X182459285Y-77020057D01*
X182459285Y-77020057D02*
X182411666Y-77115295D01*
X182411666Y-77115295D02*
X182411666Y-77258152D01*
X182411666Y-77258152D02*
X182459285Y-77353390D01*
X182459285Y-77353390D02*
X182506904Y-77401009D01*
X182506904Y-77401009D02*
X182602142Y-77448628D01*
X182602142Y-77448628D02*
X182983094Y-77448628D01*
X181554523Y-76924819D02*
X181744999Y-76924819D01*
X181744999Y-76924819D02*
X181840237Y-76972438D01*
X181840237Y-76972438D02*
X181887856Y-77020057D01*
X181887856Y-77020057D02*
X181983094Y-77162914D01*
X181983094Y-77162914D02*
X182030713Y-77353390D01*
X182030713Y-77353390D02*
X182030713Y-77734342D01*
X182030713Y-77734342D02*
X181983094Y-77829580D01*
X181983094Y-77829580D02*
X181935475Y-77877200D01*
X181935475Y-77877200D02*
X181840237Y-77924819D01*
X181840237Y-77924819D02*
X181649761Y-77924819D01*
X181649761Y-77924819D02*
X181554523Y-77877200D01*
X181554523Y-77877200D02*
X181506904Y-77829580D01*
X181506904Y-77829580D02*
X181459285Y-77734342D01*
X181459285Y-77734342D02*
X181459285Y-77496247D01*
X181459285Y-77496247D02*
X181506904Y-77401009D01*
X181506904Y-77401009D02*
X181554523Y-77353390D01*
X181554523Y-77353390D02*
X181649761Y-77305771D01*
X181649761Y-77305771D02*
X181840237Y-77305771D01*
X181840237Y-77305771D02*
X181935475Y-77353390D01*
X181935475Y-77353390D02*
X181983094Y-77401009D01*
X181983094Y-77401009D02*
X182030713Y-77496247D01*
X192571666Y-77829580D02*
X192619285Y-77877200D01*
X192619285Y-77877200D02*
X192762142Y-77924819D01*
X192762142Y-77924819D02*
X192857380Y-77924819D01*
X192857380Y-77924819D02*
X193000237Y-77877200D01*
X193000237Y-77877200D02*
X193095475Y-77781961D01*
X193095475Y-77781961D02*
X193143094Y-77686723D01*
X193143094Y-77686723D02*
X193190713Y-77496247D01*
X193190713Y-77496247D02*
X193190713Y-77353390D01*
X193190713Y-77353390D02*
X193143094Y-77162914D01*
X193143094Y-77162914D02*
X193095475Y-77067676D01*
X193095475Y-77067676D02*
X193000237Y-76972438D01*
X193000237Y-76972438D02*
X192857380Y-76924819D01*
X192857380Y-76924819D02*
X192762142Y-76924819D01*
X192762142Y-76924819D02*
X192619285Y-76972438D01*
X192619285Y-76972438D02*
X192571666Y-77020057D01*
X191714523Y-77258152D02*
X191714523Y-77924819D01*
X191952618Y-76877200D02*
X192190713Y-77591485D01*
X192190713Y-77591485D02*
X191571666Y-77591485D01*
X172886666Y-51159580D02*
X172934285Y-51207200D01*
X172934285Y-51207200D02*
X173077142Y-51254819D01*
X173077142Y-51254819D02*
X173172380Y-51254819D01*
X173172380Y-51254819D02*
X173315237Y-51207200D01*
X173315237Y-51207200D02*
X173410475Y-51111961D01*
X173410475Y-51111961D02*
X173458094Y-51016723D01*
X173458094Y-51016723D02*
X173505713Y-50826247D01*
X173505713Y-50826247D02*
X173505713Y-50683390D01*
X173505713Y-50683390D02*
X173458094Y-50492914D01*
X173458094Y-50492914D02*
X173410475Y-50397676D01*
X173410475Y-50397676D02*
X173315237Y-50302438D01*
X173315237Y-50302438D02*
X173172380Y-50254819D01*
X173172380Y-50254819D02*
X173077142Y-50254819D01*
X173077142Y-50254819D02*
X172934285Y-50302438D01*
X172934285Y-50302438D02*
X172886666Y-50350057D01*
X172315237Y-50683390D02*
X172410475Y-50635771D01*
X172410475Y-50635771D02*
X172458094Y-50588152D01*
X172458094Y-50588152D02*
X172505713Y-50492914D01*
X172505713Y-50492914D02*
X172505713Y-50445295D01*
X172505713Y-50445295D02*
X172458094Y-50350057D01*
X172458094Y-50350057D02*
X172410475Y-50302438D01*
X172410475Y-50302438D02*
X172315237Y-50254819D01*
X172315237Y-50254819D02*
X172124761Y-50254819D01*
X172124761Y-50254819D02*
X172029523Y-50302438D01*
X172029523Y-50302438D02*
X171981904Y-50350057D01*
X171981904Y-50350057D02*
X171934285Y-50445295D01*
X171934285Y-50445295D02*
X171934285Y-50492914D01*
X171934285Y-50492914D02*
X171981904Y-50588152D01*
X171981904Y-50588152D02*
X172029523Y-50635771D01*
X172029523Y-50635771D02*
X172124761Y-50683390D01*
X172124761Y-50683390D02*
X172315237Y-50683390D01*
X172315237Y-50683390D02*
X172410475Y-50731009D01*
X172410475Y-50731009D02*
X172458094Y-50778628D01*
X172458094Y-50778628D02*
X172505713Y-50873866D01*
X172505713Y-50873866D02*
X172505713Y-51064342D01*
X172505713Y-51064342D02*
X172458094Y-51159580D01*
X172458094Y-51159580D02*
X172410475Y-51207200D01*
X172410475Y-51207200D02*
X172315237Y-51254819D01*
X172315237Y-51254819D02*
X172124761Y-51254819D01*
X172124761Y-51254819D02*
X172029523Y-51207200D01*
X172029523Y-51207200D02*
X171981904Y-51159580D01*
X171981904Y-51159580D02*
X171934285Y-51064342D01*
X171934285Y-51064342D02*
X171934285Y-50873866D01*
X171934285Y-50873866D02*
X171981904Y-50778628D01*
X171981904Y-50778628D02*
X172029523Y-50731009D01*
X172029523Y-50731009D02*
X172124761Y-50683390D01*
X172886666Y-47984580D02*
X172934285Y-48032200D01*
X172934285Y-48032200D02*
X173077142Y-48079819D01*
X173077142Y-48079819D02*
X173172380Y-48079819D01*
X173172380Y-48079819D02*
X173315237Y-48032200D01*
X173315237Y-48032200D02*
X173410475Y-47936961D01*
X173410475Y-47936961D02*
X173458094Y-47841723D01*
X173458094Y-47841723D02*
X173505713Y-47651247D01*
X173505713Y-47651247D02*
X173505713Y-47508390D01*
X173505713Y-47508390D02*
X173458094Y-47317914D01*
X173458094Y-47317914D02*
X173410475Y-47222676D01*
X173410475Y-47222676D02*
X173315237Y-47127438D01*
X173315237Y-47127438D02*
X173172380Y-47079819D01*
X173172380Y-47079819D02*
X173077142Y-47079819D01*
X173077142Y-47079819D02*
X172934285Y-47127438D01*
X172934285Y-47127438D02*
X172886666Y-47175057D01*
X171981904Y-47079819D02*
X172458094Y-47079819D01*
X172458094Y-47079819D02*
X172505713Y-47556009D01*
X172505713Y-47556009D02*
X172458094Y-47508390D01*
X172458094Y-47508390D02*
X172362856Y-47460771D01*
X172362856Y-47460771D02*
X172124761Y-47460771D01*
X172124761Y-47460771D02*
X172029523Y-47508390D01*
X172029523Y-47508390D02*
X171981904Y-47556009D01*
X171981904Y-47556009D02*
X171934285Y-47651247D01*
X171934285Y-47651247D02*
X171934285Y-47889342D01*
X171934285Y-47889342D02*
X171981904Y-47984580D01*
X171981904Y-47984580D02*
X172029523Y-48032200D01*
X172029523Y-48032200D02*
X172124761Y-48079819D01*
X172124761Y-48079819D02*
X172362856Y-48079819D01*
X172362856Y-48079819D02*
X172458094Y-48032200D01*
X172458094Y-48032200D02*
X172505713Y-47984580D01*
D11*
X195675238Y-64687657D02*
X195770476Y-64640038D01*
X195770476Y-64640038D02*
X195865714Y-64544800D01*
X195865714Y-64544800D02*
X196008571Y-64401942D01*
X196008571Y-64401942D02*
X196103809Y-64354323D01*
X196103809Y-64354323D02*
X196199047Y-64354323D01*
X196151428Y-64592419D02*
X196246666Y-64544800D01*
X196246666Y-64544800D02*
X196341904Y-64449561D01*
X196341904Y-64449561D02*
X196389523Y-64259085D01*
X196389523Y-64259085D02*
X196389523Y-63925752D01*
X196389523Y-63925752D02*
X196341904Y-63735276D01*
X196341904Y-63735276D02*
X196246666Y-63640038D01*
X196246666Y-63640038D02*
X196151428Y-63592419D01*
X196151428Y-63592419D02*
X195960952Y-63592419D01*
X195960952Y-63592419D02*
X195865714Y-63640038D01*
X195865714Y-63640038D02*
X195770476Y-63735276D01*
X195770476Y-63735276D02*
X195722857Y-63925752D01*
X195722857Y-63925752D02*
X195722857Y-64259085D01*
X195722857Y-64259085D02*
X195770476Y-64449561D01*
X195770476Y-64449561D02*
X195865714Y-64544800D01*
X195865714Y-64544800D02*
X195960952Y-64592419D01*
X195960952Y-64592419D02*
X196151428Y-64592419D01*
X194770476Y-64592419D02*
X195341904Y-64592419D01*
X195056190Y-64592419D02*
X195056190Y-63592419D01*
X195056190Y-63592419D02*
X195151428Y-63735276D01*
X195151428Y-63735276D02*
X195246666Y-63830514D01*
X195246666Y-63830514D02*
X195341904Y-63878133D01*
D10*
X190031666Y-77924819D02*
X190364999Y-77448628D01*
X190603094Y-77924819D02*
X190603094Y-76924819D01*
X190603094Y-76924819D02*
X190222142Y-76924819D01*
X190222142Y-76924819D02*
X190126904Y-76972438D01*
X190126904Y-76972438D02*
X190079285Y-77020057D01*
X190079285Y-77020057D02*
X190031666Y-77115295D01*
X190031666Y-77115295D02*
X190031666Y-77258152D01*
X190031666Y-77258152D02*
X190079285Y-77353390D01*
X190079285Y-77353390D02*
X190126904Y-77401009D01*
X190126904Y-77401009D02*
X190222142Y-77448628D01*
X190222142Y-77448628D02*
X190603094Y-77448628D01*
X189698332Y-76924819D02*
X189079285Y-76924819D01*
X189079285Y-76924819D02*
X189412618Y-77305771D01*
X189412618Y-77305771D02*
X189269761Y-77305771D01*
X189269761Y-77305771D02*
X189174523Y-77353390D01*
X189174523Y-77353390D02*
X189126904Y-77401009D01*
X189126904Y-77401009D02*
X189079285Y-77496247D01*
X189079285Y-77496247D02*
X189079285Y-77734342D01*
X189079285Y-77734342D02*
X189126904Y-77829580D01*
X189126904Y-77829580D02*
X189174523Y-77877200D01*
X189174523Y-77877200D02*
X189269761Y-77924819D01*
X189269761Y-77924819D02*
X189555475Y-77924819D01*
X189555475Y-77924819D02*
X189650713Y-77877200D01*
X189650713Y-77877200D02*
X189698332Y-77829580D01*
X172886666Y-57509580D02*
X172934285Y-57557200D01*
X172934285Y-57557200D02*
X173077142Y-57604819D01*
X173077142Y-57604819D02*
X173172380Y-57604819D01*
X173172380Y-57604819D02*
X173315237Y-57557200D01*
X173315237Y-57557200D02*
X173410475Y-57461961D01*
X173410475Y-57461961D02*
X173458094Y-57366723D01*
X173458094Y-57366723D02*
X173505713Y-57176247D01*
X173505713Y-57176247D02*
X173505713Y-57033390D01*
X173505713Y-57033390D02*
X173458094Y-56842914D01*
X173458094Y-56842914D02*
X173410475Y-56747676D01*
X173410475Y-56747676D02*
X173315237Y-56652438D01*
X173315237Y-56652438D02*
X173172380Y-56604819D01*
X173172380Y-56604819D02*
X173077142Y-56604819D01*
X173077142Y-56604819D02*
X172934285Y-56652438D01*
X172934285Y-56652438D02*
X172886666Y-56700057D01*
X171934285Y-57604819D02*
X172505713Y-57604819D01*
X172219999Y-57604819D02*
X172219999Y-56604819D01*
X172219999Y-56604819D02*
X172315237Y-56747676D01*
X172315237Y-56747676D02*
X172410475Y-56842914D01*
X172410475Y-56842914D02*
X172505713Y-56890533D01*
D11*
X185546904Y-65497419D02*
X185546904Y-66306942D01*
X185546904Y-66306942D02*
X185499285Y-66402180D01*
X185499285Y-66402180D02*
X185451666Y-66449800D01*
X185451666Y-66449800D02*
X185356428Y-66497419D01*
X185356428Y-66497419D02*
X185165952Y-66497419D01*
X185165952Y-66497419D02*
X185070714Y-66449800D01*
X185070714Y-66449800D02*
X185023095Y-66402180D01*
X185023095Y-66402180D02*
X184975476Y-66306942D01*
X184975476Y-66306942D02*
X184975476Y-65497419D01*
X184594523Y-65497419D02*
X183927857Y-65497419D01*
X183927857Y-65497419D02*
X184356428Y-66497419D01*
D10*
X195111666Y-77829580D02*
X195159285Y-77877200D01*
X195159285Y-77877200D02*
X195302142Y-77924819D01*
X195302142Y-77924819D02*
X195397380Y-77924819D01*
X195397380Y-77924819D02*
X195540237Y-77877200D01*
X195540237Y-77877200D02*
X195635475Y-77781961D01*
X195635475Y-77781961D02*
X195683094Y-77686723D01*
X195683094Y-77686723D02*
X195730713Y-77496247D01*
X195730713Y-77496247D02*
X195730713Y-77353390D01*
X195730713Y-77353390D02*
X195683094Y-77162914D01*
X195683094Y-77162914D02*
X195635475Y-77067676D01*
X195635475Y-77067676D02*
X195540237Y-76972438D01*
X195540237Y-76972438D02*
X195397380Y-76924819D01*
X195397380Y-76924819D02*
X195302142Y-76924819D01*
X195302142Y-76924819D02*
X195159285Y-76972438D01*
X195159285Y-76972438D02*
X195111666Y-77020057D01*
X194730713Y-77020057D02*
X194683094Y-76972438D01*
X194683094Y-76972438D02*
X194587856Y-76924819D01*
X194587856Y-76924819D02*
X194349761Y-76924819D01*
X194349761Y-76924819D02*
X194254523Y-76972438D01*
X194254523Y-76972438D02*
X194206904Y-77020057D01*
X194206904Y-77020057D02*
X194159285Y-77115295D01*
X194159285Y-77115295D02*
X194159285Y-77210533D01*
X194159285Y-77210533D02*
X194206904Y-77353390D01*
X194206904Y-77353390D02*
X194778332Y-77924819D01*
X194778332Y-77924819D02*
X194159285Y-77924819D01*
X179609819Y-64603333D02*
X179133628Y-64270000D01*
X179609819Y-64031905D02*
X178609819Y-64031905D01*
X178609819Y-64031905D02*
X178609819Y-64412857D01*
X178609819Y-64412857D02*
X178657438Y-64508095D01*
X178657438Y-64508095D02*
X178705057Y-64555714D01*
X178705057Y-64555714D02*
X178800295Y-64603333D01*
X178800295Y-64603333D02*
X178943152Y-64603333D01*
X178943152Y-64603333D02*
X179038390Y-64555714D01*
X179038390Y-64555714D02*
X179086009Y-64508095D01*
X179086009Y-64508095D02*
X179133628Y-64412857D01*
X179133628Y-64412857D02*
X179133628Y-64031905D01*
X179609819Y-65079524D02*
X179609819Y-65270000D01*
X179609819Y-65270000D02*
X179562200Y-65365238D01*
X179562200Y-65365238D02*
X179514580Y-65412857D01*
X179514580Y-65412857D02*
X179371723Y-65508095D01*
X179371723Y-65508095D02*
X179181247Y-65555714D01*
X179181247Y-65555714D02*
X178800295Y-65555714D01*
X178800295Y-65555714D02*
X178705057Y-65508095D01*
X178705057Y-65508095D02*
X178657438Y-65460476D01*
X178657438Y-65460476D02*
X178609819Y-65365238D01*
X178609819Y-65365238D02*
X178609819Y-65174762D01*
X178609819Y-65174762D02*
X178657438Y-65079524D01*
X178657438Y-65079524D02*
X178705057Y-65031905D01*
X178705057Y-65031905D02*
X178800295Y-64984286D01*
X178800295Y-64984286D02*
X179038390Y-64984286D01*
X179038390Y-64984286D02*
X179133628Y-65031905D01*
X179133628Y-65031905D02*
X179181247Y-65079524D01*
X179181247Y-65079524D02*
X179228866Y-65174762D01*
X179228866Y-65174762D02*
X179228866Y-65365238D01*
X179228866Y-65365238D02*
X179181247Y-65460476D01*
X179181247Y-65460476D02*
X179133628Y-65508095D01*
X179133628Y-65508095D02*
X179038390Y-65555714D01*
X193801904Y-50254819D02*
X193801904Y-51064342D01*
X193801904Y-51064342D02*
X193754285Y-51159580D01*
X193754285Y-51159580D02*
X193706666Y-51207200D01*
X193706666Y-51207200D02*
X193611428Y-51254819D01*
X193611428Y-51254819D02*
X193420952Y-51254819D01*
X193420952Y-51254819D02*
X193325714Y-51207200D01*
X193325714Y-51207200D02*
X193278095Y-51159580D01*
X193278095Y-51159580D02*
X193230476Y-51064342D01*
X193230476Y-51064342D02*
X193230476Y-50254819D01*
X192801904Y-50350057D02*
X192754285Y-50302438D01*
X192754285Y-50302438D02*
X192659047Y-50254819D01*
X192659047Y-50254819D02*
X192420952Y-50254819D01*
X192420952Y-50254819D02*
X192325714Y-50302438D01*
X192325714Y-50302438D02*
X192278095Y-50350057D01*
X192278095Y-50350057D02*
X192230476Y-50445295D01*
X192230476Y-50445295D02*
X192230476Y-50540533D01*
X192230476Y-50540533D02*
X192278095Y-50683390D01*
X192278095Y-50683390D02*
X192849523Y-51254819D01*
X192849523Y-51254819D02*
X192230476Y-51254819D01*
X209475895Y-55061905D02*
X209475895Y-54585715D01*
X209190180Y-55157143D02*
X210190180Y-54823810D01*
X210190180Y-54823810D02*
X209190180Y-54490477D01*
X209856847Y-54157143D02*
X209190180Y-54157143D01*
X209761609Y-54157143D02*
X209809228Y-54109524D01*
X209809228Y-54109524D02*
X209856847Y-54014286D01*
X209856847Y-54014286D02*
X209856847Y-53871429D01*
X209856847Y-53871429D02*
X209809228Y-53776191D01*
X209809228Y-53776191D02*
X209713990Y-53728572D01*
X209713990Y-53728572D02*
X209190180Y-53728572D01*
X209856847Y-53395238D02*
X209856847Y-53014286D01*
X210190180Y-53252381D02*
X209333038Y-53252381D01*
X209333038Y-53252381D02*
X209237800Y-53204762D01*
X209237800Y-53204762D02*
X209190180Y-53109524D01*
X209190180Y-53109524D02*
X209190180Y-53014286D01*
X209237800Y-52300000D02*
X209190180Y-52395238D01*
X209190180Y-52395238D02*
X209190180Y-52585714D01*
X209190180Y-52585714D02*
X209237800Y-52680952D01*
X209237800Y-52680952D02*
X209333038Y-52728571D01*
X209333038Y-52728571D02*
X209713990Y-52728571D01*
X209713990Y-52728571D02*
X209809228Y-52680952D01*
X209809228Y-52680952D02*
X209856847Y-52585714D01*
X209856847Y-52585714D02*
X209856847Y-52395238D01*
X209856847Y-52395238D02*
X209809228Y-52300000D01*
X209809228Y-52300000D02*
X209713990Y-52252381D01*
X209713990Y-52252381D02*
X209618752Y-52252381D01*
X209618752Y-52252381D02*
X209523514Y-52728571D01*
X209856847Y-51823809D02*
X209190180Y-51823809D01*
X209761609Y-51823809D02*
X209809228Y-51776190D01*
X209809228Y-51776190D02*
X209856847Y-51680952D01*
X209856847Y-51680952D02*
X209856847Y-51538095D01*
X209856847Y-51538095D02*
X209809228Y-51442857D01*
X209809228Y-51442857D02*
X209713990Y-51395238D01*
X209713990Y-51395238D02*
X209190180Y-51395238D01*
X209856847Y-50919047D02*
X209190180Y-50919047D01*
X209761609Y-50919047D02*
X209809228Y-50871428D01*
X209809228Y-50871428D02*
X209856847Y-50776190D01*
X209856847Y-50776190D02*
X209856847Y-50633333D01*
X209856847Y-50633333D02*
X209809228Y-50538095D01*
X209809228Y-50538095D02*
X209713990Y-50490476D01*
X209713990Y-50490476D02*
X209190180Y-50490476D01*
X209190180Y-49585714D02*
X209713990Y-49585714D01*
X209713990Y-49585714D02*
X209809228Y-49633333D01*
X209809228Y-49633333D02*
X209856847Y-49728571D01*
X209856847Y-49728571D02*
X209856847Y-49919047D01*
X209856847Y-49919047D02*
X209809228Y-50014285D01*
X209237800Y-49585714D02*
X209190180Y-49680952D01*
X209190180Y-49680952D02*
X209190180Y-49919047D01*
X209190180Y-49919047D02*
X209237800Y-50014285D01*
X209237800Y-50014285D02*
X209333038Y-50061904D01*
X209333038Y-50061904D02*
X209428276Y-50061904D01*
X209428276Y-50061904D02*
X209523514Y-50014285D01*
X209523514Y-50014285D02*
X209571133Y-49919047D01*
X209571133Y-49919047D02*
X209571133Y-49680952D01*
X209571133Y-49680952D02*
X209618752Y-49585714D01*
X209475895Y-48395237D02*
X209475895Y-47919047D01*
X209190180Y-48490475D02*
X210190180Y-48157142D01*
X210190180Y-48157142D02*
X209190180Y-47823809D01*
X209190180Y-47490475D02*
X209856847Y-47490475D01*
X209666371Y-47490475D02*
X209761609Y-47442856D01*
X209761609Y-47442856D02*
X209809228Y-47395237D01*
X209809228Y-47395237D02*
X209856847Y-47299999D01*
X209856847Y-47299999D02*
X209856847Y-47204761D01*
X209237800Y-46490475D02*
X209190180Y-46585713D01*
X209190180Y-46585713D02*
X209190180Y-46776189D01*
X209190180Y-46776189D02*
X209237800Y-46871427D01*
X209237800Y-46871427D02*
X209333038Y-46919046D01*
X209333038Y-46919046D02*
X209713990Y-46919046D01*
X209713990Y-46919046D02*
X209809228Y-46871427D01*
X209809228Y-46871427D02*
X209856847Y-46776189D01*
X209856847Y-46776189D02*
X209856847Y-46585713D01*
X209856847Y-46585713D02*
X209809228Y-46490475D01*
X209809228Y-46490475D02*
X209713990Y-46442856D01*
X209713990Y-46442856D02*
X209618752Y-46442856D01*
X209618752Y-46442856D02*
X209523514Y-46919046D01*
X209190180Y-45585713D02*
X209713990Y-45585713D01*
X209713990Y-45585713D02*
X209809228Y-45633332D01*
X209809228Y-45633332D02*
X209856847Y-45728570D01*
X209856847Y-45728570D02*
X209856847Y-45919046D01*
X209856847Y-45919046D02*
X209809228Y-46014284D01*
X209237800Y-45585713D02*
X209190180Y-45680951D01*
X209190180Y-45680951D02*
X209190180Y-45919046D01*
X209190180Y-45919046D02*
X209237800Y-46014284D01*
X209237800Y-46014284D02*
X209333038Y-46061903D01*
X209333038Y-46061903D02*
X209428276Y-46061903D01*
X209428276Y-46061903D02*
X209523514Y-46014284D01*
X209523514Y-46014284D02*
X209571133Y-45919046D01*
X209571133Y-45919046D02*
X209571133Y-45680951D01*
X209571133Y-45680951D02*
X209618752Y-45585713D01*
X193206666Y-70304819D02*
X193539999Y-69828628D01*
X193778094Y-70304819D02*
X193778094Y-69304819D01*
X193778094Y-69304819D02*
X193397142Y-69304819D01*
X193397142Y-69304819D02*
X193301904Y-69352438D01*
X193301904Y-69352438D02*
X193254285Y-69400057D01*
X193254285Y-69400057D02*
X193206666Y-69495295D01*
X193206666Y-69495295D02*
X193206666Y-69638152D01*
X193206666Y-69638152D02*
X193254285Y-69733390D01*
X193254285Y-69733390D02*
X193301904Y-69781009D01*
X193301904Y-69781009D02*
X193397142Y-69828628D01*
X193397142Y-69828628D02*
X193778094Y-69828628D01*
X192873332Y-69304819D02*
X192206666Y-69304819D01*
X192206666Y-69304819D02*
X192635237Y-70304819D01*
X179871666Y-77924819D02*
X180204999Y-77448628D01*
X180443094Y-77924819D02*
X180443094Y-76924819D01*
X180443094Y-76924819D02*
X180062142Y-76924819D01*
X180062142Y-76924819D02*
X179966904Y-76972438D01*
X179966904Y-76972438D02*
X179919285Y-77020057D01*
X179919285Y-77020057D02*
X179871666Y-77115295D01*
X179871666Y-77115295D02*
X179871666Y-77258152D01*
X179871666Y-77258152D02*
X179919285Y-77353390D01*
X179919285Y-77353390D02*
X179966904Y-77401009D01*
X179966904Y-77401009D02*
X180062142Y-77448628D01*
X180062142Y-77448628D02*
X180443094Y-77448628D01*
X178966904Y-76924819D02*
X179443094Y-76924819D01*
X179443094Y-76924819D02*
X179490713Y-77401009D01*
X179490713Y-77401009D02*
X179443094Y-77353390D01*
X179443094Y-77353390D02*
X179347856Y-77305771D01*
X179347856Y-77305771D02*
X179109761Y-77305771D01*
X179109761Y-77305771D02*
X179014523Y-77353390D01*
X179014523Y-77353390D02*
X178966904Y-77401009D01*
X178966904Y-77401009D02*
X178919285Y-77496247D01*
X178919285Y-77496247D02*
X178919285Y-77734342D01*
X178919285Y-77734342D02*
X178966904Y-77829580D01*
X178966904Y-77829580D02*
X179014523Y-77877200D01*
X179014523Y-77877200D02*
X179109761Y-77924819D01*
X179109761Y-77924819D02*
X179347856Y-77924819D01*
X179347856Y-77924819D02*
X179443094Y-77877200D01*
X179443094Y-77877200D02*
X179490713Y-77829580D01*
X184951666Y-77924819D02*
X185284999Y-77448628D01*
X185523094Y-77924819D02*
X185523094Y-76924819D01*
X185523094Y-76924819D02*
X185142142Y-76924819D01*
X185142142Y-76924819D02*
X185046904Y-76972438D01*
X185046904Y-76972438D02*
X184999285Y-77020057D01*
X184999285Y-77020057D02*
X184951666Y-77115295D01*
X184951666Y-77115295D02*
X184951666Y-77258152D01*
X184951666Y-77258152D02*
X184999285Y-77353390D01*
X184999285Y-77353390D02*
X185046904Y-77401009D01*
X185046904Y-77401009D02*
X185142142Y-77448628D01*
X185142142Y-77448628D02*
X185523094Y-77448628D01*
X184094523Y-77258152D02*
X184094523Y-77924819D01*
X184332618Y-76877200D02*
X184570713Y-77591485D01*
X184570713Y-77591485D02*
X183951666Y-77591485D01*
X172886666Y-44904819D02*
X173219999Y-44428628D01*
X173458094Y-44904819D02*
X173458094Y-43904819D01*
X173458094Y-43904819D02*
X173077142Y-43904819D01*
X173077142Y-43904819D02*
X172981904Y-43952438D01*
X172981904Y-43952438D02*
X172934285Y-44000057D01*
X172934285Y-44000057D02*
X172886666Y-44095295D01*
X172886666Y-44095295D02*
X172886666Y-44238152D01*
X172886666Y-44238152D02*
X172934285Y-44333390D01*
X172934285Y-44333390D02*
X172981904Y-44381009D01*
X172981904Y-44381009D02*
X173077142Y-44428628D01*
X173077142Y-44428628D02*
X173458094Y-44428628D01*
X172505713Y-44000057D02*
X172458094Y-43952438D01*
X172458094Y-43952438D02*
X172362856Y-43904819D01*
X172362856Y-43904819D02*
X172124761Y-43904819D01*
X172124761Y-43904819D02*
X172029523Y-43952438D01*
X172029523Y-43952438D02*
X171981904Y-44000057D01*
X171981904Y-44000057D02*
X171934285Y-44095295D01*
X171934285Y-44095295D02*
X171934285Y-44190533D01*
X171934285Y-44190533D02*
X171981904Y-44333390D01*
X171981904Y-44333390D02*
X172553332Y-44904819D01*
X172553332Y-44904819D02*
X171934285Y-44904819D01*
D11*
X175180476Y-64910038D02*
X175275714Y-64862419D01*
X175275714Y-64862419D02*
X175418571Y-64862419D01*
X175418571Y-64862419D02*
X175561428Y-64910038D01*
X175561428Y-64910038D02*
X175656666Y-65005276D01*
X175656666Y-65005276D02*
X175704285Y-65100514D01*
X175704285Y-65100514D02*
X175751904Y-65290990D01*
X175751904Y-65290990D02*
X175751904Y-65433847D01*
X175751904Y-65433847D02*
X175704285Y-65624323D01*
X175704285Y-65624323D02*
X175656666Y-65719561D01*
X175656666Y-65719561D02*
X175561428Y-65814800D01*
X175561428Y-65814800D02*
X175418571Y-65862419D01*
X175418571Y-65862419D02*
X175323333Y-65862419D01*
X175323333Y-65862419D02*
X175180476Y-65814800D01*
X175180476Y-65814800D02*
X175132857Y-65767180D01*
X175132857Y-65767180D02*
X175132857Y-65433847D01*
X175132857Y-65433847D02*
X175323333Y-65433847D01*
X174704285Y-65338609D02*
X174370952Y-65338609D01*
X174228095Y-65862419D02*
X174704285Y-65862419D01*
X174704285Y-65862419D02*
X174704285Y-64862419D01*
X174704285Y-64862419D02*
X174228095Y-64862419D01*
X173799523Y-65862419D02*
X173799523Y-64862419D01*
X173799523Y-64862419D02*
X173228095Y-65862419D01*
X173228095Y-65862419D02*
X173228095Y-64862419D01*
X172228095Y-65862419D02*
X172799523Y-65862419D01*
X172513809Y-65862419D02*
X172513809Y-64862419D01*
X172513809Y-64862419D02*
X172609047Y-65005276D01*
X172609047Y-65005276D02*
X172704285Y-65100514D01*
X172704285Y-65100514D02*
X172799523Y-65148133D01*
D10*
X187491666Y-77829580D02*
X187539285Y-77877200D01*
X187539285Y-77877200D02*
X187682142Y-77924819D01*
X187682142Y-77924819D02*
X187777380Y-77924819D01*
X187777380Y-77924819D02*
X187920237Y-77877200D01*
X187920237Y-77877200D02*
X188015475Y-77781961D01*
X188015475Y-77781961D02*
X188063094Y-77686723D01*
X188063094Y-77686723D02*
X188110713Y-77496247D01*
X188110713Y-77496247D02*
X188110713Y-77353390D01*
X188110713Y-77353390D02*
X188063094Y-77162914D01*
X188063094Y-77162914D02*
X188015475Y-77067676D01*
X188015475Y-77067676D02*
X187920237Y-76972438D01*
X187920237Y-76972438D02*
X187777380Y-76924819D01*
X187777380Y-76924819D02*
X187682142Y-76924819D01*
X187682142Y-76924819D02*
X187539285Y-76972438D01*
X187539285Y-76972438D02*
X187491666Y-77020057D01*
X187158332Y-76924819D02*
X186539285Y-76924819D01*
X186539285Y-76924819D02*
X186872618Y-77305771D01*
X186872618Y-77305771D02*
X186729761Y-77305771D01*
X186729761Y-77305771D02*
X186634523Y-77353390D01*
X186634523Y-77353390D02*
X186586904Y-77401009D01*
X186586904Y-77401009D02*
X186539285Y-77496247D01*
X186539285Y-77496247D02*
X186539285Y-77734342D01*
X186539285Y-77734342D02*
X186586904Y-77829580D01*
X186586904Y-77829580D02*
X186634523Y-77877200D01*
X186634523Y-77877200D02*
X186729761Y-77924819D01*
X186729761Y-77924819D02*
X187015475Y-77924819D01*
X187015475Y-77924819D02*
X187110713Y-77877200D01*
X187110713Y-77877200D02*
X187158332Y-77829580D01*
D12*
%TO.C,R8*%
X199932936Y-67035000D02*
X201387064Y-67035000D01*
X199932936Y-68855000D02*
X201387064Y-68855000D01*
%TO.C,R1*%
X175802936Y-53065000D02*
X177257064Y-53065000D01*
X175802936Y-54885000D02*
X177257064Y-54885000D01*
%TO.C,R6*%
X181335000Y-74387064D02*
X181335000Y-72932936D01*
X183155000Y-74387064D02*
X183155000Y-72932936D01*
%TO.C,C4*%
X191495000Y-72948748D02*
X191495000Y-74371252D01*
X193315000Y-72948748D02*
X193315000Y-74371252D01*
%TO.C,C8*%
X175818748Y-49890000D02*
X177241252Y-49890000D01*
X175818748Y-51710000D02*
X177241252Y-51710000D01*
%TO.C,C5*%
X177241252Y-46715000D02*
X175818748Y-46715000D01*
X177241252Y-48535000D02*
X175818748Y-48535000D01*
%TO.C,Q1*%
D11*
X190905000Y-64885000D02*
X193905000Y-64885000D01*
X193905000Y-63385000D01*
X190905000Y-63385000D01*
X190905000Y-64885000D01*
D12*
%TO.C,R3*%
X188955000Y-72932936D02*
X188955000Y-74387064D01*
X190775000Y-72932936D02*
X190775000Y-74387064D01*
%TO.C,C1*%
X175818748Y-56240000D02*
X177241252Y-56240000D01*
X175818748Y-58060000D02*
X177241252Y-58060000D01*
%TO.C,C2*%
X194035000Y-72948748D02*
X194035000Y-74371252D01*
X195855000Y-72948748D02*
X195855000Y-74371252D01*
%TO.C,R9*%
X181885000Y-65497064D02*
X181885000Y-64042936D01*
X180065000Y-65497064D02*
X180065000Y-64042936D01*
%TO.C,U2*%
X181145000Y-41800000D02*
X181145000Y-59800000D01*
X181500000Y-41800000D02*
X181145000Y-41800000D01*
X181500000Y-59800000D02*
X181145000Y-59800000D01*
X205750000Y-41800000D02*
X212500000Y-41800000D01*
X205750000Y-59800000D02*
X212545000Y-59800000D01*
X206235000Y-41800000D02*
X206235000Y-59800000D01*
X212545000Y-59800000D02*
X212545000Y-41800000D01*
%TO.C,R7*%
X192312936Y-67035000D02*
X193767064Y-67035000D01*
X192312936Y-68855000D02*
X193767064Y-68855000D01*
%TO.C,R5*%
X178795000Y-74387064D02*
X178795000Y-72932936D01*
X180615000Y-74387064D02*
X180615000Y-72932936D01*
%TO.C,R4*%
X183875000Y-72932936D02*
X183875000Y-74387064D01*
X185695000Y-72932936D02*
X185695000Y-74387064D01*
%TO.C,R2*%
X175802936Y-43540000D02*
X177257064Y-43540000D01*
X175802936Y-45360000D02*
X177257064Y-45360000D01*
%TO.C,GEN1*%
D11*
X176990000Y-62405000D02*
X170990000Y-62405000D01*
X170990000Y-68405000D01*
X176990000Y-68405000D01*
X176990000Y-62405000D01*
D12*
%TO.C,C3*%
X186415000Y-74371252D02*
X186415000Y-72948748D01*
X188235000Y-74371252D02*
X188235000Y-72948748D01*
%TD*%
%LPC*%
D13*
%TO.C,U1*%
X194945000Y-39370000D03*
X192405000Y-39370000D03*
X189865000Y-39370000D03*
X187325000Y-39370000D03*
X184785000Y-39370000D03*
X182245000Y-39370000D03*
X179705000Y-39370000D03*
%TD*%
D14*
%TO.C,R8*%
X202210000Y-67945000D03*
X199110000Y-67945000D03*
%TD*%
%TO.C,R1*%
X178080000Y-53975000D03*
X174980000Y-53975000D03*
%TD*%
D15*
%TO.C,R6*%
X182245000Y-72110000D03*
X182245000Y-75210000D03*
%TD*%
D16*
%TO.C,C4*%
X192405000Y-75222500D03*
X192405000Y-72097500D03*
%TD*%
D17*
%TO.C,C8*%
X178092500Y-50800000D03*
X174967500Y-50800000D03*
%TD*%
D18*
%TO.C,C5*%
X174967500Y-47625000D03*
X178092500Y-47625000D03*
%TD*%
D19*
%TO.C,Q1*%
X191455000Y-65135000D03*
X193355000Y-65135000D03*
X192405000Y-63135000D03*
%TD*%
D20*
%TO.C,R3*%
X189865000Y-75210000D03*
X189865000Y-72110000D03*
%TD*%
D17*
%TO.C,C1*%
X178092500Y-57150000D03*
X174967500Y-57150000D03*
%TD*%
D21*
%TO.C,U7*%
X187325000Y-64040000D03*
X187325000Y-68040000D03*
%TD*%
D16*
%TO.C,C2*%
X194945000Y-75222500D03*
X194945000Y-72097500D03*
%TD*%
D15*
%TO.C,R9*%
X180975000Y-66320000D03*
X180975000Y-63220000D03*
%TD*%
D22*
%TO.C,U2*%
X205105000Y-59550000D03*
X203835000Y-59550000D03*
X202565000Y-59550000D03*
X201295000Y-59550000D03*
X200025000Y-59550000D03*
X198755000Y-59550000D03*
X197485000Y-59550000D03*
X196215000Y-59550000D03*
X194945000Y-59550000D03*
X193675000Y-59550000D03*
X192405000Y-59550000D03*
X191135000Y-59550000D03*
X189865000Y-59550000D03*
X188595000Y-59550000D03*
X187325000Y-59550000D03*
X186055000Y-59550000D03*
X184785000Y-59550000D03*
X183515000Y-59550000D03*
X182245000Y-59550000D03*
X182245000Y-42050000D03*
X183515000Y-42050000D03*
X184785000Y-42050000D03*
X186055000Y-42050000D03*
X187325000Y-42050000D03*
X188595000Y-42050000D03*
X189865000Y-42050000D03*
X191135000Y-42050000D03*
X192405000Y-42050000D03*
X193675000Y-42050000D03*
X194945000Y-42050000D03*
X196215000Y-42050000D03*
X197485000Y-42050000D03*
X198755000Y-42050000D03*
X200025000Y-42050000D03*
X201295000Y-42050000D03*
X202565000Y-42050000D03*
X203835000Y-42050000D03*
X205105000Y-42050000D03*
D23*
X198710000Y-53705000D03*
X195910000Y-53700000D03*
X197310000Y-53700000D03*
X195910000Y-52300000D03*
X197310000Y-52300000D03*
X198710000Y-52300000D03*
X195910000Y-50900000D03*
X197310000Y-50900000D03*
X198710000Y-50900000D03*
%TD*%
D14*
%TO.C,R7*%
X194590000Y-67945000D03*
X191490000Y-67945000D03*
%TD*%
D15*
%TO.C,R5*%
X179705000Y-72110000D03*
X179705000Y-75210000D03*
%TD*%
D20*
%TO.C,R4*%
X184785000Y-75210000D03*
X184785000Y-72110000D03*
%TD*%
D14*
%TO.C,R2*%
X178080000Y-44450000D03*
X174980000Y-44450000D03*
%TD*%
D24*
%TO.C,GEN1*%
X170490000Y-67905000D03*
X177490000Y-67905000D03*
X170490000Y-62905000D03*
X177490000Y-62905000D03*
%TD*%
D25*
%TO.C,C3*%
X187325000Y-72097500D03*
X187325000Y-75222500D03*
%TD*%
%LPD*%
M02*
