%TF.GenerationSoftware,KiCad,Pcbnew,8.0.6*%
%TF.CreationDate,2025-02-18T21:24:49-05:00*%
%TF.ProjectId,Camera,43616d65-7261-42e6-9b69-6361645f7063,rev?*%
%TF.SameCoordinates,Original*%
%TF.FileFunction,Drillmap*%
%TF.FilePolarity,Positive*%
%FSLAX45Y45*%
G04 Gerber Fmt 4.5, Leading zero omitted, Abs format (unit mm)*
G04 Created by KiCad (PCBNEW 8.0.6) date 2025-02-18 21:24:49*
%MOMM*%
%LPD*%
G01*
G04 APERTURE LIST*
%ADD10C,0.100000*%
%ADD11C,0.200000*%
G04 APERTURE END LIST*
D10*
X16764000Y-3683000D02*
X20701000Y-3683000D01*
X17780000Y-7874000D02*
X19685000Y-7874000D01*
X20701000Y-6858000D02*
X19685000Y-7874000D01*
X20701000Y-6858000D02*
X20701000Y-3683000D01*
X16764000Y-6858000D02*
X16764000Y-3683000D01*
X17780000Y-7874000D02*
X16764000Y-6858000D01*
D11*
D10*
X17035000Y-5785000D02*
X17065000Y-5815000D01*
X17065000Y-5785000D02*
X17035000Y-5815000D01*
X17135000Y-5735000D02*
X17165000Y-5765000D01*
X17165000Y-5735000D02*
X17135000Y-5765000D01*
X17235000Y-5635000D02*
X17265000Y-5665000D01*
X17265000Y-5635000D02*
X17235000Y-5665000D01*
X17635000Y-4585000D02*
X17665000Y-4615000D01*
X17665000Y-4585000D02*
X17635000Y-4615000D01*
X17935000Y-7035000D02*
X17965000Y-7065000D01*
X17965000Y-7035000D02*
X17935000Y-7065000D01*
X17985000Y-4335000D02*
X18015000Y-4365000D01*
X18015000Y-4335000D02*
X17985000Y-4365000D01*
X18035000Y-6985000D02*
X18065000Y-7015000D01*
X18065000Y-6985000D02*
X18035000Y-7015000D01*
X18135000Y-6785000D02*
X18165000Y-6815000D01*
X18165000Y-6785000D02*
X18135000Y-6815000D01*
X18135000Y-7085000D02*
X18165000Y-7115000D01*
X18165000Y-7085000D02*
X18135000Y-7115000D01*
X18235000Y-4535000D02*
X18265000Y-4565000D01*
X18265000Y-4535000D02*
X18235000Y-4565000D01*
X18235000Y-5535000D02*
X18265000Y-5565000D01*
X18265000Y-5535000D02*
X18235000Y-5565000D01*
X18235000Y-7385000D02*
X18265000Y-7415000D01*
X18265000Y-7385000D02*
X18235000Y-7415000D01*
X18335000Y-4535000D02*
X18365000Y-4565000D01*
X18365000Y-4535000D02*
X18335000Y-4565000D01*
X18335000Y-4635000D02*
X18365000Y-4665000D01*
X18365000Y-4635000D02*
X18335000Y-4665000D01*
X18335000Y-5535000D02*
X18365000Y-5565000D01*
X18365000Y-5535000D02*
X18335000Y-5565000D01*
X18342500Y-7385000D02*
X18372500Y-7415000D01*
X18372500Y-7385000D02*
X18342500Y-7415000D01*
X18435000Y-7735000D02*
X18465000Y-7765000D01*
X18465000Y-7735000D02*
X18435000Y-7765000D01*
X18535000Y-7735000D02*
X18565000Y-7765000D01*
X18565000Y-7735000D02*
X18535000Y-7765000D01*
X18585000Y-7385000D02*
X18615000Y-7415000D01*
X18615000Y-7385000D02*
X18585000Y-7415000D01*
X18717500Y-6102500D02*
X18747500Y-6132500D01*
X18747500Y-6102500D02*
X18717500Y-6132500D01*
X18785000Y-7035000D02*
X18815000Y-7065000D01*
X18815000Y-7035000D02*
X18785000Y-7065000D01*
X18935000Y-4435000D02*
X18965000Y-4465000D01*
X18965000Y-4435000D02*
X18935000Y-4465000D01*
X19035000Y-5785000D02*
X19065000Y-5815000D01*
X19065000Y-5785000D02*
X19035000Y-5815000D01*
X19135000Y-5735000D02*
X19165000Y-5765000D01*
X19165000Y-5735000D02*
X19135000Y-5765000D01*
X19285000Y-6635000D02*
X19315000Y-6665000D01*
X19315000Y-6635000D02*
X19285000Y-6665000D01*
X19385000Y-7635000D02*
X19415000Y-7665000D01*
X19415000Y-7635000D02*
X19385000Y-7665000D01*
X19435000Y-7035000D02*
X19465000Y-7065000D01*
X19465000Y-7035000D02*
X19435000Y-7065000D01*
X19585000Y-6085000D02*
X19615000Y-6115000D01*
X19615000Y-6085000D02*
X19585000Y-6115000D01*
X19635000Y-6535000D02*
X19665000Y-6565000D01*
X19665000Y-6535000D02*
X19635000Y-6565000D01*
X19785000Y-5635000D02*
X19815000Y-5665000D01*
X19815000Y-5635000D02*
X19785000Y-5665000D01*
X19785000Y-6485000D02*
X19815000Y-6515000D01*
X19815000Y-6485000D02*
X19785000Y-6515000D01*
X19935000Y-5785000D02*
X19965000Y-5815000D01*
X19965000Y-5785000D02*
X19935000Y-5815000D01*
X20285000Y-6535000D02*
X20315000Y-6565000D01*
X20315000Y-6535000D02*
X20285000Y-6565000D01*
X20335000Y-4035000D02*
X20365000Y-4065000D01*
X20365000Y-4035000D02*
X20335000Y-4065000D01*
X20435000Y-6135000D02*
X20465000Y-6165000D01*
X20465000Y-6135000D02*
X20435000Y-6165000D01*
X20495500Y-4935000D02*
X20525500Y-4965000D01*
X20525500Y-4935000D02*
X20495500Y-4965000D01*
X20495500Y-5635000D02*
X20525500Y-5665000D01*
X20525500Y-5635000D02*
X20495500Y-5665000D01*
X18008600Y-3937000D02*
G75*
G02*
X17932400Y-3937000I-38100J0D01*
G01*
X17932400Y-3937000D02*
G75*
G02*
X18008600Y-3937000I38100J0D01*
G01*
X18262600Y-3937000D02*
G75*
G02*
X18186400Y-3937000I-38100J0D01*
G01*
X18186400Y-3937000D02*
G75*
G02*
X18262600Y-3937000I38100J0D01*
G01*
X18516600Y-3937000D02*
G75*
G02*
X18440400Y-3937000I-38100J0D01*
G01*
X18440400Y-3937000D02*
G75*
G02*
X18516600Y-3937000I38100J0D01*
G01*
X18770600Y-3937000D02*
G75*
G02*
X18694400Y-3937000I-38100J0D01*
G01*
X18694400Y-3937000D02*
G75*
G02*
X18770600Y-3937000I38100J0D01*
G01*
X19024600Y-3937000D02*
G75*
G02*
X18948400Y-3937000I-38100J0D01*
G01*
X18948400Y-3937000D02*
G75*
G02*
X19024600Y-3937000I38100J0D01*
G01*
X19278600Y-3937000D02*
G75*
G02*
X19202400Y-3937000I-38100J0D01*
G01*
X19202400Y-3937000D02*
G75*
G02*
X19278600Y-3937000I38100J0D01*
G01*
X19532600Y-3937000D02*
G75*
G02*
X19456400Y-3937000I-38100J0D01*
G01*
X19456400Y-3937000D02*
G75*
G02*
X19532600Y-3937000I38100J0D01*
G01*
D11*
X17019777Y-8190484D02*
X17019777Y-7990484D01*
X17019777Y-7990484D02*
X17067396Y-7990484D01*
X17067396Y-7990484D02*
X17095967Y-8000008D01*
X17095967Y-8000008D02*
X17115015Y-8019055D01*
X17115015Y-8019055D02*
X17124539Y-8038103D01*
X17124539Y-8038103D02*
X17134063Y-8076198D01*
X17134063Y-8076198D02*
X17134063Y-8104769D01*
X17134063Y-8104769D02*
X17124539Y-8142865D01*
X17124539Y-8142865D02*
X17115015Y-8161912D01*
X17115015Y-8161912D02*
X17095967Y-8180960D01*
X17095967Y-8180960D02*
X17067396Y-8190484D01*
X17067396Y-8190484D02*
X17019777Y-8190484D01*
X17219777Y-8190484D02*
X17219777Y-8057150D01*
X17219777Y-8095246D02*
X17229301Y-8076198D01*
X17229301Y-8076198D02*
X17238824Y-8066674D01*
X17238824Y-8066674D02*
X17257872Y-8057150D01*
X17257872Y-8057150D02*
X17276920Y-8057150D01*
X17343586Y-8190484D02*
X17343586Y-8057150D01*
X17343586Y-7990484D02*
X17334063Y-8000008D01*
X17334063Y-8000008D02*
X17343586Y-8009531D01*
X17343586Y-8009531D02*
X17353110Y-8000008D01*
X17353110Y-8000008D02*
X17343586Y-7990484D01*
X17343586Y-7990484D02*
X17343586Y-8009531D01*
X17467396Y-8190484D02*
X17448348Y-8180960D01*
X17448348Y-8180960D02*
X17438824Y-8161912D01*
X17438824Y-8161912D02*
X17438824Y-7990484D01*
X17572158Y-8190484D02*
X17553110Y-8180960D01*
X17553110Y-8180960D02*
X17543586Y-8161912D01*
X17543586Y-8161912D02*
X17543586Y-7990484D01*
X17800729Y-8190484D02*
X17800729Y-7990484D01*
X17800729Y-7990484D02*
X17867396Y-8133341D01*
X17867396Y-8133341D02*
X17934063Y-7990484D01*
X17934063Y-7990484D02*
X17934063Y-8190484D01*
X18115015Y-8190484D02*
X18115015Y-8085722D01*
X18115015Y-8085722D02*
X18105491Y-8066674D01*
X18105491Y-8066674D02*
X18086444Y-8057150D01*
X18086444Y-8057150D02*
X18048348Y-8057150D01*
X18048348Y-8057150D02*
X18029301Y-8066674D01*
X18115015Y-8180960D02*
X18095967Y-8190484D01*
X18095967Y-8190484D02*
X18048348Y-8190484D01*
X18048348Y-8190484D02*
X18029301Y-8180960D01*
X18029301Y-8180960D02*
X18019777Y-8161912D01*
X18019777Y-8161912D02*
X18019777Y-8142865D01*
X18019777Y-8142865D02*
X18029301Y-8123817D01*
X18029301Y-8123817D02*
X18048348Y-8114293D01*
X18048348Y-8114293D02*
X18095967Y-8114293D01*
X18095967Y-8114293D02*
X18115015Y-8104769D01*
X18210253Y-8057150D02*
X18210253Y-8257150D01*
X18210253Y-8066674D02*
X18229301Y-8057150D01*
X18229301Y-8057150D02*
X18267396Y-8057150D01*
X18267396Y-8057150D02*
X18286444Y-8066674D01*
X18286444Y-8066674D02*
X18295967Y-8076198D01*
X18295967Y-8076198D02*
X18305491Y-8095246D01*
X18305491Y-8095246D02*
X18305491Y-8152388D01*
X18305491Y-8152388D02*
X18295967Y-8171436D01*
X18295967Y-8171436D02*
X18286444Y-8180960D01*
X18286444Y-8180960D02*
X18267396Y-8190484D01*
X18267396Y-8190484D02*
X18229301Y-8190484D01*
X18229301Y-8190484D02*
X18210253Y-8180960D01*
X18391205Y-8171436D02*
X18400729Y-8180960D01*
X18400729Y-8180960D02*
X18391205Y-8190484D01*
X18391205Y-8190484D02*
X18381682Y-8180960D01*
X18381682Y-8180960D02*
X18391205Y-8171436D01*
X18391205Y-8171436D02*
X18391205Y-8190484D01*
X18391205Y-8066674D02*
X18400729Y-8076198D01*
X18400729Y-8076198D02*
X18391205Y-8085722D01*
X18391205Y-8085722D02*
X18381682Y-8076198D01*
X18381682Y-8076198D02*
X18391205Y-8066674D01*
X18391205Y-8066674D02*
X18391205Y-8085722D01*
D10*
X16729000Y-8504000D02*
X16759000Y-8534000D01*
X16759000Y-8504000D02*
X16729000Y-8534000D01*
D11*
X17057872Y-8410484D02*
X17076920Y-8410484D01*
X17076920Y-8410484D02*
X17095967Y-8420008D01*
X17095967Y-8420008D02*
X17105491Y-8429531D01*
X17105491Y-8429531D02*
X17115015Y-8448579D01*
X17115015Y-8448579D02*
X17124539Y-8486674D01*
X17124539Y-8486674D02*
X17124539Y-8534293D01*
X17124539Y-8534293D02*
X17115015Y-8572389D01*
X17115015Y-8572389D02*
X17105491Y-8591436D01*
X17105491Y-8591436D02*
X17095967Y-8600960D01*
X17095967Y-8600960D02*
X17076920Y-8610484D01*
X17076920Y-8610484D02*
X17057872Y-8610484D01*
X17057872Y-8610484D02*
X17038824Y-8600960D01*
X17038824Y-8600960D02*
X17029301Y-8591436D01*
X17029301Y-8591436D02*
X17019777Y-8572389D01*
X17019777Y-8572389D02*
X17010253Y-8534293D01*
X17010253Y-8534293D02*
X17010253Y-8486674D01*
X17010253Y-8486674D02*
X17019777Y-8448579D01*
X17019777Y-8448579D02*
X17029301Y-8429531D01*
X17029301Y-8429531D02*
X17038824Y-8420008D01*
X17038824Y-8420008D02*
X17057872Y-8410484D01*
X17210253Y-8591436D02*
X17219777Y-8600960D01*
X17219777Y-8600960D02*
X17210253Y-8610484D01*
X17210253Y-8610484D02*
X17200729Y-8600960D01*
X17200729Y-8600960D02*
X17210253Y-8591436D01*
X17210253Y-8591436D02*
X17210253Y-8610484D01*
X17286444Y-8410484D02*
X17410253Y-8410484D01*
X17410253Y-8410484D02*
X17343586Y-8486674D01*
X17343586Y-8486674D02*
X17372158Y-8486674D01*
X17372158Y-8486674D02*
X17391205Y-8496198D01*
X17391205Y-8496198D02*
X17400729Y-8505722D01*
X17400729Y-8505722D02*
X17410253Y-8524770D01*
X17410253Y-8524770D02*
X17410253Y-8572389D01*
X17410253Y-8572389D02*
X17400729Y-8591436D01*
X17400729Y-8591436D02*
X17391205Y-8600960D01*
X17391205Y-8600960D02*
X17372158Y-8610484D01*
X17372158Y-8610484D02*
X17315015Y-8610484D01*
X17315015Y-8610484D02*
X17295967Y-8600960D01*
X17295967Y-8600960D02*
X17286444Y-8591436D01*
X17534063Y-8410484D02*
X17553110Y-8410484D01*
X17553110Y-8410484D02*
X17572158Y-8420008D01*
X17572158Y-8420008D02*
X17581682Y-8429531D01*
X17581682Y-8429531D02*
X17591205Y-8448579D01*
X17591205Y-8448579D02*
X17600729Y-8486674D01*
X17600729Y-8486674D02*
X17600729Y-8534293D01*
X17600729Y-8534293D02*
X17591205Y-8572389D01*
X17591205Y-8572389D02*
X17581682Y-8591436D01*
X17581682Y-8591436D02*
X17572158Y-8600960D01*
X17572158Y-8600960D02*
X17553110Y-8610484D01*
X17553110Y-8610484D02*
X17534063Y-8610484D01*
X17534063Y-8610484D02*
X17515015Y-8600960D01*
X17515015Y-8600960D02*
X17505491Y-8591436D01*
X17505491Y-8591436D02*
X17495967Y-8572389D01*
X17495967Y-8572389D02*
X17486444Y-8534293D01*
X17486444Y-8534293D02*
X17486444Y-8486674D01*
X17486444Y-8486674D02*
X17495967Y-8448579D01*
X17495967Y-8448579D02*
X17505491Y-8429531D01*
X17505491Y-8429531D02*
X17515015Y-8420008D01*
X17515015Y-8420008D02*
X17534063Y-8410484D01*
X17724539Y-8410484D02*
X17743586Y-8410484D01*
X17743586Y-8410484D02*
X17762634Y-8420008D01*
X17762634Y-8420008D02*
X17772158Y-8429531D01*
X17772158Y-8429531D02*
X17781682Y-8448579D01*
X17781682Y-8448579D02*
X17791205Y-8486674D01*
X17791205Y-8486674D02*
X17791205Y-8534293D01*
X17791205Y-8534293D02*
X17781682Y-8572389D01*
X17781682Y-8572389D02*
X17772158Y-8591436D01*
X17772158Y-8591436D02*
X17762634Y-8600960D01*
X17762634Y-8600960D02*
X17743586Y-8610484D01*
X17743586Y-8610484D02*
X17724539Y-8610484D01*
X17724539Y-8610484D02*
X17705491Y-8600960D01*
X17705491Y-8600960D02*
X17695967Y-8591436D01*
X17695967Y-8591436D02*
X17686444Y-8572389D01*
X17686444Y-8572389D02*
X17676920Y-8534293D01*
X17676920Y-8534293D02*
X17676920Y-8486674D01*
X17676920Y-8486674D02*
X17686444Y-8448579D01*
X17686444Y-8448579D02*
X17695967Y-8429531D01*
X17695967Y-8429531D02*
X17705491Y-8420008D01*
X17705491Y-8420008D02*
X17724539Y-8410484D01*
X17876920Y-8610484D02*
X17876920Y-8477150D01*
X17876920Y-8496198D02*
X17886444Y-8486674D01*
X17886444Y-8486674D02*
X17905491Y-8477150D01*
X17905491Y-8477150D02*
X17934063Y-8477150D01*
X17934063Y-8477150D02*
X17953110Y-8486674D01*
X17953110Y-8486674D02*
X17962634Y-8505722D01*
X17962634Y-8505722D02*
X17962634Y-8610484D01*
X17962634Y-8505722D02*
X17972158Y-8486674D01*
X17972158Y-8486674D02*
X17991205Y-8477150D01*
X17991205Y-8477150D02*
X18019777Y-8477150D01*
X18019777Y-8477150D02*
X18038825Y-8486674D01*
X18038825Y-8486674D02*
X18048348Y-8505722D01*
X18048348Y-8505722D02*
X18048348Y-8610484D01*
X18143586Y-8610484D02*
X18143586Y-8477150D01*
X18143586Y-8496198D02*
X18153110Y-8486674D01*
X18153110Y-8486674D02*
X18172158Y-8477150D01*
X18172158Y-8477150D02*
X18200729Y-8477150D01*
X18200729Y-8477150D02*
X18219777Y-8486674D01*
X18219777Y-8486674D02*
X18229301Y-8505722D01*
X18229301Y-8505722D02*
X18229301Y-8610484D01*
X18229301Y-8505722D02*
X18238825Y-8486674D01*
X18238825Y-8486674D02*
X18257872Y-8477150D01*
X18257872Y-8477150D02*
X18286444Y-8477150D01*
X18286444Y-8477150D02*
X18305491Y-8486674D01*
X18305491Y-8486674D02*
X18315015Y-8505722D01*
X18315015Y-8505722D02*
X18315015Y-8610484D01*
X18705491Y-8400960D02*
X18534063Y-8658103D01*
X18962634Y-8410484D02*
X18981682Y-8410484D01*
X18981682Y-8410484D02*
X19000729Y-8420008D01*
X19000729Y-8420008D02*
X19010253Y-8429531D01*
X19010253Y-8429531D02*
X19019777Y-8448579D01*
X19019777Y-8448579D02*
X19029301Y-8486674D01*
X19029301Y-8486674D02*
X19029301Y-8534293D01*
X19029301Y-8534293D02*
X19019777Y-8572389D01*
X19019777Y-8572389D02*
X19010253Y-8591436D01*
X19010253Y-8591436D02*
X19000729Y-8600960D01*
X19000729Y-8600960D02*
X18981682Y-8610484D01*
X18981682Y-8610484D02*
X18962634Y-8610484D01*
X18962634Y-8610484D02*
X18943587Y-8600960D01*
X18943587Y-8600960D02*
X18934063Y-8591436D01*
X18934063Y-8591436D02*
X18924539Y-8572389D01*
X18924539Y-8572389D02*
X18915015Y-8534293D01*
X18915015Y-8534293D02*
X18915015Y-8486674D01*
X18915015Y-8486674D02*
X18924539Y-8448579D01*
X18924539Y-8448579D02*
X18934063Y-8429531D01*
X18934063Y-8429531D02*
X18943587Y-8420008D01*
X18943587Y-8420008D02*
X18962634Y-8410484D01*
X19115015Y-8591436D02*
X19124539Y-8600960D01*
X19124539Y-8600960D02*
X19115015Y-8610484D01*
X19115015Y-8610484D02*
X19105491Y-8600960D01*
X19105491Y-8600960D02*
X19115015Y-8591436D01*
X19115015Y-8591436D02*
X19115015Y-8610484D01*
X19248348Y-8410484D02*
X19267396Y-8410484D01*
X19267396Y-8410484D02*
X19286444Y-8420008D01*
X19286444Y-8420008D02*
X19295968Y-8429531D01*
X19295968Y-8429531D02*
X19305491Y-8448579D01*
X19305491Y-8448579D02*
X19315015Y-8486674D01*
X19315015Y-8486674D02*
X19315015Y-8534293D01*
X19315015Y-8534293D02*
X19305491Y-8572389D01*
X19305491Y-8572389D02*
X19295968Y-8591436D01*
X19295968Y-8591436D02*
X19286444Y-8600960D01*
X19286444Y-8600960D02*
X19267396Y-8610484D01*
X19267396Y-8610484D02*
X19248348Y-8610484D01*
X19248348Y-8610484D02*
X19229301Y-8600960D01*
X19229301Y-8600960D02*
X19219777Y-8591436D01*
X19219777Y-8591436D02*
X19210253Y-8572389D01*
X19210253Y-8572389D02*
X19200729Y-8534293D01*
X19200729Y-8534293D02*
X19200729Y-8486674D01*
X19200729Y-8486674D02*
X19210253Y-8448579D01*
X19210253Y-8448579D02*
X19219777Y-8429531D01*
X19219777Y-8429531D02*
X19229301Y-8420008D01*
X19229301Y-8420008D02*
X19248348Y-8410484D01*
X19505491Y-8610484D02*
X19391206Y-8610484D01*
X19448348Y-8610484D02*
X19448348Y-8410484D01*
X19448348Y-8410484D02*
X19429301Y-8439055D01*
X19429301Y-8439055D02*
X19410253Y-8458103D01*
X19410253Y-8458103D02*
X19391206Y-8467627D01*
X19695968Y-8610484D02*
X19581682Y-8610484D01*
X19638825Y-8610484D02*
X19638825Y-8410484D01*
X19638825Y-8410484D02*
X19619777Y-8439055D01*
X19619777Y-8439055D02*
X19600729Y-8458103D01*
X19600729Y-8458103D02*
X19581682Y-8467627D01*
X19810253Y-8496198D02*
X19791206Y-8486674D01*
X19791206Y-8486674D02*
X19781682Y-8477150D01*
X19781682Y-8477150D02*
X19772158Y-8458103D01*
X19772158Y-8458103D02*
X19772158Y-8448579D01*
X19772158Y-8448579D02*
X19781682Y-8429531D01*
X19781682Y-8429531D02*
X19791206Y-8420008D01*
X19791206Y-8420008D02*
X19810253Y-8410484D01*
X19810253Y-8410484D02*
X19848349Y-8410484D01*
X19848349Y-8410484D02*
X19867396Y-8420008D01*
X19867396Y-8420008D02*
X19876920Y-8429531D01*
X19876920Y-8429531D02*
X19886444Y-8448579D01*
X19886444Y-8448579D02*
X19886444Y-8458103D01*
X19886444Y-8458103D02*
X19876920Y-8477150D01*
X19876920Y-8477150D02*
X19867396Y-8486674D01*
X19867396Y-8486674D02*
X19848349Y-8496198D01*
X19848349Y-8496198D02*
X19810253Y-8496198D01*
X19810253Y-8496198D02*
X19791206Y-8505722D01*
X19791206Y-8505722D02*
X19781682Y-8515246D01*
X19781682Y-8515246D02*
X19772158Y-8534293D01*
X19772158Y-8534293D02*
X19772158Y-8572389D01*
X19772158Y-8572389D02*
X19781682Y-8591436D01*
X19781682Y-8591436D02*
X19791206Y-8600960D01*
X19791206Y-8600960D02*
X19810253Y-8610484D01*
X19810253Y-8610484D02*
X19848349Y-8610484D01*
X19848349Y-8610484D02*
X19867396Y-8600960D01*
X19867396Y-8600960D02*
X19876920Y-8591436D01*
X19876920Y-8591436D02*
X19886444Y-8572389D01*
X19886444Y-8572389D02*
X19886444Y-8534293D01*
X19886444Y-8534293D02*
X19876920Y-8515246D01*
X19876920Y-8515246D02*
X19867396Y-8505722D01*
X19867396Y-8505722D02*
X19848349Y-8496198D01*
X19962634Y-8410484D02*
X19962634Y-8448579D01*
X20038825Y-8410484D02*
X20038825Y-8448579D01*
X20334063Y-8686674D02*
X20324539Y-8677150D01*
X20324539Y-8677150D02*
X20305491Y-8648579D01*
X20305491Y-8648579D02*
X20295968Y-8629531D01*
X20295968Y-8629531D02*
X20286444Y-8600960D01*
X20286444Y-8600960D02*
X20276920Y-8553341D01*
X20276920Y-8553341D02*
X20276920Y-8515246D01*
X20276920Y-8515246D02*
X20286444Y-8467627D01*
X20286444Y-8467627D02*
X20295968Y-8439055D01*
X20295968Y-8439055D02*
X20305491Y-8420008D01*
X20305491Y-8420008D02*
X20324539Y-8391436D01*
X20324539Y-8391436D02*
X20334063Y-8381912D01*
X20391206Y-8410484D02*
X20515015Y-8410484D01*
X20515015Y-8410484D02*
X20448349Y-8486674D01*
X20448349Y-8486674D02*
X20476920Y-8486674D01*
X20476920Y-8486674D02*
X20495968Y-8496198D01*
X20495968Y-8496198D02*
X20505491Y-8505722D01*
X20505491Y-8505722D02*
X20515015Y-8524770D01*
X20515015Y-8524770D02*
X20515015Y-8572389D01*
X20515015Y-8572389D02*
X20505491Y-8591436D01*
X20505491Y-8591436D02*
X20495968Y-8600960D01*
X20495968Y-8600960D02*
X20476920Y-8610484D01*
X20476920Y-8610484D02*
X20419777Y-8610484D01*
X20419777Y-8610484D02*
X20400730Y-8600960D01*
X20400730Y-8600960D02*
X20391206Y-8591436D01*
X20581682Y-8410484D02*
X20715015Y-8410484D01*
X20715015Y-8410484D02*
X20629301Y-8610484D01*
X20943587Y-8610484D02*
X20943587Y-8410484D01*
X21029301Y-8610484D02*
X21029301Y-8505722D01*
X21029301Y-8505722D02*
X21019777Y-8486674D01*
X21019777Y-8486674D02*
X21000730Y-8477150D01*
X21000730Y-8477150D02*
X20972158Y-8477150D01*
X20972158Y-8477150D02*
X20953111Y-8486674D01*
X20953111Y-8486674D02*
X20943587Y-8496198D01*
X21153111Y-8610484D02*
X21134063Y-8600960D01*
X21134063Y-8600960D02*
X21124539Y-8591436D01*
X21124539Y-8591436D02*
X21115015Y-8572389D01*
X21115015Y-8572389D02*
X21115015Y-8515246D01*
X21115015Y-8515246D02*
X21124539Y-8496198D01*
X21124539Y-8496198D02*
X21134063Y-8486674D01*
X21134063Y-8486674D02*
X21153111Y-8477150D01*
X21153111Y-8477150D02*
X21181682Y-8477150D01*
X21181682Y-8477150D02*
X21200730Y-8486674D01*
X21200730Y-8486674D02*
X21210253Y-8496198D01*
X21210253Y-8496198D02*
X21219777Y-8515246D01*
X21219777Y-8515246D02*
X21219777Y-8572389D01*
X21219777Y-8572389D02*
X21210253Y-8591436D01*
X21210253Y-8591436D02*
X21200730Y-8600960D01*
X21200730Y-8600960D02*
X21181682Y-8610484D01*
X21181682Y-8610484D02*
X21153111Y-8610484D01*
X21334063Y-8610484D02*
X21315015Y-8600960D01*
X21315015Y-8600960D02*
X21305492Y-8581912D01*
X21305492Y-8581912D02*
X21305492Y-8410484D01*
X21486444Y-8600960D02*
X21467396Y-8610484D01*
X21467396Y-8610484D02*
X21429301Y-8610484D01*
X21429301Y-8610484D02*
X21410253Y-8600960D01*
X21410253Y-8600960D02*
X21400730Y-8581912D01*
X21400730Y-8581912D02*
X21400730Y-8505722D01*
X21400730Y-8505722D02*
X21410253Y-8486674D01*
X21410253Y-8486674D02*
X21429301Y-8477150D01*
X21429301Y-8477150D02*
X21467396Y-8477150D01*
X21467396Y-8477150D02*
X21486444Y-8486674D01*
X21486444Y-8486674D02*
X21495968Y-8505722D01*
X21495968Y-8505722D02*
X21495968Y-8524770D01*
X21495968Y-8524770D02*
X21400730Y-8543817D01*
X21572158Y-8600960D02*
X21591206Y-8610484D01*
X21591206Y-8610484D02*
X21629301Y-8610484D01*
X21629301Y-8610484D02*
X21648349Y-8600960D01*
X21648349Y-8600960D02*
X21657873Y-8581912D01*
X21657873Y-8581912D02*
X21657873Y-8572389D01*
X21657873Y-8572389D02*
X21648349Y-8553341D01*
X21648349Y-8553341D02*
X21629301Y-8543817D01*
X21629301Y-8543817D02*
X21600730Y-8543817D01*
X21600730Y-8543817D02*
X21581682Y-8534293D01*
X21581682Y-8534293D02*
X21572158Y-8515246D01*
X21572158Y-8515246D02*
X21572158Y-8505722D01*
X21572158Y-8505722D02*
X21581682Y-8486674D01*
X21581682Y-8486674D02*
X21600730Y-8477150D01*
X21600730Y-8477150D02*
X21629301Y-8477150D01*
X21629301Y-8477150D02*
X21648349Y-8486674D01*
X21724539Y-8686674D02*
X21734063Y-8677150D01*
X21734063Y-8677150D02*
X21753111Y-8648579D01*
X21753111Y-8648579D02*
X21762634Y-8629531D01*
X21762634Y-8629531D02*
X21772158Y-8600960D01*
X21772158Y-8600960D02*
X21781682Y-8553341D01*
X21781682Y-8553341D02*
X21781682Y-8515246D01*
X21781682Y-8515246D02*
X21772158Y-8467627D01*
X21772158Y-8467627D02*
X21762634Y-8439055D01*
X21762634Y-8439055D02*
X21753111Y-8420008D01*
X21753111Y-8420008D02*
X21734063Y-8391436D01*
X21734063Y-8391436D02*
X21724539Y-8381912D01*
D10*
X16759000Y-8783000D02*
G75*
G02*
X16682800Y-8783000I-38100J0D01*
G01*
X16682800Y-8783000D02*
G75*
G02*
X16759000Y-8783000I38100J0D01*
G01*
D11*
X17057872Y-8674484D02*
X17076920Y-8674484D01*
X17076920Y-8674484D02*
X17095967Y-8684008D01*
X17095967Y-8684008D02*
X17105491Y-8693531D01*
X17105491Y-8693531D02*
X17115015Y-8712579D01*
X17115015Y-8712579D02*
X17124539Y-8750674D01*
X17124539Y-8750674D02*
X17124539Y-8798293D01*
X17124539Y-8798293D02*
X17115015Y-8836389D01*
X17115015Y-8836389D02*
X17105491Y-8855436D01*
X17105491Y-8855436D02*
X17095967Y-8864960D01*
X17095967Y-8864960D02*
X17076920Y-8874484D01*
X17076920Y-8874484D02*
X17057872Y-8874484D01*
X17057872Y-8874484D02*
X17038824Y-8864960D01*
X17038824Y-8864960D02*
X17029301Y-8855436D01*
X17029301Y-8855436D02*
X17019777Y-8836389D01*
X17019777Y-8836389D02*
X17010253Y-8798293D01*
X17010253Y-8798293D02*
X17010253Y-8750674D01*
X17010253Y-8750674D02*
X17019777Y-8712579D01*
X17019777Y-8712579D02*
X17029301Y-8693531D01*
X17029301Y-8693531D02*
X17038824Y-8684008D01*
X17038824Y-8684008D02*
X17057872Y-8674484D01*
X17210253Y-8855436D02*
X17219777Y-8864960D01*
X17219777Y-8864960D02*
X17210253Y-8874484D01*
X17210253Y-8874484D02*
X17200729Y-8864960D01*
X17200729Y-8864960D02*
X17210253Y-8855436D01*
X17210253Y-8855436D02*
X17210253Y-8874484D01*
X17286444Y-8674484D02*
X17419777Y-8674484D01*
X17419777Y-8674484D02*
X17334063Y-8874484D01*
X17581682Y-8674484D02*
X17543586Y-8674484D01*
X17543586Y-8674484D02*
X17524539Y-8684008D01*
X17524539Y-8684008D02*
X17515015Y-8693531D01*
X17515015Y-8693531D02*
X17495967Y-8722103D01*
X17495967Y-8722103D02*
X17486444Y-8760198D01*
X17486444Y-8760198D02*
X17486444Y-8836389D01*
X17486444Y-8836389D02*
X17495967Y-8855436D01*
X17495967Y-8855436D02*
X17505491Y-8864960D01*
X17505491Y-8864960D02*
X17524539Y-8874484D01*
X17524539Y-8874484D02*
X17562634Y-8874484D01*
X17562634Y-8874484D02*
X17581682Y-8864960D01*
X17581682Y-8864960D02*
X17591205Y-8855436D01*
X17591205Y-8855436D02*
X17600729Y-8836389D01*
X17600729Y-8836389D02*
X17600729Y-8788770D01*
X17600729Y-8788770D02*
X17591205Y-8769722D01*
X17591205Y-8769722D02*
X17581682Y-8760198D01*
X17581682Y-8760198D02*
X17562634Y-8750674D01*
X17562634Y-8750674D02*
X17524539Y-8750674D01*
X17524539Y-8750674D02*
X17505491Y-8760198D01*
X17505491Y-8760198D02*
X17495967Y-8769722D01*
X17495967Y-8769722D02*
X17486444Y-8788770D01*
X17676920Y-8693531D02*
X17686444Y-8684008D01*
X17686444Y-8684008D02*
X17705491Y-8674484D01*
X17705491Y-8674484D02*
X17753110Y-8674484D01*
X17753110Y-8674484D02*
X17772158Y-8684008D01*
X17772158Y-8684008D02*
X17781682Y-8693531D01*
X17781682Y-8693531D02*
X17791205Y-8712579D01*
X17791205Y-8712579D02*
X17791205Y-8731627D01*
X17791205Y-8731627D02*
X17781682Y-8760198D01*
X17781682Y-8760198D02*
X17667396Y-8874484D01*
X17667396Y-8874484D02*
X17791205Y-8874484D01*
X17876920Y-8874484D02*
X17876920Y-8741150D01*
X17876920Y-8760198D02*
X17886444Y-8750674D01*
X17886444Y-8750674D02*
X17905491Y-8741150D01*
X17905491Y-8741150D02*
X17934063Y-8741150D01*
X17934063Y-8741150D02*
X17953110Y-8750674D01*
X17953110Y-8750674D02*
X17962634Y-8769722D01*
X17962634Y-8769722D02*
X17962634Y-8874484D01*
X17962634Y-8769722D02*
X17972158Y-8750674D01*
X17972158Y-8750674D02*
X17991205Y-8741150D01*
X17991205Y-8741150D02*
X18019777Y-8741150D01*
X18019777Y-8741150D02*
X18038825Y-8750674D01*
X18038825Y-8750674D02*
X18048348Y-8769722D01*
X18048348Y-8769722D02*
X18048348Y-8874484D01*
X18143586Y-8874484D02*
X18143586Y-8741150D01*
X18143586Y-8760198D02*
X18153110Y-8750674D01*
X18153110Y-8750674D02*
X18172158Y-8741150D01*
X18172158Y-8741150D02*
X18200729Y-8741150D01*
X18200729Y-8741150D02*
X18219777Y-8750674D01*
X18219777Y-8750674D02*
X18229301Y-8769722D01*
X18229301Y-8769722D02*
X18229301Y-8874484D01*
X18229301Y-8769722D02*
X18238825Y-8750674D01*
X18238825Y-8750674D02*
X18257872Y-8741150D01*
X18257872Y-8741150D02*
X18286444Y-8741150D01*
X18286444Y-8741150D02*
X18305491Y-8750674D01*
X18305491Y-8750674D02*
X18315015Y-8769722D01*
X18315015Y-8769722D02*
X18315015Y-8874484D01*
X18705491Y-8664960D02*
X18534063Y-8922103D01*
X18962634Y-8674484D02*
X18981682Y-8674484D01*
X18981682Y-8674484D02*
X19000729Y-8684008D01*
X19000729Y-8684008D02*
X19010253Y-8693531D01*
X19010253Y-8693531D02*
X19019777Y-8712579D01*
X19019777Y-8712579D02*
X19029301Y-8750674D01*
X19029301Y-8750674D02*
X19029301Y-8798293D01*
X19029301Y-8798293D02*
X19019777Y-8836389D01*
X19019777Y-8836389D02*
X19010253Y-8855436D01*
X19010253Y-8855436D02*
X19000729Y-8864960D01*
X19000729Y-8864960D02*
X18981682Y-8874484D01*
X18981682Y-8874484D02*
X18962634Y-8874484D01*
X18962634Y-8874484D02*
X18943587Y-8864960D01*
X18943587Y-8864960D02*
X18934063Y-8855436D01*
X18934063Y-8855436D02*
X18924539Y-8836389D01*
X18924539Y-8836389D02*
X18915015Y-8798293D01*
X18915015Y-8798293D02*
X18915015Y-8750674D01*
X18915015Y-8750674D02*
X18924539Y-8712579D01*
X18924539Y-8712579D02*
X18934063Y-8693531D01*
X18934063Y-8693531D02*
X18943587Y-8684008D01*
X18943587Y-8684008D02*
X18962634Y-8674484D01*
X19115015Y-8855436D02*
X19124539Y-8864960D01*
X19124539Y-8864960D02*
X19115015Y-8874484D01*
X19115015Y-8874484D02*
X19105491Y-8864960D01*
X19105491Y-8864960D02*
X19115015Y-8855436D01*
X19115015Y-8855436D02*
X19115015Y-8874484D01*
X19248348Y-8674484D02*
X19267396Y-8674484D01*
X19267396Y-8674484D02*
X19286444Y-8684008D01*
X19286444Y-8684008D02*
X19295968Y-8693531D01*
X19295968Y-8693531D02*
X19305491Y-8712579D01*
X19305491Y-8712579D02*
X19315015Y-8750674D01*
X19315015Y-8750674D02*
X19315015Y-8798293D01*
X19315015Y-8798293D02*
X19305491Y-8836389D01*
X19305491Y-8836389D02*
X19295968Y-8855436D01*
X19295968Y-8855436D02*
X19286444Y-8864960D01*
X19286444Y-8864960D02*
X19267396Y-8874484D01*
X19267396Y-8874484D02*
X19248348Y-8874484D01*
X19248348Y-8874484D02*
X19229301Y-8864960D01*
X19229301Y-8864960D02*
X19219777Y-8855436D01*
X19219777Y-8855436D02*
X19210253Y-8836389D01*
X19210253Y-8836389D02*
X19200729Y-8798293D01*
X19200729Y-8798293D02*
X19200729Y-8750674D01*
X19200729Y-8750674D02*
X19210253Y-8712579D01*
X19210253Y-8712579D02*
X19219777Y-8693531D01*
X19219777Y-8693531D02*
X19229301Y-8684008D01*
X19229301Y-8684008D02*
X19248348Y-8674484D01*
X19381682Y-8674484D02*
X19505491Y-8674484D01*
X19505491Y-8674484D02*
X19438825Y-8750674D01*
X19438825Y-8750674D02*
X19467396Y-8750674D01*
X19467396Y-8750674D02*
X19486444Y-8760198D01*
X19486444Y-8760198D02*
X19495968Y-8769722D01*
X19495968Y-8769722D02*
X19505491Y-8788770D01*
X19505491Y-8788770D02*
X19505491Y-8836389D01*
X19505491Y-8836389D02*
X19495968Y-8855436D01*
X19495968Y-8855436D02*
X19486444Y-8864960D01*
X19486444Y-8864960D02*
X19467396Y-8874484D01*
X19467396Y-8874484D02*
X19410253Y-8874484D01*
X19410253Y-8874484D02*
X19391206Y-8864960D01*
X19391206Y-8864960D02*
X19381682Y-8855436D01*
X19629301Y-8674484D02*
X19648349Y-8674484D01*
X19648349Y-8674484D02*
X19667396Y-8684008D01*
X19667396Y-8684008D02*
X19676920Y-8693531D01*
X19676920Y-8693531D02*
X19686444Y-8712579D01*
X19686444Y-8712579D02*
X19695968Y-8750674D01*
X19695968Y-8750674D02*
X19695968Y-8798293D01*
X19695968Y-8798293D02*
X19686444Y-8836389D01*
X19686444Y-8836389D02*
X19676920Y-8855436D01*
X19676920Y-8855436D02*
X19667396Y-8864960D01*
X19667396Y-8864960D02*
X19648349Y-8874484D01*
X19648349Y-8874484D02*
X19629301Y-8874484D01*
X19629301Y-8874484D02*
X19610253Y-8864960D01*
X19610253Y-8864960D02*
X19600729Y-8855436D01*
X19600729Y-8855436D02*
X19591206Y-8836389D01*
X19591206Y-8836389D02*
X19581682Y-8798293D01*
X19581682Y-8798293D02*
X19581682Y-8750674D01*
X19581682Y-8750674D02*
X19591206Y-8712579D01*
X19591206Y-8712579D02*
X19600729Y-8693531D01*
X19600729Y-8693531D02*
X19610253Y-8684008D01*
X19610253Y-8684008D02*
X19629301Y-8674484D01*
X19819777Y-8674484D02*
X19838825Y-8674484D01*
X19838825Y-8674484D02*
X19857872Y-8684008D01*
X19857872Y-8684008D02*
X19867396Y-8693531D01*
X19867396Y-8693531D02*
X19876920Y-8712579D01*
X19876920Y-8712579D02*
X19886444Y-8750674D01*
X19886444Y-8750674D02*
X19886444Y-8798293D01*
X19886444Y-8798293D02*
X19876920Y-8836389D01*
X19876920Y-8836389D02*
X19867396Y-8855436D01*
X19867396Y-8855436D02*
X19857872Y-8864960D01*
X19857872Y-8864960D02*
X19838825Y-8874484D01*
X19838825Y-8874484D02*
X19819777Y-8874484D01*
X19819777Y-8874484D02*
X19800729Y-8864960D01*
X19800729Y-8864960D02*
X19791206Y-8855436D01*
X19791206Y-8855436D02*
X19781682Y-8836389D01*
X19781682Y-8836389D02*
X19772158Y-8798293D01*
X19772158Y-8798293D02*
X19772158Y-8750674D01*
X19772158Y-8750674D02*
X19781682Y-8712579D01*
X19781682Y-8712579D02*
X19791206Y-8693531D01*
X19791206Y-8693531D02*
X19800729Y-8684008D01*
X19800729Y-8684008D02*
X19819777Y-8674484D01*
X19962634Y-8674484D02*
X19962634Y-8712579D01*
X20038825Y-8674484D02*
X20038825Y-8712579D01*
X20334063Y-8950674D02*
X20324539Y-8941150D01*
X20324539Y-8941150D02*
X20305491Y-8912579D01*
X20305491Y-8912579D02*
X20295968Y-8893531D01*
X20295968Y-8893531D02*
X20286444Y-8864960D01*
X20286444Y-8864960D02*
X20276920Y-8817341D01*
X20276920Y-8817341D02*
X20276920Y-8779246D01*
X20276920Y-8779246D02*
X20286444Y-8731627D01*
X20286444Y-8731627D02*
X20295968Y-8703055D01*
X20295968Y-8703055D02*
X20305491Y-8684008D01*
X20305491Y-8684008D02*
X20324539Y-8655436D01*
X20324539Y-8655436D02*
X20334063Y-8645912D01*
X20391206Y-8674484D02*
X20524539Y-8674484D01*
X20524539Y-8674484D02*
X20438825Y-8874484D01*
X20753111Y-8874484D02*
X20753111Y-8674484D01*
X20838825Y-8874484D02*
X20838825Y-8769722D01*
X20838825Y-8769722D02*
X20829301Y-8750674D01*
X20829301Y-8750674D02*
X20810253Y-8741150D01*
X20810253Y-8741150D02*
X20781682Y-8741150D01*
X20781682Y-8741150D02*
X20762634Y-8750674D01*
X20762634Y-8750674D02*
X20753111Y-8760198D01*
X20962634Y-8874484D02*
X20943587Y-8864960D01*
X20943587Y-8864960D02*
X20934063Y-8855436D01*
X20934063Y-8855436D02*
X20924539Y-8836389D01*
X20924539Y-8836389D02*
X20924539Y-8779246D01*
X20924539Y-8779246D02*
X20934063Y-8760198D01*
X20934063Y-8760198D02*
X20943587Y-8750674D01*
X20943587Y-8750674D02*
X20962634Y-8741150D01*
X20962634Y-8741150D02*
X20991206Y-8741150D01*
X20991206Y-8741150D02*
X21010253Y-8750674D01*
X21010253Y-8750674D02*
X21019777Y-8760198D01*
X21019777Y-8760198D02*
X21029301Y-8779246D01*
X21029301Y-8779246D02*
X21029301Y-8836389D01*
X21029301Y-8836389D02*
X21019777Y-8855436D01*
X21019777Y-8855436D02*
X21010253Y-8864960D01*
X21010253Y-8864960D02*
X20991206Y-8874484D01*
X20991206Y-8874484D02*
X20962634Y-8874484D01*
X21143587Y-8874484D02*
X21124539Y-8864960D01*
X21124539Y-8864960D02*
X21115015Y-8845912D01*
X21115015Y-8845912D02*
X21115015Y-8674484D01*
X21295968Y-8864960D02*
X21276920Y-8874484D01*
X21276920Y-8874484D02*
X21238825Y-8874484D01*
X21238825Y-8874484D02*
X21219777Y-8864960D01*
X21219777Y-8864960D02*
X21210253Y-8845912D01*
X21210253Y-8845912D02*
X21210253Y-8769722D01*
X21210253Y-8769722D02*
X21219777Y-8750674D01*
X21219777Y-8750674D02*
X21238825Y-8741150D01*
X21238825Y-8741150D02*
X21276920Y-8741150D01*
X21276920Y-8741150D02*
X21295968Y-8750674D01*
X21295968Y-8750674D02*
X21305492Y-8769722D01*
X21305492Y-8769722D02*
X21305492Y-8788770D01*
X21305492Y-8788770D02*
X21210253Y-8807817D01*
X21381682Y-8864960D02*
X21400730Y-8874484D01*
X21400730Y-8874484D02*
X21438825Y-8874484D01*
X21438825Y-8874484D02*
X21457873Y-8864960D01*
X21457873Y-8864960D02*
X21467396Y-8845912D01*
X21467396Y-8845912D02*
X21467396Y-8836389D01*
X21467396Y-8836389D02*
X21457873Y-8817341D01*
X21457873Y-8817341D02*
X21438825Y-8807817D01*
X21438825Y-8807817D02*
X21410253Y-8807817D01*
X21410253Y-8807817D02*
X21391206Y-8798293D01*
X21391206Y-8798293D02*
X21381682Y-8779246D01*
X21381682Y-8779246D02*
X21381682Y-8769722D01*
X21381682Y-8769722D02*
X21391206Y-8750674D01*
X21391206Y-8750674D02*
X21410253Y-8741150D01*
X21410253Y-8741150D02*
X21438825Y-8741150D01*
X21438825Y-8741150D02*
X21457873Y-8750674D01*
X21534063Y-8950674D02*
X21543587Y-8941150D01*
X21543587Y-8941150D02*
X21562634Y-8912579D01*
X21562634Y-8912579D02*
X21572158Y-8893531D01*
X21572158Y-8893531D02*
X21581682Y-8864960D01*
X21581682Y-8864960D02*
X21591206Y-8817341D01*
X21591206Y-8817341D02*
X21591206Y-8779246D01*
X21591206Y-8779246D02*
X21581682Y-8731627D01*
X21581682Y-8731627D02*
X21572158Y-8703055D01*
X21572158Y-8703055D02*
X21562634Y-8684008D01*
X21562634Y-8684008D02*
X21543587Y-8655436D01*
X21543587Y-8655436D02*
X21534063Y-8645912D01*
M02*
